<?xml version="1.0" standalone="no"?>
<!DOCTYPE svg PUBLIC "-//W3C//DTD SVG 1.1//EN" "http://www.w3.org/Graphics/SVG/1.1/DTD/svg11.dtd" >
<svg xmlns="http://www.w3.org/2000/svg" xmlns:xlink="http://www.w3.org/1999/xlink" version="1.1">
<metadata>
Created by FontForge 20161116 at Tue Jan 17 12:49:05 2017
 By Jimmy Wärting
Copyright 2015 The Amatic SC Project Authors (contact@sansoxygen.com)
</metadata>
<defs>
<font id="AmaticSC-Regular" horiz-adv-x="0" >
  <font-face 
    font-family="Amatic SC"
    font-weight="400"
    font-stretch="normal"
    units-per-em="2048"
    panose-1="0 0 5 0 0 0 0 0 0 0"
    ascent="1638"
    descent="-410"
    x-height="1356"
    cap-height="1548"
    bbox="-841 -479 2164 2237"
    underline-thickness="50"
    underline-position="-100"
    unicode-range="U+000D-FB4B"
  />
<missing-glyph horiz-adv-x="748" 
d="M68 0v1365h544v-1365h-544zM136 68h408v1229h-408v-1229z" />
    <glyph glyph-name="f_f" unicode="ff" horiz-adv-x="1036" 
d="M150 2q19 191 19 498q0 127 14 413q14 285 14 412q0 18 17 28.5t39 10.5q43 0 101.5 -7t101 -20.5t42.5 -31.5q0 -35 -73 -35q-38 20 -113 20q-15 0 -25 -2q-7 -2 -9 -5t-5 -14q-2 -8 -8 -22q0 -81 -10 -217q-10 -137 -10 -215v-72q0 -7 34 -6q103 0 103 -32
q0 -16 -15.5 -27.5t-33.5 -11.5q-11 0 -34 6q-22 6 -34 6q-37 0 -37 -100v-232q0 -48 6 -146q6 -97 6 -147q0 -82 -49 -82zM628 2q19 191 19 498q0 127 14 413q14 285 14 412q0 18 17 28.5t39 10.5q43 0 101.5 -7t101 -20.5t42.5 -31.5q0 -35 -73 -35q-38 20 -113 20
q-15 0 -25 -2q-7 -2 -9 -5t-5 -14q-2 -8 -8 -22q0 -81 -10 -217q-10 -137 -10 -215v-72q0 -7 34 -6q103 0 103 -32q0 -16 -15.5 -27.5t-33.5 -11.5q-11 0 -34 6q-22 6 -34 6q-37 0 -37 -100v-232q0 -48 6 -146q6 -97 6 -147q0 -82 -49 -82z" />
    <glyph glyph-name="f_f_i" unicode="ffi" horiz-adv-x="1521" 
d="M150 2q19 191 19 498q0 127 14 413q14 285 14 412q0 18 17 28.5t39 10.5q43 0 101.5 -7t101 -20.5t42.5 -31.5q0 -35 -73 -35q-38 20 -113 20q-15 0 -25 -2q-7 -2 -9 -5t-5 -14q-2 -8 -8 -22q0 -81 -10 -217q-10 -137 -10 -215v-72q0 -7 34 -6q103 0 103 -32
q0 -16 -15.5 -27.5t-33.5 -11.5q-11 0 -34 6q-22 6 -34 6q-37 0 -37 -100v-232q0 -48 6 -146q6 -97 6 -147q0 -82 -49 -82zM628 2q19 191 19 498q0 127 14 413q14 285 14 412q0 18 17 28.5t39 10.5q43 0 101.5 -7t101 -20.5t42.5 -31.5q0 -35 -73 -35q-38 20 -113 20
q-15 0 -25 -2q-7 -2 -9 -5t-5 -14q-2 -8 -8 -22q0 -81 -10 -217q-10 -137 -10 -215v-72q0 -7 34 -6q103 0 103 -32q0 -16 -15.5 -27.5t-33.5 -11.5q-11 0 -34 6q-22 6 -34 6q-37 0 -37 -100v-232q0 -48 6 -146q6 -97 6 -147q0 -82 -49 -82zM1239 20q-10 0 -17 -1
q-8 -1 -17 -1q-44 0 -56 21q0 8 3 13t12 11l12 11h59l8 8q0 4 4 19q3 17 3 24q0 85 -7 224q-8 158 -8 224q0 62 5 240q5 177 5 238q0 144 -10 237q-19 6 -61 6l-24 -2l-25 -2q-39 0 -39 35q0 8 18 16.5t31 8.5q67 0 155 -8q53 -4 94 -19q36 -13 36 -35q0 -4 -5 -16l-47 -4
q-16 12 -59 12l-10 -6q6 -18 6 -109q0 -81 -3 -243q-3 -163 -3 -244q0 -85 7 -224q7 -140 7 -225l-1 -26q-1 -15 -1 -37q0 -48 6 -57l-2 -5q0 -20 45 -20q17 0 30 1t30 1q61 0 61 -29q0 -18 -13 -29.5t-32 -11.5q-14 0 -34 4q-22 3 -34 3q-14 0 -38 -11q-22 -12 -35 -12
q-48 0 -56 20z" />
    <glyph glyph-name="f_f_l" unicode="ffl" horiz-adv-x="1545" 
d="M150 2q19 191 19 498q0 127 14 413q14 285 14 412q0 18 17 28.5t39 10.5q43 0 101.5 -7t101 -20.5t42.5 -31.5q0 -35 -73 -35q-38 20 -113 20q-15 0 -25 -2q-7 -2 -9 -5t-5 -14q-2 -8 -8 -22q0 -81 -10 -217q-10 -137 -10 -215v-72q0 -7 34 -6q103 0 103 -32
q0 -16 -15.5 -27.5t-33.5 -11.5q-11 0 -34 6q-22 6 -34 6q-37 0 -37 -100v-232q0 -48 6 -146q6 -97 6 -147q0 -82 -49 -82zM628 2q19 191 19 498q0 127 14 413q14 285 14 412q0 18 17 28.5t39 10.5q43 0 101.5 -7t101 -20.5t42.5 -31.5q0 -35 -73 -35q-38 20 -113 20
q-15 0 -25 -2q-7 -2 -9 -5t-5 -14q-2 -8 -8 -22q0 -81 -10 -217q-10 -137 -10 -215v-72q0 -7 34 -6q103 0 103 -32q0 -16 -15.5 -27.5t-33.5 -11.5q-11 0 -34 6q-22 6 -34 6q-37 0 -37 -100v-232q0 -48 6 -146q6 -97 6 -147q0 -82 -49 -82zM1186 20q4 17 4 68q0 189 6 559
q6 369 6 533q0 8 5 73l5 62q0 14 15 14q10 0 29 -7q5 -2 5 -1q0 -45 -1 -81t-1 -81q0 -124 1 -223t1 -223l-3 -88q-3 -61 -3 -84l2 -87l2 -87l-6 -17l2 2q0 -5 -1 -8t-1 -8q0 -17 6 -29l-6 -196v-13q0 -29 2 -41q1 -10 10 -10q30 0 106 -3l87 -3h6q11 0 21 -11.5t10 -23.5
q0 -23 -33 -26q-70 2 -170 2l4 -2q-12 0 -38 -3q-23 -4 -38 -4q-29 0 -34 47z" />
    <glyph glyph-name="fi" unicode="fi" horiz-adv-x="1043" 
d="M150 2q19 191 19 498q0 127 14 413q14 285 14 412q0 18 17 28.5t39 10.5q43 0 101.5 -7t101 -20.5t42.5 -31.5q0 -35 -73 -35q-38 20 -113 20q-15 0 -25 -2q-7 -2 -9 -5t-5 -14q-2 -8 -8 -22q0 -81 -10 -217q-10 -137 -10 -215v-72q0 -7 34 -6q103 0 103 -32
q0 -16 -15.5 -27.5t-33.5 -11.5q-11 0 -34 6q-22 6 -34 6q-37 0 -37 -100v-232q0 -48 6 -146q6 -97 6 -147q0 -82 -49 -82zM761 20q-10 0 -17 -1q-8 -1 -17 -1q-44 0 -56 21q0 8 3 13t12 11l12 11h59l8 8q0 4 4 19q3 17 3 24q0 85 -7 224q-8 158 -8 224q0 62 5 240
q5 177 5 238q0 144 -10 237q-19 6 -61 6l-24 -2l-25 -2q-39 0 -39 35q0 8 18 16.5t31 8.5q67 0 155 -8q53 -4 94 -19q36 -13 36 -35q0 -4 -5 -16l-47 -4q-16 12 -59 12l-10 -6q6 -18 6 -109q0 -81 -3 -243q-3 -163 -3 -244q0 -85 7 -224q7 -140 7 -225l-1 -26q-1 -15 -1 -37
q0 -48 6 -57l-2 -5q0 -20 45 -20q17 0 30 1t30 1q61 0 61 -29q0 -18 -13 -29.5t-32 -11.5q-14 0 -34 4q-22 3 -34 3q-14 0 -38 -11q-22 -12 -35 -12q-48 0 -56 20z" />
    <glyph glyph-name="fl" unicode="fl" horiz-adv-x="1067" 
d="M150 2q19 191 19 498q0 127 14 413q14 285 14 412q0 18 17 28.5t39 10.5q43 0 101.5 -7t101 -20.5t42.5 -31.5q0 -35 -73 -35q-38 20 -113 20q-15 0 -25 -2q-7 -2 -9 -5t-5 -14q-2 -8 -8 -22q0 -81 -10 -217q-10 -137 -10 -215v-72q0 -7 34 -6q103 0 103 -32
q0 -16 -15.5 -27.5t-33.5 -11.5q-11 0 -34 6q-22 6 -34 6q-37 0 -37 -100v-232q0 -48 6 -146q6 -97 6 -147q0 -82 -49 -82zM708 20q4 17 4 68q0 189 6 559q6 369 6 533q0 8 5 73l5 62q0 14 15 14q10 0 29 -7q5 -2 5 -1q0 -45 -1 -81t-1 -81q0 -124 1 -223t1 -223l-3 -88
q-3 -61 -3 -84l2 -87l2 -87l-6 -17l2 2q0 -5 -1 -8t-1 -8q0 -17 6 -29l-6 -196v-13q0 -29 2 -41q1 -10 10 -10q30 0 106 -3l87 -3h6q11 0 21 -11.5t10 -23.5q0 -23 -33 -26q-70 2 -170 2l4 -2q-12 0 -38 -3q-23 -4 -38 -4q-29 0 -34 47z" />
    <glyph glyph-name=".notdef" horiz-adv-x="748" 
d="M68 0v1365h544v-1365h-544zM136 68h408v1229h-408v-1229z" />
    <glyph glyph-name="NULL" 
 />
    <glyph glyph-name="NULL" 
 />
    <glyph glyph-name="nonmarkingreturn" unicode="&#xd;" horiz-adv-x="350" 
 />
    <glyph glyph-name="space" unicode=" " horiz-adv-x="350" 
 />
    <glyph glyph-name="A" unicode="A" horiz-adv-x="723" 
d="M511 10q-12 10 -12 25v268q0 16 -51.5 31.5t-119 25t-105.5 9.5q-6 0 -26 -77q-17 -67 -37 -154t-26 -118q-4 -15 -22 -15q-16 0 -29 10t-13 24q0 2 1 3v3l24 102l42 189l30 135q31 133 78 406q51 293 74 397q17 76 37 145q13 47 30 83q16 34 29 34q32 0 47 -20
q11 -18 32.5 -205t37.5 -371l28 -340q0 -88 12 -267q11 -187 11 -267v-9q0 -27 -6 -40q-7 -17 -39 -17q-15 0 -27 10zM497 416q0 127 -14 347t-30 388q-8 88 -25 238l-4 22q-4 15 -4 25q-16 -46 -29.5 -113t-34.5 -201q-47 -301 -84 -458q-4 -23 -18 -70
q-15 -52 -22.5 -88.5t-7.5 -67.5v-12q87 -29 207 -29h12q6 -1 14 -1q40 0 40 20z" />
    <glyph glyph-name="Aacute" unicode="&#xc1;" horiz-adv-x="723" 
d="M511 10q-12 10 -12 25v268q0 16 -51.5 31.5t-119 25t-105.5 9.5q-6 0 -26 -77q-17 -67 -37 -154t-26 -118q-4 -15 -22 -15q-16 0 -29 10t-13 24q0 2 1 3v3l24 102l42 189l30 135q31 133 78 406q51 293 74 397q17 76 37 145q13 47 30 83q16 34 29 34q32 0 47 -20
q11 -18 32.5 -205t37.5 -371l28 -340q0 -88 12 -267q11 -187 11 -267v-9q0 -27 -6 -40q-7 -17 -39 -17q-15 0 -27 10zM497 416q0 127 -14 347t-30 388q-8 88 -25 238l-4 22q-4 15 -4 25q-16 -46 -29.5 -113t-34.5 -201q-47 -301 -84 -458q-4 -23 -18 -70
q-15 -52 -22.5 -88.5t-7.5 -67.5v-12q87 -29 207 -29h12q6 -1 14 -1q40 0 40 20zM432.5 1647q-10.5 8 -10.5 22q0 8 56 53q45 37 122 96q69 53 76 60q45 0 45 -32l-6 -31q-105 -47 -256 -176q-16 0 -26.5 8z" />
    <glyph glyph-name="Abreve" unicode="&#x102;" horiz-adv-x="723" 
d="M511 10q-12 10 -12 25v268q0 16 -51.5 31.5t-119 25t-105.5 9.5q-6 0 -26 -77q-17 -67 -37 -154t-26 -118q-4 -15 -22 -15q-16 0 -29 10t-13 24q0 2 1 3v3l24 102l42 189l30 135q31 133 78 406q51 293 74 397q17 76 37 145q13 47 30 83q16 34 29 34q32 0 47 -20
q11 -18 32.5 -205t37.5 -371l28 -340q0 -88 12 -267q11 -187 11 -267v-9q0 -27 -6 -40q-7 -17 -39 -17q-15 0 -27 10zM497 416q0 127 -14 347t-30 388q-8 88 -25 238l-4 22q-4 15 -4 25q-16 -46 -29.5 -113t-34.5 -201q-47 -301 -84 -458q-4 -23 -18 -70
q-15 -52 -22.5 -88.5t-7.5 -67.5v-12q87 -29 207 -29h12q6 -1 14 -1q40 0 40 20zM387.5 1640.5q-30.5 18.5 -46.5 51.5q-31 63 -31 139l22 18q14 -2 20 -32q8 -47 19 -81.5t33 -50.5l22 -16h51q17 0 33.5 17.5t26.5 42t10 44.5q0 8 -1 15q-1 6 -1 14q0 39 37 39
q12 0 21.5 -8.5t9.5 -20.5q0 -4 -5 -17l-6 -15l5 -15l-6 -12t-10 -23q-9 -21 -15.5 -34t-17.5 -29q-11 -17 -22.5 -24t-32.5 -14q-18 -7 -44 -7q-41 0 -71.5 18.5z" />
    <glyph glyph-name="uni1EAE" unicode="&#x1eae;" horiz-adv-x="723" 
d="M511 10q-12 10 -12 25v268q0 16 -51.5 31.5t-119 25t-105.5 9.5q-6 0 -26 -77q-17 -67 -37 -154t-26 -118q-4 -15 -22 -15q-16 0 -29 10t-13 24q0 2 1 3v3l24 102l42 189l30 135q31 133 78 406q51 293 74 397q17 76 37 145q13 47 30 83q16 34 29 34q32 0 47 -20
q11 -18 32.5 -205t37.5 -371l28 -340q0 -88 12 -267q11 -187 11 -267v-9q0 -27 -6 -40q-7 -17 -39 -17q-15 0 -27 10zM497 416q0 127 -14 347t-30 388q-8 88 -25 238l-4 22q-4 15 -4 25q-16 -46 -29.5 -113t-34.5 -201q-47 -301 -84 -458q-4 -23 -18 -70
q-15 -52 -22.5 -88.5t-7.5 -67.5v-12q87 -29 207 -29h12q6 -1 14 -1q40 0 40 20zM387.5 1640.5q-30.5 18.5 -46.5 51.5q-31 63 -31 139l22 18q14 -2 20 -32q8 -47 19 -81.5t33 -50.5l22 -16h51q17 0 33.5 17.5t26.5 42t10 44.5q0 8 -1 15q-1 6 -1 14q0 39 37 39
q12 0 21.5 -8.5t9.5 -20.5q0 -4 -5 -17l-6 -15l5 -15l-6 -12t-10 -23q-9 -21 -15.5 -34t-17.5 -29q-11 -17 -22.5 -24t-32.5 -14q-18 -7 -44 -7q-41 0 -71.5 18.5zM432.5 1952q-10.5 8 -10.5 22q0 8 56 53q45 37 122 96q69 53 76 60q45 0 45 -32l-6 -31q-105 -47 -256 -176
q-16 0 -26.5 8z" />
    <glyph glyph-name="uni1EB6" unicode="&#x1eb6;" horiz-adv-x="723" 
d="M511 10q-12 10 -12 25v268q0 16 -51.5 31.5t-119 25t-105.5 9.5q-6 0 -26 -77q-17 -67 -37 -154t-26 -118q-4 -15 -22 -15q-16 0 -29 10t-13 24q0 2 1 3v3l24 102l42 189l30 135q31 133 78 406q51 293 74 397q17 76 37 145q13 47 30 83q16 34 29 34q32 0 47 -20
q11 -18 32.5 -205t37.5 -371l28 -340q0 -88 12 -267q11 -187 11 -267v-9q0 -27 -6 -40q-7 -17 -39 -17q-15 0 -27 10zM497 416q0 127 -14 347t-30 388q-8 88 -25 238l-4 22q-4 15 -4 25q-16 -46 -29.5 -113t-34.5 -201q-47 -301 -84 -458q-4 -23 -18 -70
q-15 -52 -22.5 -88.5t-7.5 -67.5v-12q87 -29 207 -29h12q6 -1 14 -1q40 0 40 20zM324.5 -224.5q-13.5 15.5 -13.5 33.5q0 20 16.5 37.5t36.5 17.5q18 0 33.5 -17.5t15.5 -35.5q0 -51 -57 -51q-18 0 -31.5 15.5zM387.5 1640.5q-30.5 18.5 -46.5 51.5q-31 63 -31 139l22 18
q14 -2 20 -32q8 -47 19 -81.5t33 -50.5l22 -16h51q17 0 33.5 17.5t26.5 42t10 44.5q0 8 -1 15q-1 6 -1 14q0 39 37 39q12 0 21.5 -8.5t9.5 -20.5q0 -4 -5 -17l-6 -15l5 -15l-6 -12t-10 -23q-9 -21 -15.5 -34t-17.5 -29q-11 -17 -22.5 -24t-32.5 -14q-18 -7 -44 -7
q-41 0 -71.5 18.5z" />
    <glyph glyph-name="uni1EB0" unicode="&#x1eb0;" horiz-adv-x="723" 
d="M511 10q-12 10 -12 25v268q0 16 -51.5 31.5t-119 25t-105.5 9.5q-6 0 -26 -77q-17 -67 -37 -154t-26 -118q-4 -15 -22 -15q-16 0 -29 10t-13 24q0 2 1 3v3l24 102l42 189l30 135q31 133 78 406q51 293 74 397q17 76 37 145q13 47 30 83q16 34 29 34q32 0 47 -20
q11 -18 32.5 -205t37.5 -371l28 -340q0 -88 12 -267q11 -187 11 -267v-9q0 -27 -6 -40q-7 -17 -39 -17q-15 0 -27 10zM497 416q0 127 -14 347t-30 388q-8 88 -25 238l-4 22q-4 15 -4 25q-16 -46 -29.5 -113t-34.5 -201q-47 -301 -84 -458q-4 -23 -18 -70
q-15 -52 -22.5 -88.5t-7.5 -67.5v-12q87 -29 207 -29h12q6 -1 14 -1q40 0 40 20zM387.5 1640.5q-30.5 18.5 -46.5 51.5q-31 63 -31 139l22 18q14 -2 20 -32q8 -47 19 -81.5t33 -50.5l22 -16h51q17 0 33.5 17.5t26.5 42t10 44.5q0 8 -1 15q-1 6 -1 14q0 39 37 39
q12 0 21.5 -8.5t9.5 -20.5q0 -4 -5 -17l-6 -15l5 -15l-6 -12t-10 -23q-9 -21 -15.5 -34t-17.5 -29q-11 -17 -22.5 -24t-32.5 -14q-18 -7 -44 -7q-41 0 -71.5 18.5zM442 1941q-90 51 -97 57h-11q-10 0 -22 2q-70 12 -62 52q6 36 20 42l13 -2q60 -10 74 -36l23 -12
q21 -11 75 -44q48 -30 76 -53q34 -28 31 -45q-1 -6 -9.5 -10t-16.5 -3q-4 1 -94 52z" />
    <glyph glyph-name="uni1EB2" unicode="&#x1eb2;" horiz-adv-x="723" 
d="M511 10q-12 10 -12 25v268q0 16 -51.5 31.5t-119 25t-105.5 9.5q-6 0 -26 -77q-17 -67 -37 -154t-26 -118q-4 -15 -22 -15q-16 0 -29 10t-13 24q0 2 1 3v3l24 102l42 189l30 135q31 133 78 406q51 293 74 397q17 76 37 145q13 47 30 83q16 34 29 34q32 0 47 -20
q11 -18 32.5 -205t37.5 -371l28 -340q0 -88 12 -267q11 -187 11 -267v-9q0 -27 -6 -40q-7 -17 -39 -17q-15 0 -27 10zM497 416q0 127 -14 347t-30 388q-8 88 -25 238l-4 22q-4 15 -4 25q-16 -46 -29.5 -113t-34.5 -201q-47 -301 -84 -458q-4 -23 -18 -70
q-15 -52 -22.5 -88.5t-7.5 -67.5v-12q87 -29 207 -29h12q6 -1 14 -1q40 0 40 20zM387.5 1640.5q-30.5 18.5 -46.5 51.5q-31 63 -31 139l22 18q14 -2 20 -32q8 -47 19 -81.5t33 -50.5l22 -16h51q17 0 33.5 17.5t26.5 42t10 44.5q0 8 -1 15q-1 6 -1 14q0 39 37 39
q12 0 21.5 -8.5t9.5 -20.5q0 -4 -5 -17l-6 -15l5 -15l-6 -12t-10 -23q-9 -21 -15.5 -34t-17.5 -29q-11 -17 -22.5 -24t-32.5 -14q-18 -7 -44 -7q-41 0 -71.5 18.5zM450 1902v11q0 15 11.5 26t35.5 28q21 13 32 24t11 23q0 39 -66 39q-38 0 -56.5 -10t-18.5 -33q0 -13 3 -27
q-13 -5 -20 -5q-29 0 -29 36q0 33 29 55.5t92 22.5q64 0 90 -20t26 -58q0 -19 -13.5 -33t-40.5 -33q-21 -15 -30.5 -24t-9.5 -20v-13q-8 -13 -23 -13q-20 0 -23 24z" />
    <glyph glyph-name="uni1EB4" unicode="&#x1eb4;" horiz-adv-x="723" 
d="M511 10q-12 10 -12 25v268q0 16 -51.5 31.5t-119 25t-105.5 9.5q-6 0 -26 -77q-17 -67 -37 -154t-26 -118q-4 -15 -22 -15q-16 0 -29 10t-13 24q0 2 1 3v3l24 102l42 189l30 135q31 133 78 406q51 293 74 397q17 76 37 145q13 47 30 83q16 34 29 34q32 0 47 -20
q11 -18 32.5 -205t37.5 -371l28 -340q0 -88 12 -267q11 -187 11 -267v-9q0 -27 -6 -40q-7 -17 -39 -17q-15 0 -27 10zM497 416q0 127 -14 347t-30 388q-8 88 -25 238l-4 22q-4 15 -4 25q-16 -46 -29.5 -113t-34.5 -201q-47 -301 -84 -458q-4 -23 -18 -70
q-15 -52 -22.5 -88.5t-7.5 -67.5v-12q87 -29 207 -29h12q6 -1 14 -1q40 0 40 20zM387.5 1640.5q-30.5 18.5 -46.5 51.5q-31 63 -31 139l22 18q14 -2 20 -32q8 -47 19 -81.5t33 -50.5l22 -16h51q17 0 33.5 17.5t26.5 42t10 44.5q0 8 -1 15q-1 6 -1 14q0 39 37 39
q12 0 21.5 -8.5t9.5 -20.5q0 -4 -5 -17l-6 -15l5 -15l-6 -12t-10 -23q-9 -21 -15.5 -34t-17.5 -29q-11 -17 -22.5 -24t-32.5 -14q-18 -7 -44 -7q-41 0 -71.5 18.5zM259 1923.5q-13 11.5 -13 23.5q0 64 34.5 103t84.5 39q51 0 87 -42q15 -30 51 -54.5t66 -24.5q53 0 53 73
q0 6 -5 21q-5 10 -7 18q6 12 21 12q23 0 35 -20.5t12 -49.5q0 -28 -15.5 -53t-40.5 -40t-53 -15q-34 0 -71 20t-59 43q-19 19 -52 58l-14 6q-30 0 -53 -16t-23 -39q0 -10 10 -43l-22 -31q-13 0 -26 11.5z" />
    <glyph glyph-name="uni01CD" unicode="&#x1cd;" horiz-adv-x="723" 
d="M511 10q-12 10 -12 25v268q0 16 -51.5 31.5t-119 25t-105.5 9.5q-6 0 -26 -77q-17 -67 -37 -154t-26 -118q-4 -15 -22 -15q-16 0 -29 10t-13 24q0 2 1 3v3l24 102l42 189l30 135q31 133 78 406q51 293 74 397q17 76 37 145q13 47 30 83q16 34 29 34q32 0 47 -20
q11 -18 32.5 -205t37.5 -371l28 -340q0 -88 12 -267q11 -187 11 -267v-9q0 -27 -6 -40q-7 -17 -39 -17q-15 0 -27 10zM497 416q0 127 -14 347t-30 388q-8 88 -25 238l-4 22q-4 15 -4 25q-16 -46 -29.5 -113t-34.5 -201q-47 -301 -84 -458q-4 -23 -18 -70
q-15 -52 -22.5 -88.5t-7.5 -67.5v-12q87 -29 207 -29h12q6 -1 14 -1q40 0 40 20zM433.5 1677q-40.5 72 -76 158t-36.5 116l37 27l35 -47q2 -21 18 -70q14 -44 36.5 -108t31.5 -88q48 178 59 307l27 16q37 -6 37 -24q0 -5 -8 -23l2 -10l-15 -31l2 -12q-9 -29 -24 -74
q-19 -52 -28 -90t-9 -76q0 -43 -29 -43q-19 0 -59.5 72z" />
    <glyph glyph-name="Acircumflex" unicode="&#xc2;" horiz-adv-x="723" 
d="M511 10q-12 10 -12 25v268q0 16 -51.5 31.5t-119 25t-105.5 9.5q-6 0 -26 -77q-17 -67 -37 -154t-26 -118q-4 -15 -22 -15q-16 0 -29 10t-13 24q0 2 1 3v3l24 102l42 189l30 135q31 133 78 406q51 293 74 397q17 76 37 145q13 47 30 83q16 34 29 34q32 0 47 -20
q11 -18 32.5 -205t37.5 -371l28 -340q0 -88 12 -267q11 -187 11 -267v-9q0 -27 -6 -40q-7 -17 -39 -17q-15 0 -27 10zM497 416q0 127 -14 347t-30 388q-8 88 -25 238l-4 22q-4 15 -4 25q-16 -46 -29.5 -113t-34.5 -201q-47 -301 -84 -458q-4 -23 -18 -70
q-15 -52 -22.5 -88.5t-7.5 -67.5v-12q87 -29 207 -29h12q6 -1 14 -1q40 0 40 20zM528 1598q-11 129 -59 307q-9 -24 -31.5 -88t-36.5 -108q-16 -49 -18 -70l-35 -47l-37 26q1 30 36.5 116t76 158t59.5 72q29 0 29 -43q0 -38 9 -76t28 -89q15 -45 24 -74l-2 -13l15 -30
l-2 -11q8 -18 8 -22q0 -19 -37 -25z" />
    <glyph glyph-name="uni1EA4" unicode="&#x1ea4;" horiz-adv-x="723" 
d="M511 10q-12 10 -12 25v268q0 16 -51.5 31.5t-119 25t-105.5 9.5q-6 0 -26 -77q-17 -67 -37 -154t-26 -118q-4 -15 -22 -15q-16 0 -29 10t-13 24q0 2 1 3v3l24 102l42 189l30 135q31 133 78 406q51 293 74 397q17 76 37 145q13 47 30 83q16 34 29 34q32 0 47 -20
q11 -18 32.5 -205t37.5 -371l28 -340q0 -88 12 -267q11 -187 11 -267v-9q0 -27 -6 -40q-7 -17 -39 -17q-15 0 -27 10zM497 416q0 127 -14 347t-30 388q-8 88 -25 238l-4 22q-4 15 -4 25q-16 -46 -29.5 -113t-34.5 -201q-47 -301 -84 -458q-4 -23 -18 -70
q-15 -52 -22.5 -88.5t-7.5 -67.5v-12q87 -29 207 -29h12q6 -1 14 -1q40 0 40 20zM538 1587q-11 129 -59 307q-9 -24 -31.5 -88t-36.5 -108q-16 -49 -18 -70l-35 -47l-37 26q1 30 36.5 116t76 158t59.5 72q29 0 29 -43q0 -38 9 -76t28 -89q15 -45 24 -74l-2 -13l15 -30
l-2 -11q8 -18 8 -22q0 -19 -37 -25zM578.5 1804q-10.5 8 -10.5 22q0 8 56 53q45 37 122 96q69 53 76 60q45 0 45 -32l-6 -31q-105 -47 -256 -176q-16 0 -26.5 8z" />
    <glyph glyph-name="uni1EAC" unicode="&#x1eac;" horiz-adv-x="723" 
d="M511 10q-12 10 -12 25v268q0 16 -51.5 31.5t-119 25t-105.5 9.5q-6 0 -26 -77q-17 -67 -37 -154t-26 -118q-4 -15 -22 -15q-16 0 -29 10t-13 24q0 2 1 3v3l24 102l42 189l30 135q31 133 78 406q51 293 74 397q17 76 37 145q13 47 30 83q16 34 29 34q32 0 47 -20
q11 -18 32.5 -205t37.5 -371l28 -340q0 -88 12 -267q11 -187 11 -267v-9q0 -27 -6 -40q-7 -17 -39 -17q-15 0 -27 10zM497 416q0 127 -14 347t-30 388q-8 88 -25 238l-4 22q-4 15 -4 25q-16 -46 -29.5 -113t-34.5 -201q-47 -301 -84 -458q-4 -23 -18 -70
q-15 -52 -22.5 -88.5t-7.5 -67.5v-12q87 -29 207 -29h12q6 -1 14 -1q40 0 40 20zM324.5 -224.5q-13.5 15.5 -13.5 33.5q0 20 16.5 37.5t36.5 17.5q18 0 33.5 -17.5t15.5 -35.5q0 -51 -57 -51q-18 0 -31.5 15.5zM528 1598q-11 129 -59 307q-9 -24 -31.5 -88t-36.5 -108
q-16 -49 -18 -70l-35 -47l-37 26q1 30 36.5 116t76 158t59.5 72q29 0 29 -43q0 -38 9 -76t28 -89q15 -45 24 -74l-2 -13l15 -30l-2 -11q8 -18 8 -22q0 -19 -37 -25z" />
    <glyph glyph-name="uni1EA6" unicode="&#x1ea6;" horiz-adv-x="723" 
d="M236 1895q-57 67 -62 75q-13 4 -31 13q-45 27 -45 53q0 8 5 18q18 31 34 32l11 -6q52 -31 57 -60l18 -19q16 -19 55 -67q36 -45 53 -76q16 -25 16 -43q0 -7 -2 -10q-3 -6 -14 -6q-9 0 -15 3q-23 26 -80 93zM526 1590q-11 129 -59 307q-9 -24 -31.5 -88t-36.5 -108
q-16 -49 -18 -70l-35 -47l-37 26q1 30 36.5 116t76 158t59.5 72q29 0 29 -43q0 -38 9 -76t28 -89q15 -45 24 -74l-2 -13l15 -30l-2 -11q8 -18 8 -22q0 -19 -37 -25zM511 10q-12 10 -12 25v268q0 16 -51.5 31.5t-119 25t-105.5 9.5q-6 0 -26 -77q-17 -67 -37 -154t-26 -118
q-4 -15 -22 -15q-16 0 -29 10t-13 24q0 2 1 3v3l24 102l42 189l30 135q31 133 78 406q51 293 74 397q17 76 37 145q13 47 30 83q16 34 29 34q32 0 47 -20q11 -18 32.5 -205t37.5 -371l28 -340q0 -88 12 -267q11 -187 11 -267v-9q0 -27 -6 -40q-7 -17 -39 -17q-15 0 -27 10z
M497 416q0 127 -14 347t-30 388q-8 88 -25 238l-4 22q-4 15 -4 25q-16 -46 -29.5 -113t-34.5 -201q-47 -301 -84 -458q-4 -23 -18 -70q-15 -52 -22.5 -88.5t-7.5 -67.5v-12q87 -29 207 -29h12q6 -1 14 -1q40 0 40 20z" />
    <glyph glyph-name="uni1EA8" unicode="&#x1ea8;" horiz-adv-x="723" 
d="M511 10q-12 10 -12 25v268q0 16 -51.5 31.5t-119 25t-105.5 9.5q-6 0 -26 -77q-17 -67 -37 -154t-26 -118q-4 -15 -22 -15q-16 0 -29 10t-13 24q0 2 1 3v3l24 102l42 189l30 135q31 133 78 406q51 293 74 397q17 76 37 145q13 47 30 83q16 34 29 34q32 0 47 -20
q11 -18 32.5 -205t37.5 -371l28 -340q0 -88 12 -267q11 -187 11 -267v-9q0 -27 -6 -40q-7 -17 -39 -17q-15 0 -27 10zM497 416q0 127 -14 347t-30 388q-8 88 -25 238l-4 22q-4 15 -4 25q-16 -46 -29.5 -113t-34.5 -201q-47 -301 -84 -458q-4 -23 -18 -70
q-15 -52 -22.5 -88.5t-7.5 -67.5v-12q87 -29 207 -29h12q6 -1 14 -1q40 0 40 20zM542 1594q-11 129 -59 307q-9 -24 -31.5 -88t-36.5 -108q-16 -49 -18 -70l-35 -47l-37 26q1 30 36.5 116t76 158t59.5 72q29 0 29 -43q0 -38 9 -76t28 -89q15 -45 24 -74l-2 -13l15 -30
l-2 -11q8 -18 8 -22q0 -19 -37 -25zM683 1811v11q0 15 11.5 26t35.5 28q21 13 32 24t11 23q0 39 -66 39q-38 0 -56.5 -10t-18.5 -33q0 -13 3 -27q-13 -5 -20 -5q-29 0 -29 36q0 33 29 55.5t92 22.5q64 0 90 -20t26 -58q0 -19 -13.5 -33t-40.5 -33q-21 -15 -30.5 -24
t-9.5 -20v-13q-8 -13 -23 -13q-20 0 -23 24z" />
    <glyph glyph-name="uni1EAA" unicode="&#x1eaa;" horiz-adv-x="723" 
d="M511 10q-12 10 -12 25v268q0 16 -51.5 31.5t-119 25t-105.5 9.5q-6 0 -26 -77q-17 -67 -37 -154t-26 -118q-4 -15 -22 -15q-16 0 -29 10t-13 24q0 2 1 3v3l24 102l42 189l30 135q31 133 78 406q51 293 74 397q17 76 37 145q13 47 30 83q16 34 29 34q32 0 47 -20
q11 -18 32.5 -205t37.5 -371l28 -340q0 -88 12 -267q11 -187 11 -267v-9q0 -27 -6 -40q-7 -17 -39 -17q-15 0 -27 10zM497 416q0 127 -14 347t-30 388q-8 88 -25 238l-4 22q-4 15 -4 25q-16 -46 -29.5 -113t-34.5 -201q-47 -301 -84 -458q-4 -23 -18 -70
q-15 -52 -22.5 -88.5t-7.5 -67.5v-12q87 -29 207 -29h12q6 -1 14 -1q40 0 40 20zM528 1598q-11 129 -59 307q-9 -24 -31.5 -88t-36.5 -108q-16 -49 -18 -70l-35 -47l-37 26q1 30 36.5 116t76 158t59.5 72q29 0 29 -43q0 -38 9 -76t28 -89q15 -45 24 -74l-2 -13l15 -30
l-2 -11q8 -18 8 -22q0 -19 -37 -25zM249 2038.5q-13 11.5 -13 23.5q0 64 34.5 103t84.5 39q51 0 87 -42q15 -30 51 -54.5t66 -24.5q53 0 53 73q0 6 -5 21q-5 10 -7 18q6 12 21 12q23 0 35 -20.5t12 -49.5q0 -28 -15.5 -53t-40.5 -40t-53 -15q-34 0 -71 20t-59 43
q-19 19 -52 58l-14 6q-30 0 -53 -16t-23 -39q0 -10 10 -43l-22 -31q-13 0 -26 11.5z" />
    <glyph glyph-name="uni0200" unicode="&#x200;" horiz-adv-x="723" 
d="M511 10q-12 10 -12 25v268q0 16 -51.5 31.5t-119 25t-105.5 9.5q-6 0 -26 -77q-17 -67 -37 -154t-26 -118q-4 -15 -22 -15q-16 0 -29 10t-13 24q0 2 1 3v3l24 102l42 189l30 135q31 133 78 406q51 293 74 397q17 76 37 145q13 47 30 83q16 34 29 34q32 0 47 -20
q11 -18 32.5 -205t37.5 -371l28 -340q0 -88 12 -267q11 -187 11 -267v-9q0 -27 -6 -40q-7 -17 -39 -17q-15 0 -27 10zM497 416q0 127 -14 347t-30 388q-8 88 -25 238l-4 22q-4 15 -4 25q-16 -46 -29.5 -113t-34.5 -201q-47 -301 -84 -458q-4 -23 -18 -70
q-15 -52 -22.5 -88.5t-7.5 -67.5v-12q87 -29 207 -29h12q6 -1 14 -1q40 0 40 20zM548 1656q-48 36 -71 46q-39 27 -186 145q-13 7 -13 20q0 9 9 20t13 11q11 0 95.5 -63.5t164 -131.5t82.5 -81l-9 -11q-34 7 -85 45zM332 1639q-39 24 -74 48l-23 15q-24 15 -27 16
q-77 41 -110 55l-107 60q3 16 17 33t25 17q10 0 115 -60q34 -21 140 -101q97 -75 97 -90t-11 -15q-8 0 -42 22z" />
    <glyph glyph-name="Adieresis" unicode="&#xc4;" horiz-adv-x="723" 
d="M511 10q-12 10 -12 25v268q0 16 -51.5 31.5t-119 25t-105.5 9.5q-6 0 -26 -77q-17 -67 -37 -154t-26 -118q-4 -15 -22 -15q-16 0 -29 10t-13 24q0 2 1 3v3l24 102l42 189l30 135q31 133 78 406q51 293 74 397q17 76 37 145q13 47 30 83q16 34 29 34q32 0 47 -20
q11 -18 32.5 -205t37.5 -371l28 -340q0 -88 12 -267q11 -187 11 -267v-9q0 -27 -6 -40q-7 -17 -39 -17q-15 0 -27 10zM497 416q0 127 -14 347t-30 388q-8 88 -25 238l-4 22q-4 15 -4 25q-16 -46 -29.5 -113t-34.5 -201q-47 -301 -84 -458q-4 -23 -18 -70
q-15 -52 -22.5 -88.5t-7.5 -67.5v-12q87 -29 207 -29h12q6 -1 14 -1q40 0 40 20zM567 1671.5q-13 14.5 -13 30.5q0 19 15.5 35t34.5 16q17 0 31 -16.5t14 -32.5q0 -47 -54 -47q-15 0 -28 14.5zM295.5 1665q-11.5 16 -11.5 35q0 18 15.5 34.5t33.5 16.5q20 0 30.5 -19.5
t10.5 -47.5q0 -16 -15.5 -25.5t-35.5 -9.5q-16 0 -27.5 16z" />
    <glyph glyph-name="uni0226" unicode="&#x226;" horiz-adv-x="723" 
d="M511 10q-12 10 -12 25v268q0 16 -51.5 31.5t-119 25t-105.5 9.5q-6 0 -26 -77q-17 -67 -37 -154t-26 -118q-4 -15 -22 -15q-16 0 -29 10t-13 24q0 2 1 3v3l24 102l42 189l30 135q31 133 78 406q51 293 74 397q17 76 37 145q13 47 30 83q16 34 29 34q32 0 47 -20
q11 -18 32.5 -205t37.5 -371l28 -340q0 -88 12 -267q11 -187 11 -267v-9q0 -27 -6 -40q-7 -17 -39 -17q-15 0 -27 10zM497 416q0 127 -14 347t-30 388q-8 88 -25 238l-4 22q-4 15 -4 25q-16 -46 -29.5 -113t-34.5 -201q-47 -301 -84 -458q-4 -23 -18 -70
q-15 -52 -22.5 -88.5t-7.5 -67.5v-12q87 -29 207 -29h12q6 -1 14 -1q40 0 40 20zM424.5 1661.5q-13.5 15.5 -13.5 33.5q0 20 16.5 37.5t36.5 17.5q18 0 33.5 -17.5t15.5 -35.5q0 -51 -57 -51q-18 0 -31.5 15.5z" />
    <glyph glyph-name="uni1EA0" unicode="&#x1ea0;" horiz-adv-x="723" 
d="M511 10q-12 10 -12 25v268q0 16 -51.5 31.5t-119 25t-105.5 9.5q-6 0 -26 -77q-17 -67 -37 -154t-26 -118q-4 -15 -22 -15q-16 0 -29 10t-13 24q0 2 1 3v3l24 102l42 189l30 135q31 133 78 406q51 293 74 397q17 76 37 145q13 47 30 83q16 34 29 34q32 0 47 -20
q11 -18 32.5 -205t37.5 -371l28 -340q0 -88 12 -267q11 -187 11 -267v-9q0 -27 -6 -40q-7 -17 -39 -17q-15 0 -27 10zM497 416q0 127 -14 347t-30 388q-8 88 -25 238l-4 22q-4 15 -4 25q-16 -46 -29.5 -113t-34.5 -201q-47 -301 -84 -458q-4 -23 -18 -70
q-15 -52 -22.5 -88.5t-7.5 -67.5v-12q87 -29 207 -29h12q6 -1 14 -1q40 0 40 20zM324.5 -224.5q-13.5 15.5 -13.5 33.5q0 20 16.5 37.5t36.5 17.5q18 0 33.5 -17.5t15.5 -35.5q0 -51 -57 -51q-18 0 -31.5 15.5z" />
    <glyph glyph-name="Agrave" unicode="&#xc0;" horiz-adv-x="723" 
d="M511 10q-12 10 -12 25v268q0 16 -51.5 31.5t-119 25t-105.5 9.5q-6 0 -26 -77q-17 -67 -37 -154t-26 -118q-4 -15 -22 -15q-16 0 -29 10t-13 24q0 2 1 3v3l24 102l42 189l30 135q31 133 78 406q51 293 74 397q17 76 37 145q13 47 30 83q16 34 29 34q32 0 47 -20
q11 -18 32.5 -205t37.5 -371l28 -340q0 -88 12 -267q11 -187 11 -267v-9q0 -27 -6 -40q-7 -17 -39 -17q-15 0 -27 10zM497 416q0 127 -14 347t-30 388q-8 88 -25 238l-4 22q-4 15 -4 25q-16 -46 -29.5 -113t-34.5 -201q-47 -301 -84 -458q-4 -23 -18 -70
q-15 -52 -22.5 -88.5t-7.5 -67.5v-12q87 -29 207 -29h12q6 -1 14 -1q40 0 40 20zM442 1636q-90 51 -97 57h-11q-10 0 -22 2q-70 12 -62 52q6 36 20 42l13 -2q60 -10 74 -36l23 -12q21 -11 75 -44q48 -30 76 -53q34 -28 31 -45q-1 -6 -9.5 -10t-16.5 -3q-4 1 -94 52z" />
    <glyph glyph-name="uni1EA2" unicode="&#x1ea2;" horiz-adv-x="723" 
d="M511 10q-12 10 -12 25v268q0 16 -51.5 31.5t-119 25t-105.5 9.5q-6 0 -26 -77q-17 -67 -37 -154t-26 -118q-4 -15 -22 -15q-16 0 -29 10t-13 24q0 2 1 3v3l24 102l42 189l30 135q31 133 78 406q51 293 74 397q17 76 37 145q13 47 30 83q16 34 29 34q32 0 47 -20
q11 -18 32.5 -205t37.5 -371l28 -340q0 -88 12 -267q11 -187 11 -267v-9q0 -27 -6 -40q-7 -17 -39 -17q-15 0 -27 10zM497 416q0 127 -14 347t-30 388q-8 88 -25 238l-4 22q-4 15 -4 25q-16 -46 -29.5 -113t-34.5 -201q-47 -301 -84 -458q-4 -23 -18 -70
q-15 -52 -22.5 -88.5t-7.5 -67.5v-12q87 -29 207 -29h12q6 -1 14 -1q40 0 40 20zM450 1597v11q0 15 11.5 26t35.5 28q21 13 32 24t11 23q0 39 -66 39q-38 0 -56.5 -10t-18.5 -33q0 -13 3 -27q-13 -5 -20 -5q-29 0 -29 36q0 33 29 55.5t92 22.5q64 0 90 -20t26 -58
q0 -19 -13.5 -33t-40.5 -33q-21 -15 -30.5 -24t-9.5 -20v-13q-8 -13 -23 -13q-20 0 -23 24z" />
    <glyph glyph-name="uni0202" unicode="&#x202;" horiz-adv-x="723" 
d="M511 10q-12 10 -12 25v268q0 16 -51.5 31.5t-119 25t-105.5 9.5q-6 0 -26 -77q-17 -67 -37 -154t-26 -118q-4 -15 -22 -15q-16 0 -29 10t-13 24q0 2 1 3v3l24 102l42 189l30 135q31 133 78 406q51 293 74 397q17 76 37 145q13 47 30 83q16 34 29 34q32 0 47 -20
q11 -18 32.5 -205t37.5 -371l28 -340q0 -88 12 -267q11 -187 11 -267v-9q0 -27 -6 -40q-7 -17 -39 -17q-15 0 -27 10zM497 416q0 127 -14 347t-30 388q-8 88 -25 238l-4 22q-4 15 -4 25q-16 -46 -29.5 -113t-34.5 -201q-47 -301 -84 -458q-4 -23 -18 -70
q-15 -52 -22.5 -88.5t-7.5 -67.5v-12q87 -29 207 -29h12q6 -1 14 -1q40 0 40 20zM296 1600q0 76 31 139q16 33 46.5 51.5t71.5 18.5q39 0 75 -20q19 -10 41 -52l6 -12t10 -23t10 -23.5t6 -12.5l-5 -15l6 -15q5 -13 5 -17q0 -12 -9.5 -20.5t-21.5 -8.5q-37 0 -37 39q0 8 1 15
q1 6 1 14q0 20 -10 44.5t-26.5 42t-33.5 17.5h-51l-22 -16q-22 -16 -33 -50.5t-19 -81.5q-6 -30 -20 -32z" />
    <glyph glyph-name="Amacron" unicode="&#x100;" horiz-adv-x="723" 
d="M511 10q-12 10 -12 25v268q0 16 -51.5 31.5t-119 25t-105.5 9.5q-6 0 -26 -77q-17 -67 -37 -154t-26 -118q-4 -15 -22 -15q-16 0 -29 10t-13 24q0 2 1 3v3l24 102l42 189l30 135q31 133 78 406q51 293 74 397q17 76 37 145q13 47 30 83q16 34 29 34q32 0 47 -20
q11 -18 32.5 -205t37.5 -371l28 -340q0 -88 12 -267q11 -187 11 -267v-9q0 -27 -6 -40q-7 -17 -39 -17q-15 0 -27 10zM497 416q0 127 -14 347t-30 388q-8 88 -25 238l-4 22q-4 15 -4 25q-16 -46 -29.5 -113t-34.5 -201q-47 -301 -84 -458q-4 -23 -18 -70
q-15 -52 -22.5 -88.5t-7.5 -67.5v-12q87 -29 207 -29h12q6 -1 14 -1q40 0 40 20zM308 1678q-33 7 -39 15q-5 7 -5 14q2 17 131 17h116q35 0 58 -0.5t46 -3.5q24 -3 34 -10t10 -19q-2 -17 -131 -17h-115h-40q-46 0 -65 4z" />
    <glyph glyph-name="Aogonek" unicode="&#x104;" horiz-adv-x="723" 
d="M614 -398q0 -25 -28 -40t-60 -15q-39 0 -75 26.5t-58 65t-22 70.5q0 47 14 96.5t36 88.5q45 77 77 109l10 10q-9 9 -9 22v268q0 16 -51.5 31.5t-119 25t-105.5 9.5q-6 0 -26 -77q-17 -67 -37 -154t-26 -118q-4 -15 -22 -15q-16 0 -29 10t-13 24q0 2 1 3v3l24 102l42 189
l30 135q31 133 78 406q51 293 74 397q17 76 37 145q13 47 30 83q16 34 29 34q32 0 47 -20q11 -18 32.5 -205t37.5 -371l28 -340q0 -88 12 -267q11 -187 11 -267v-9q0 -27 -6 -40q-2 -4 -4 -6l1 -1q0 -1 -17 -26q-24 -32 -42.5 -61.5t-33.5 -67.5q-18 -44 -18 -79
q0 -22 -4 -47l-1 -20q-1 -10 -1 -23q0 -27 22.5 -55.5t46.5 -28.5q11 0 33 11q20 10 33 10q22 0 22 -21zM497 416q0 127 -14 347t-30 388q-8 88 -25 238l-4 22q-4 15 -4 25q-16 -46 -29.5 -113t-34.5 -201q-47 -301 -84 -458q-4 -23 -18 -70q-15 -52 -22.5 -88.5t-7.5 -67.5
v-12q87 -29 207 -29h12q6 -1 14 -1q40 0 40 20z" />
    <glyph glyph-name="Aring" unicode="&#xc5;" horiz-adv-x="723" 
d="M511 10q-12 10 -12 25v268q0 16 -51.5 31.5t-119 25t-105.5 9.5q-6 0 -26 -77q-17 -67 -37 -154t-26 -118q-4 -15 -22 -15q-16 0 -29 10t-13 24q0 2 1 3v3l24 102l42 189l30 135q31 133 78 406q51 293 74 397q17 76 37 145q13 47 30 83q16 34 29 34q32 0 47 -20
q11 -18 32.5 -205t37.5 -371l28 -340q0 -88 12 -267q11 -187 11 -267v-9q0 -27 -6 -40q-7 -17 -39 -17q-15 0 -27 10zM497 416q0 127 -14 347t-30 388q-8 88 -25 238l-4 22q-4 15 -4 25q-16 -46 -29.5 -113t-34.5 -201q-47 -301 -84 -458q-4 -23 -18 -70
q-15 -52 -22.5 -88.5t-7.5 -67.5v-12q87 -29 207 -29h12q6 -1 14 -1q40 0 40 20zM397 1621.5q-23 15.5 -37 40.5t-14 52q0 30 17.5 59.5t45 48.5t56.5 19q25 0 51.5 -18.5t43.5 -46.5t17 -53q0 -56 -36 -86.5t-95 -30.5q-26 0 -49 15.5zM494.5 1662.5q29.5 17.5 29.5 39.5
q0 40 -15.5 70t-43.5 30q-25 0 -48.5 -25t-23.5 -52q0 -21 3 -35.5t13 -28.5q10 -16 29 -16q27 0 56.5 17.5z" />
    <glyph glyph-name="Aringacute" unicode="&#x1fa;" horiz-adv-x="723" 
d="M511 10q-12 10 -12 25v268q0 16 -51.5 31.5t-119 25t-105.5 9.5q-6 0 -26 -77q-17 -67 -37 -154t-26 -118q-4 -15 -22 -15q-16 0 -29 10t-13 24q0 2 1 3v3l24 102l42 189l30 135q31 133 78 406q51 293 74 397q17 76 37 145q13 47 30 83q16 34 29 34q32 0 47 -20
q11 -18 32.5 -205t37.5 -371l28 -340q0 -88 12 -267q11 -187 11 -267v-9q0 -27 -6 -40q-7 -17 -39 -17q-15 0 -27 10zM497 416q0 127 -14 347t-30 388q-8 88 -25 238l-4 22q-4 15 -4 25q-16 -46 -29.5 -113t-34.5 -201q-47 -301 -84 -458q-4 -23 -18 -70
q-15 -52 -22.5 -88.5t-7.5 -67.5v-12q87 -29 207 -29h12q6 -1 14 -1q40 0 40 20zM397 1621.5q-23 15.5 -37 40.5t-14 52q0 30 17.5 59.5t45 48.5t56.5 19q25 0 51.5 -18.5t43.5 -46.5t17 -53q0 -56 -36 -86.5t-95 -30.5q-26 0 -49 15.5zM494.5 1662.5q29.5 17.5 29.5 39.5
q0 40 -15.5 70t-43.5 30q-25 0 -48.5 -25t-23.5 -52q0 -21 3 -35.5t13 -28.5q10 -16 29 -16q27 0 56.5 17.5zM432.5 1944q-10.5 8 -10.5 22q0 8 56 53q45 37 122 96q69 53 76 60q45 0 45 -32l-6 -31q-105 -47 -256 -176q-16 0 -26.5 8z" />
    <glyph glyph-name="Atilde" unicode="&#xc3;" horiz-adv-x="723" 
d="M511 10q-12 10 -12 25v268q0 16 -51.5 31.5t-119 25t-105.5 9.5q-6 0 -26 -77q-17 -67 -37 -154t-26 -118q-4 -15 -22 -15q-16 0 -29 10t-13 24q0 2 1 3v3l24 102l42 189l30 135q31 133 78 406q51 293 74 397q17 76 37 145q13 47 30 83q16 34 29 34q32 0 47 -20
q11 -18 32.5 -205t37.5 -371l28 -340q0 -88 12 -267q11 -187 11 -267v-9q0 -27 -6 -40q-7 -17 -39 -17q-15 0 -27 10zM497 416q0 127 -14 347t-30 388q-8 88 -25 238l-4 22q-4 15 -4 25q-16 -46 -29.5 -113t-34.5 -201q-47 -301 -84 -458q-4 -23 -18 -70
q-15 -52 -22.5 -88.5t-7.5 -67.5v-12q87 -29 207 -29h12q6 -1 14 -1q40 0 40 20zM259 1618.5q-13 11.5 -13 23.5q0 64 34.5 103t84.5 39q51 0 87 -42q15 -30 51 -54.5t66 -24.5q53 0 53 73q0 6 -5 21q-5 10 -7 18q6 12 21 12q23 0 35 -20.5t12 -49.5q0 -28 -15.5 -53
t-40.5 -40t-53 -15q-34 0 -71 20t-59 43q-19 19 -52 58l-14 6q-30 0 -53 -16t-23 -39q0 -10 10 -43l-22 -31q-13 0 -26 11.5z" />
    <glyph glyph-name="AE" unicode="&#xc6;" horiz-adv-x="835" 
d="M455 -12q17 116 17 241q0 52 -5 197t-5 195l-11 14q-7 -1 -64 -6q-68 -6 -100 -11q-44 -8 -47 -18l-102 -391q-3 -19 -15.5 -75.5t-24.5 -90.5q-15 -41 -32 -41q-6 0 -11 8.5t-5 16.5q1 93 82 405q125 499 268 961q28 93 49 122t45 29q20 0 78 5t80 5q64 0 64 -32
l-13 -25q-100 0 -202 -12q0 -57 7 -152t7 -153q0 -80 -3 -239t-3 -239l10 -12q26 0 81 11q50 10 81 10l28 -35q0 -35 -146 -35h-54q0 -99 4 -243t4 -244q0 -23 -1 -42t-1 -42q0 -35 18 -35q36 0 116 11t116 11q17 0 31 -7t14 -19q0 -22 -61 -29q-62 -8 -133 -9
q-74 -2 -85 -7l-19 -14q-16 -11 -28 -13zM460 688l5 215q3 161 3 250q0 143 -13 240q-11 -14 -58 -178t-93 -341t-49 -210q129 5 205 24z" />
    <glyph glyph-name="AEacute" unicode="&#x1fc;" horiz-adv-x="835" 
d="M455 -12q17 116 17 241q0 52 -5 197t-5 195l-11 14q-7 -1 -64 -6q-68 -6 -100 -11q-44 -8 -47 -18l-102 -391q-3 -19 -15.5 -75.5t-24.5 -90.5q-15 -41 -32 -41q-6 0 -11 8.5t-5 16.5q1 93 82 405q125 499 268 961q28 93 49 122t45 29q20 0 78 5t80 5q64 0 64 -32
l-13 -25q-100 0 -202 -12q0 -57 7 -152t7 -153q0 -80 -3 -239t-3 -239l10 -12q26 0 81 11q50 10 81 10l28 -35q0 -35 -146 -35h-54q0 -99 4 -243t4 -244q0 -23 -1 -42t-1 -42q0 -35 18 -35q36 0 116 11t116 11q17 0 31 -7t14 -19q0 -22 -61 -29q-62 -8 -133 -9
q-74 -2 -85 -7l-19 -14q-16 -11 -28 -13zM460 688l5 215q3 161 3 250q0 143 -13 240q-11 -14 -58 -178t-93 -341t-49 -210q129 5 205 24zM542.5 1652q-10.5 8 -10.5 22q0 8 56 53q45 37 122 96q69 53 76 60q45 0 45 -32l-6 -31q-105 -47 -256 -176q-16 0 -26.5 8z" />
    <glyph glyph-name="uni01E2" unicode="&#x1e2;" horiz-adv-x="835" 
d="M455 -12q17 116 17 241q0 52 -5 197t-5 195l-11 14q-7 -1 -64 -6q-68 -6 -100 -11q-44 -8 -47 -18l-102 -391q-3 -19 -15.5 -75.5t-24.5 -90.5q-15 -41 -32 -41q-6 0 -11 8.5t-5 16.5q1 93 82 405q125 499 268 961q28 93 49 122t45 29q20 0 78 5t80 5q64 0 64 -32
l-13 -25q-100 0 -202 -12q0 -57 7 -152t7 -153q0 -80 -3 -239t-3 -239l10 -12q26 0 81 11q50 10 81 10l28 -35q0 -35 -146 -35h-54q0 -99 4 -243t4 -244q0 -23 -1 -42t-1 -42q0 -35 18 -35q36 0 116 11t116 11q17 0 31 -7t14 -19q0 -22 -61 -29q-62 -8 -133 -9
q-74 -2 -85 -7l-19 -14q-16 -11 -28 -13zM460 688l5 215q3 161 3 250q0 143 -13 240q-11 -14 -58 -178t-93 -341t-49 -210q129 5 205 24zM418 1683q-33 7 -39 15q-5 7 -5 14q2 17 131 17h116q35 0 58 -0.5t46 -3.5q24 -3 34 -10t10 -19q-2 -17 -131 -17h-115h-40
q-46 0 -65 4z" />
    <glyph glyph-name="B" unicode="B" horiz-adv-x="660" 
d="M154 16q0 67 5 260q5 192 5 259q0 162 -7 427t-7 427q0 147 53 147q91 0 156 -40.5t98 -113.5t33 -168q0 -161 -132 -340q74 -73 116.5 -138.5t61.5 -137.5t19 -165q0 -82 -5 -132.5t-19 -95.5t-40 -77.5t-70 -62.5q-43 -29 -106 -57q-17 -2 -40 -10q-24 -10 -41 -10h-4
q-76 0 -76 28zM312.5 924.5q41.5 39.5 68.5 101.5q26 59 40.5 123.5t14.5 118.5q0 46 -23.5 92.5t-63 76t-83.5 29.5q-53 0 -53 -88q0 -100 4 -245t4 -246l6 -2q44 0 85.5 39.5zM370.5 110q58.5 42 93 112t34.5 149q0 366 -176 440q-24 -2 -54 -11q-35 -11 -47 -12
q10 -286 10 -718q4 0 7 -1l6 -1q68 0 126.5 42z" />
    <glyph glyph-name="uni1E02" unicode="&#x1e02;" horiz-adv-x="660" 
d="M154 16q0 67 5 260q5 192 5 259q0 162 -7 427t-7 427q0 147 53 147q91 0 156 -40.5t98 -113.5t33 -168q0 -161 -132 -340q74 -73 116.5 -138.5t61.5 -137.5t19 -165q0 -82 -5 -132.5t-19 -95.5t-40 -77.5t-70 -62.5q-43 -29 -106 -57q-17 -2 -40 -10q-24 -10 -41 -10h-4
q-76 0 -76 28zM312.5 924.5q41.5 39.5 68.5 101.5q26 59 40.5 123.5t14.5 118.5q0 46 -23.5 92.5t-63 76t-83.5 29.5q-53 0 -53 -88q0 -100 4 -245t4 -246l6 -2q44 0 85.5 39.5zM370.5 110q58.5 42 93 112t34.5 149q0 366 -176 440q-24 -2 -54 -11q-35 -11 -47 -12
q10 -286 10 -718q4 0 7 -1l6 -1q68 0 126.5 42zM222.5 1661.5q-13.5 15.5 -13.5 33.5q0 20 16.5 37.5t36.5 17.5q18 0 33.5 -17.5t15.5 -35.5q0 -51 -57 -51q-18 0 -31.5 15.5z" />
    <glyph glyph-name="C" unicode="C" horiz-adv-x="676" 
d="M333.5 -12q-42.5 21 -78 55.5t-52.5 71.5q-16 35 -34 184t-30 321.5t-12 256.5q0 61 -1 109q-1 47 -1 104q0 65 3 112t10 98q7 52 20.5 89t37.5 72q23 35 55 56.5t80 34.5q45 13 106 13q24 0 52 -10.5t47 -28t19 -37.5q0 -23 -32 -23q-12 0 -47 15q-37 14 -56 14
q-58 0 -103.5 -23t-72.5 -62q-24 -35 -39.5 -91t-20.5 -114q-5 -60 -5 -124l2 -114l2 -107q0 -84 13 -252t32.5 -310.5t38.5 -170.5q25 -38 72.5 -59t101.5 -21q93 0 143 59q17 26 38 26q19 0 19 -30q0 -36 -23 -63.5t-60 -42.5q-71 -29 -144 -29q-38 0 -80.5 21z" />
    <glyph glyph-name="Cacute" unicode="&#x106;" horiz-adv-x="676" 
d="M333.5 -12q-42.5 21 -78 55.5t-52.5 71.5q-16 35 -34 184t-30 321.5t-12 256.5q0 61 -1 109q-1 47 -1 104q0 65 3 112t10 98q7 52 20.5 89t37.5 72q23 35 55 56.5t80 34.5q45 13 106 13q24 0 52 -10.5t47 -28t19 -37.5q0 -23 -32 -23q-12 0 -47 15q-37 14 -56 14
q-58 0 -103.5 -23t-72.5 -62q-24 -35 -39.5 -91t-20.5 -114q-5 -60 -5 -124l2 -114l2 -107q0 -84 13 -252t32.5 -310.5t38.5 -170.5q25 -38 72.5 -59t101.5 -21q93 0 143 59q17 26 38 26q19 0 19 -30q0 -36 -23 -63.5t-60 -42.5q-71 -29 -144 -29q-38 0 -80.5 21z
M308.5 1647q-10.5 8 -10.5 22q0 8 56 53q45 37 122 96q69 53 76 60q45 0 45 -32l-6 -31q-105 -47 -256 -176q-16 0 -26.5 8z" />
    <glyph glyph-name="Ccaron" unicode="&#x10c;" horiz-adv-x="676" 
d="M333.5 -12q-42.5 21 -78 55.5t-52.5 71.5q-16 35 -34 184t-30 321.5t-12 256.5q0 61 -1 109q-1 47 -1 104q0 65 3 112t10 98q7 52 20.5 89t37.5 72q23 35 55 56.5t80 34.5q45 13 106 13q24 0 52 -10.5t47 -28t19 -37.5q0 -23 -32 -23q-12 0 -47 15q-37 14 -56 14
q-58 0 -103.5 -23t-72.5 -62q-24 -35 -39.5 -91t-20.5 -114q-5 -60 -5 -124l2 -114l2 -107q0 -84 13 -252t32.5 -310.5t38.5 -170.5q25 -38 72.5 -59t101.5 -21q93 0 143 59q17 26 38 26q19 0 19 -30q0 -36 -23 -63.5t-60 -42.5q-71 -29 -144 -29q-38 0 -80.5 21z
M309.5 1677q-40.5 72 -76 158t-36.5 116l37 27l35 -47q2 -21 18 -70q14 -44 36.5 -108t31.5 -88q48 178 59 307l27 16q37 -6 37 -24q0 -5 -8 -23l2 -10l-15 -31l2 -12q-9 -29 -24 -74q-19 -52 -28 -90t-9 -76q0 -43 -29 -43q-19 0 -59.5 72z" />
    <glyph glyph-name="Ccedilla" unicode="&#xc7;" horiz-adv-x="676" 
d="M432 -33q-2 -30 -2 -48q149 -11 149 -206q0 -32 -22 -70.5t-58 -65t-75 -26.5q-32 0 -60 15t-28 40q0 21 22 21q13 0 33 -10q22 -11 33 -11q35 0 57.5 43t22.5 100q0 67 -31 91q-9 0 -27 -3q-17 -4 -28 -4q-30 0 -56 41q14 32 17 97q-53 13 -103 54.5t-73 89.5
q-16 35 -34 184t-30 321.5t-12 256.5q0 61 -1 109q-1 47 -1 104q0 65 3 112t10 98q7 52 20.5 89t37.5 72q23 35 55 56.5t80 34.5q45 13 106 13q24 0 52 -10.5t47 -28t19 -37.5q0 -23 -32 -23q-12 0 -47 15q-37 14 -56 14q-58 0 -103.5 -23t-72.5 -62q-24 -35 -39.5 -91
t-20.5 -114q-5 -60 -5 -124l2 -114l2 -107q0 -84 13 -252t32.5 -310.5t38.5 -170.5q25 -38 72.5 -59t101.5 -21q93 0 143 59q17 26 38 26q19 0 19 -30q0 -36 -23 -63.5t-60 -42.5q-61 -24 -126 -29z" />
    <glyph glyph-name="Ccircumflex" unicode="&#x108;" horiz-adv-x="676" 
d="M333.5 -12q-42.5 21 -78 55.5t-52.5 71.5q-16 35 -34 184t-30 321.5t-12 256.5q0 61 -1 109q-1 47 -1 104q0 65 3 112t10 98q7 52 20.5 89t37.5 72q23 35 55 56.5t80 34.5q45 13 106 13q24 0 52 -10.5t47 -28t19 -37.5q0 -23 -32 -23q-12 0 -47 15q-37 14 -56 14
q-58 0 -103.5 -23t-72.5 -62q-24 -35 -39.5 -91t-20.5 -114q-5 -60 -5 -124l2 -114l2 -107q0 -84 13 -252t32.5 -310.5t38.5 -170.5q25 -38 72.5 -59t101.5 -21q93 0 143 59q17 26 38 26q19 0 19 -30q0 -36 -23 -63.5t-60 -42.5q-71 -29 -144 -29q-38 0 -80.5 21zM404 1598
q-11 129 -59 307q-9 -24 -31.5 -88t-36.5 -108q-16 -49 -18 -70l-35 -47l-37 26q1 30 36.5 116t76 158t59.5 72q29 0 29 -43q0 -38 9 -76t28 -89q15 -45 24 -74l-2 -13l15 -30l-2 -11q8 -18 8 -22q0 -19 -37 -25z" />
    <glyph glyph-name="Cdotaccent" unicode="&#x10a;" horiz-adv-x="676" 
d="M333.5 -12q-42.5 21 -78 55.5t-52.5 71.5q-16 35 -34 184t-30 321.5t-12 256.5q0 61 -1 109q-1 47 -1 104q0 65 3 112t10 98q7 52 20.5 89t37.5 72q23 35 55 56.5t80 34.5q45 13 106 13q24 0 52 -10.5t47 -28t19 -37.5q0 -23 -32 -23q-12 0 -47 15q-37 14 -56 14
q-58 0 -103.5 -23t-72.5 -62q-24 -35 -39.5 -91t-20.5 -114q-5 -60 -5 -124l2 -114l2 -107q0 -84 13 -252t32.5 -310.5t38.5 -170.5q25 -38 72.5 -59t101.5 -21q93 0 143 59q17 26 38 26q19 0 19 -30q0 -36 -23 -63.5t-60 -42.5q-71 -29 -144 -29q-38 0 -80.5 21z
M300.5 1661.5q-13.5 15.5 -13.5 33.5q0 20 16.5 37.5t36.5 17.5q18 0 33.5 -17.5t15.5 -35.5q0 -51 -57 -51q-18 0 -31.5 15.5z" />
    <glyph glyph-name="D" unicode="D" horiz-adv-x="780" 
d="M187.5 7.5q-24.5 11.5 -24.5 29.5q0 13 17 41q17 26 15 41l-6 180l-14 559q-1 7 -4 221v26q-5 237 -12 286q-2 14 -15 50q-14 37 -14 56q0 49 154 49h10q53 0 100 -19t82 -52q32 -30 59.5 -77t45.5 -97q16 -46 29.5 -104t19.5 -108q6 -44 10 -99t5 -88v-65
q0 -127 -33.5 -275t-94.5 -278q-38 -81 -96 -146.5t-111 -103.5t-72 -38q-26 0 -50.5 11.5zM269 100q74 40 133.5 115t94.5 163q30 78 51.5 176t28.5 179q6 74 6 141q0 599 -330 599q-43 0 -43 -23q0 -58 9 -171q9 -112 9 -169q0 -139 16 -391q15 -259 15 -389v-230h10z" />
    <glyph glyph-name="uni01F1" unicode="&#x1f1;" horiz-adv-x="1285" 
d="M187.5 7.5q-24.5 11.5 -24.5 29.5q0 13 17 41q17 26 15 41l-6 180l-14 559q-1 7 -4 221v26q-5 237 -12 286q-2 14 -15 50q-14 37 -14 56q0 49 154 49h10q53 0 100 -19t82 -52q32 -30 59.5 -77t45.5 -97q16 -46 29.5 -104t19.5 -108q6 -44 10 -99t5 -88v-65
q0 -127 -33.5 -275t-94.5 -278q-38 -81 -96 -146.5t-111 -103.5t-72 -38q-26 0 -50.5 11.5zM269 100q74 40 133.5 115t94.5 163q30 78 51.5 176t28.5 179q6 74 6 141q0 599 -330 599q-43 0 -43 -23q0 -58 9 -171q9 -112 9 -169q0 -139 16 -391q15 -259 15 -389v-230h10z
M850 8q41 72 63 167t36 232q15 132 26 181l16 114q59 425 78 566l4 32l6 39q16 101 17 160q-16 0 -68 -5t-70 -5q-92 0 -92 41l15 16q15 -4 49 -4q30 0 96 11q60 10 96 10q33 0 33 -37q-13 -28 -20 -75t-12 -122q-4 -64 -9 -90q1 4 -35 -265l-26 -199q-51 -391 -82 -580
q-3 -23 -25 -74t-22 -82q19 0 67 5t66 5q86 0 86 -41l-19 -18q-50 0 -121 -4q-72 -4 -122 -4q-20 0 -31 26z" />
    <glyph glyph-name="uni01C4" unicode="&#x1c4;" horiz-adv-x="1285" 
d="M187.5 7.5q-24.5 11.5 -24.5 29.5q0 13 17 41q17 26 15 41l-6 180l-14 559q-1 7 -4 221v26q-5 237 -12 286q-2 14 -15 50q-14 37 -14 56q0 49 154 49h10q53 0 100 -19t82 -52q32 -30 59.5 -77t45.5 -97q16 -46 29.5 -104t19.5 -108q6 -44 10 -99t5 -88v-65
q0 -127 -33.5 -275t-94.5 -278q-38 -81 -96 -146.5t-111 -103.5t-72 -38q-26 0 -50.5 11.5zM269 100q74 40 133.5 115t94.5 163q30 78 51.5 176t28.5 179q6 74 6 141q0 599 -330 599q-43 0 -43 -23q0 -58 9 -171q9 -112 9 -169q0 -139 16 -391q15 -259 15 -389v-230h10z
M850 8q41 72 63 167t36 232q15 132 26 181l16 114q59 425 78 566l4 32l6 39q16 101 17 160q-16 0 -68 -5t-70 -5q-92 0 -92 41l15 16q15 -4 49 -4q30 0 96 11q60 10 96 10q33 0 33 -37q-13 -28 -20 -75t-12 -122q-4 -64 -9 -90q1 4 -35 -265l-26 -199q-51 -391 -82 -580
q-3 -23 -25 -74t-22 -82q19 0 67 5t66 5q86 0 86 -41l-19 -18q-50 0 -121 -4q-72 -4 -122 -4q-20 0 -31 26zM974.5 1677q-40.5 72 -76 158t-36.5 116l37 27l35 -47q2 -21 18 -70q14 -44 36.5 -108t31.5 -88q48 178 59 307l27 16q37 -6 37 -24q0 -5 -8 -23l2 -10l-15 -31
l2 -12q-9 -29 -24 -74q-19 -52 -28 -90t-9 -76q0 -43 -29 -43q-19 0 -59.5 72z" />
    <glyph glyph-name="Eth" unicode="&#xd0;" horiz-adv-x="880" 
d="M278 -80q-15 4 -22.5 10t-14.5 21h-2q0 272 -18 651q-11 131 -17 152q-22 0 -63 -6q-39 -7 -62 -7q-17 0 -22.5 8t-5.5 27q0 37 127 37h18l8 4l1 5l1 5q0 56 -14 184t-14 185q0 54 -8 184q-9 122 -9 183q0 9 12.5 26t20.5 17q62 0 128.5 -35t122.5 -95q103 -109 171 -235
v-4q96 -271 96 -588q0 -137 -50.5 -284t-144.5 -272q-99 -129 -216 -181q-2 1 -23 8zM343 21q9 6 26 25l13 13q68 67 127 164.5t94 201.5t35 191q0 120 -2 173.5t-11 135.5q-10 87 -30 162q-34 167 -127 288.5t-233 162.5l-4 -4q0 -93 7 -260t18.5 -301.5t23.5 -151.5
q25 0 71 12q49 11 70 11q16 0 28.5 -15t14.5 -34l-20 -25q-101 0 -168 -14q0 -36 5.5 -165t8.5 -140l-2 -2q0 -65 11 -221q10 -141 10 -222q20 5 34 15z" />
    <glyph glyph-name="Dcaron" unicode="&#x10e;" horiz-adv-x="780" 
d="M187.5 7.5q-24.5 11.5 -24.5 29.5q0 13 17 41q17 26 15 41l-6 180l-14 559q-1 7 -4 221v26q-5 237 -12 286q-2 14 -15 50q-14 37 -14 56q0 49 154 49h10q53 0 100 -19t82 -52q32 -30 59.5 -77t45.5 -97q16 -46 29.5 -104t19.5 -108q6 -44 10 -99t5 -88v-65
q0 -127 -33.5 -275t-94.5 -278q-38 -81 -96 -146.5t-111 -103.5t-72 -38q-26 0 -50.5 11.5zM269 100q74 40 133.5 115t94.5 163q30 78 51.5 176t28.5 179q6 74 6 141q0 599 -330 599q-43 0 -43 -23q0 -58 9 -171q9 -112 9 -169q0 -139 16 -391q15 -259 15 -389v-230h10z
M231.5 1677q-40.5 72 -76 158t-36.5 116l37 27l35 -47q2 -21 18 -70q14 -44 36.5 -108t31.5 -88q48 178 59 307l27 16q37 -6 37 -24q0 -5 -8 -23l2 -10l-15 -31l2 -12q-9 -29 -24 -74q-19 -52 -28 -90t-9 -76q0 -43 -29 -43q-19 0 -59.5 72z" />
    <glyph glyph-name="Dcroat" unicode="&#x110;" horiz-adv-x="880" 
d="M278 -80q-15 4 -22.5 10t-14.5 21h-2q0 272 -18 651q-11 131 -17 152q-22 0 -63 -6q-39 -7 -62 -7q-17 0 -22.5 8t-5.5 27q0 37 127 37h18l8 4l1 5l1 5q0 56 -14 184t-14 185q0 54 -8 184q-9 122 -9 183q0 9 12.5 26t20.5 17q62 0 128.5 -35t122.5 -95q103 -109 171 -235
v-4q96 -271 96 -588q0 -137 -50.5 -284t-144.5 -272q-99 -129 -216 -181q-2 1 -23 8zM343 21q9 6 26 25l13 13q68 67 127 164.5t94 201.5t35 191q0 120 -2 173.5t-11 135.5q-10 87 -30 162q-34 167 -127 288.5t-233 162.5l-4 -4q0 -93 7 -260t18.5 -301.5t23.5 -151.5
q25 0 71 12q49 11 70 11q16 0 28.5 -15t14.5 -34l-20 -25q-101 0 -168 -14q0 -36 5.5 -165t8.5 -140l-2 -2q0 -65 11 -221q10 -141 10 -222q20 5 34 15z" />
    <glyph glyph-name="uni1E0A" unicode="&#x1e0a;" horiz-adv-x="780" 
d="M187.5 7.5q-24.5 11.5 -24.5 29.5q0 13 17 41q17 26 15 41l-6 180l-14 559q-1 7 -4 221v26q-5 237 -12 286q-2 14 -15 50q-14 37 -14 56q0 49 154 49h10q53 0 100 -19t82 -52q32 -30 59.5 -77t45.5 -97q16 -46 29.5 -104t19.5 -108q6 -44 10 -99t5 -88v-65
q0 -127 -33.5 -275t-94.5 -278q-38 -81 -96 -146.5t-111 -103.5t-72 -38q-26 0 -50.5 11.5zM269 100q74 40 133.5 115t94.5 163q30 78 51.5 176t28.5 179q6 74 6 141q0 599 -330 599q-43 0 -43 -23q0 -58 9 -171q9 -112 9 -169q0 -139 16 -391q15 -259 15 -389v-230h10z
M222.5 1661.5q-13.5 15.5 -13.5 33.5q0 20 16.5 37.5t36.5 17.5q18 0 33.5 -17.5t15.5 -35.5q0 -51 -57 -51q-18 0 -31.5 15.5z" />
    <glyph glyph-name="uni01F2" unicode="&#x1f2;" horiz-adv-x="1305" 
d="M187.5 7.5q-24.5 11.5 -24.5 29.5q0 13 17 41q17 26 15 41l-6 180l-14 559q-1 7 -4 221v26q-5 237 -12 286q-2 14 -15 50q-14 37 -14 56q0 49 154 49h10q53 0 100 -19t82 -52q32 -30 59.5 -77t45.5 -97q16 -46 29.5 -104t19.5 -108q6 -44 10 -99t5 -88v-65
q0 -127 -33.5 -275t-94.5 -278q-38 -81 -96 -146.5t-111 -103.5t-72 -38q-26 0 -50.5 11.5zM269 100q74 40 133.5 115t94.5 163q30 78 51.5 176t28.5 179q6 74 6 141q0 599 -330 599q-43 0 -43 -23q0 -58 9 -171q9 -112 9 -169q0 -139 16 -391q15 -259 15 -389v-230h10z
M860 27q0 25 21 106l18 70l31 114q16 56 39 169q25 122 39 177t56 185q49 155 74 263.5t25 191.5q-31 0 -96 -6q-60 -7 -96 -7q-12 0 -20.5 10.5t-8.5 22.5q0 18 74 26q69 7 153 7q18 0 26.5 -1.5t16.5 -9.5t8 -22q0 -68 -50 -224t-50 -184q-10 -52 -62 -227
q-129 -427 -130 -625q17 -4 59 -4q18 0 43 4q28 3 43 3q59 0 59 -27t-47 -27q-19 0 -60 3q-40 3 -61 3q-22 0 -44 -11q-24 -11 -29 -11q-31 0 -31 31z" />
    <glyph glyph-name="uni01C5" unicode="&#x1c5;" horiz-adv-x="1305" 
d="M187.5 7.5q-24.5 11.5 -24.5 29.5q0 13 17 41q17 26 15 41l-6 180l-14 559q-1 7 -4 221v26q-5 237 -12 286q-2 14 -15 50q-14 37 -14 56q0 49 154 49h10q53 0 100 -19t82 -52q32 -30 59.5 -77t45.5 -97q16 -46 29.5 -104t19.5 -108q6 -44 10 -99t5 -88v-65
q0 -127 -33.5 -275t-94.5 -278q-38 -81 -96 -146.5t-111 -103.5t-72 -38q-26 0 -50.5 11.5zM269 100q74 40 133.5 115t94.5 163q30 78 51.5 176t28.5 179q6 74 6 141q0 599 -330 599q-43 0 -43 -23q0 -58 9 -171q9 -112 9 -169q0 -139 16 -391q15 -259 15 -389v-230h10z
M860 27q0 25 21 106l18 70l31 114q16 56 39 169q25 122 39 177t56 185q49 155 74 263.5t25 191.5q-31 0 -96 -6q-60 -7 -96 -7q-12 0 -20.5 10.5t-8.5 22.5q0 18 74 26q69 7 153 7q18 0 26.5 -1.5t16.5 -9.5t8 -22q0 -68 -50 -224t-50 -184q-10 -52 -62 -227
q-129 -427 -130 -625q17 -4 59 -4q18 0 43 4q28 3 43 3q59 0 59 -27t-47 -27q-19 0 -60 3q-40 3 -61 3q-22 0 -44 -11q-24 -11 -29 -11q-31 0 -31 31zM1038.5 1526q-40.5 72 -76 158t-36.5 116l37 27l35 -47q2 -21 18 -70q14 -44 36.5 -108t31.5 -88q48 178 59 307l27 16
q37 -6 37 -24q0 -5 -8 -23l2 -10l-15 -31l2 -12q-9 -29 -24 -74q-19 -52 -28 -90t-9 -76q0 -43 -29 -43q-19 0 -59.5 72z" />
    <glyph glyph-name="E" unicode="E" horiz-adv-x="509" 
d="M165 -3.5q-20 8.5 -20 36.5v38q-1 17 -1 38v4l2 299l-2 845q0 100 -4 228q0 25 10 41t27 16h127q13 0 22.5 -0.5t19.5 -3.5q21 -7 21 -35q0 -16 -13 -26.5t-27 -11.5q-9 -1 -34 -1l-33 2l-33 2q-15 0 -19.5 -4.5t-4.5 -19.5q0 -97 1 -174v-174v-256q0 -4 4 -4h2h2
q69 4 111 4q34 0 34 -30q0 -19 -7 -26.5t-24 -7.5h-117q-8 0 -8 -10q0 -117 4 -304q4 -188 4 -325v-76l87 1h87h18q38 0 38 -27q0 -32 -19 -39q-21 -8 -100 -8h-87q-48 0 -68 8.5z" />
    <glyph glyph-name="Eacute" unicode="&#xc9;" horiz-adv-x="509" 
d="M165 -3.5q-20 8.5 -20 36.5v38q-1 17 -1 38v4l2 299l-2 845q0 100 -4 228q0 25 10 41t27 16h127q13 0 22.5 -0.5t19.5 -3.5q21 -7 21 -35q0 -16 -13 -26.5t-27 -11.5q-9 -1 -34 -1l-33 2l-33 2q-15 0 -19.5 -4.5t-4.5 -19.5q0 -97 1 -174v-174v-256q0 -4 4 -4h2h2
q69 4 111 4q34 0 34 -30q0 -19 -7 -26.5t-24 -7.5h-117q-8 0 -8 -10q0 -117 4 -304q4 -188 4 -325v-76l87 1h87h18q38 0 38 -27q0 -32 -19 -39q-21 -8 -100 -8h-87q-48 0 -68 8.5zM225.5 1647q-10.5 8 -10.5 22q0 8 56 53q45 37 122 96q69 53 76 60q45 0 45 -32l-6 -31
q-105 -47 -256 -176q-16 0 -26.5 8z" />
    <glyph glyph-name="Ebreve" unicode="&#x114;" horiz-adv-x="509" 
d="M165 -3.5q-20 8.5 -20 36.5v38q-1 17 -1 38v4l2 299l-2 845q0 100 -4 228q0 25 10 41t27 16h127q13 0 22.5 -0.5t19.5 -3.5q21 -7 21 -35q0 -16 -13 -26.5t-27 -11.5q-9 -1 -34 -1l-33 2l-33 2q-15 0 -19.5 -4.5t-4.5 -19.5q0 -97 1 -174v-174v-256q0 -4 4 -4h2h2
q69 4 111 4q34 0 34 -30q0 -19 -7 -26.5t-24 -7.5h-117q-8 0 -8 -10q0 -117 4 -304q4 -188 4 -325v-76l87 1h87h18q38 0 38 -27q0 -32 -19 -39q-21 -8 -100 -8h-87q-48 0 -68 8.5zM180.5 1640.5q-30.5 18.5 -46.5 51.5q-31 63 -31 139l22 18q14 -2 20 -32q8 -47 19 -81.5
t33 -50.5l22 -16h51q17 0 33.5 17.5t26.5 42t10 44.5q0 8 -1 15q-1 6 -1 14q0 39 37 39q12 0 21.5 -8.5t9.5 -20.5q0 -4 -5 -17l-6 -15l5 -15l-6 -12t-10 -23q-9 -21 -15.5 -34t-17.5 -29q-11 -17 -22.5 -24t-32.5 -14q-18 -7 -44 -7q-41 0 -71.5 18.5z" />
    <glyph glyph-name="Ecaron" unicode="&#x11a;" horiz-adv-x="509" 
d="M165 -3.5q-20 8.5 -20 36.5v38q-1 17 -1 38v4l2 299l-2 845q0 100 -4 228q0 25 10 41t27 16h127q13 0 22.5 -0.5t19.5 -3.5q21 -7 21 -35q0 -16 -13 -26.5t-27 -11.5q-9 -1 -34 -1l-33 2l-33 2q-15 0 -19.5 -4.5t-4.5 -19.5q0 -97 1 -174v-174v-256q0 -4 4 -4h2h2
q69 4 111 4q34 0 34 -30q0 -19 -7 -26.5t-24 -7.5h-117q-8 0 -8 -10q0 -117 4 -304q4 -188 4 -325v-76l87 1h87h18q38 0 38 -27q0 -32 -19 -39q-21 -8 -100 -8h-87q-48 0 -68 8.5zM226.5 1677q-40.5 72 -76 158t-36.5 116l37 27l35 -47q2 -21 18 -70q14 -44 36.5 -108
t31.5 -88q48 178 59 307l27 16q37 -6 37 -24q0 -5 -8 -23l2 -10l-15 -31l2 -12q-9 -29 -24 -74q-19 -52 -28 -90t-9 -76q0 -43 -29 -43q-19 0 -59.5 72z" />
    <glyph glyph-name="uni0228" unicode="&#x228;" horiz-adv-x="509" 
d="M281 -12q-4 -29 -4 -69q149 -11 149 -206q0 -32 -22 -70.5t-58 -65t-75 -26.5q-32 0 -60 15t-28 40q0 21 22 21q13 0 33 -10q22 -11 33 -11q35 0 57.5 43t22.5 100q0 67 -31 91q-9 0 -27 -3q-17 -4 -28 -4q-30 0 -56 41q17 40 17 114q-44 1 -62.5 10t-18.5 35v38
q-1 17 -1 38v4l2 299l-2 845q0 100 -4 228q0 25 10 41t27 16h127q13 0 22.5 -0.5t19.5 -3.5q21 -7 21 -35q0 -16 -13 -26.5t-27 -11.5q-9 -1 -34 -1l-33 2l-33 2q-15 0 -19.5 -4.5t-4.5 -19.5q0 -97 1 -174v-174v-256q0 -4 4 -4h2h2q69 4 111 4q34 0 34 -30q0 -19 -7 -26.5
t-24 -7.5h-117q-8 0 -8 -10q0 -117 4 -304q4 -188 4 -325v-76l87 1h87h18q38 0 38 -27q0 -32 -19 -39q-21 -8 -100 -8h-39z" />
    <glyph glyph-name="Ecircumflex" unicode="&#xca;" horiz-adv-x="509" 
d="M165 -3.5q-20 8.5 -20 36.5v38q-1 17 -1 38v4l2 299l-2 845q0 100 -4 228q0 25 10 41t27 16h127q13 0 22.5 -0.5t19.5 -3.5q21 -7 21 -35q0 -16 -13 -26.5t-27 -11.5q-9 -1 -34 -1l-33 2l-33 2q-15 0 -19.5 -4.5t-4.5 -19.5q0 -97 1 -174v-174v-256q0 -4 4 -4h2h2
q69 4 111 4q34 0 34 -30q0 -19 -7 -26.5t-24 -7.5h-117q-8 0 -8 -10q0 -117 4 -304q4 -188 4 -325v-76l87 1h87h18q38 0 38 -27q0 -32 -19 -39q-21 -8 -100 -8h-87q-48 0 -68 8.5zM321 1598q-11 129 -59 307q-9 -24 -31.5 -88t-36.5 -108q-16 -49 -18 -70l-35 -47l-37 26
q1 30 36.5 116t76 158t59.5 72q29 0 29 -43q0 -38 9 -76t28 -89q15 -45 24 -74l-2 -13l15 -30l-2 -11q8 -18 8 -22q0 -19 -37 -25z" />
    <glyph glyph-name="uni1EBE" unicode="&#x1ebe;" horiz-adv-x="509" 
d="M165 -3.5q-20 8.5 -20 36.5v38q-1 17 -1 38v4l2 299l-2 845q0 100 -4 228q0 25 10 41t27 16h127q13 0 22.5 -0.5t19.5 -3.5q21 -7 21 -35q0 -16 -13 -26.5t-27 -11.5q-9 -1 -34 -1l-33 2l-33 2q-15 0 -19.5 -4.5t-4.5 -19.5q0 -97 1 -174v-174v-256q0 -4 4 -4h2h2
q69 4 111 4q34 0 34 -30q0 -19 -7 -26.5t-24 -7.5h-117q-8 0 -8 -10q0 -117 4 -304q4 -188 4 -325v-76l87 1h87h18q38 0 38 -27q0 -32 -19 -39q-21 -8 -100 -8h-87q-48 0 -68 8.5zM331 1587q-11 129 -59 307q-9 -24 -31.5 -88t-36.5 -108q-16 -49 -18 -70l-35 -47l-37 26
q1 30 36.5 116t76 158t59.5 72q29 0 29 -43q0 -38 9 -76t28 -89q15 -45 24 -74l-2 -13l15 -30l-2 -11q8 -18 8 -22q0 -19 -37 -25zM371.5 1804q-10.5 8 -10.5 22q0 8 56 53q45 37 122 96q69 53 76 60q45 0 45 -32l-6 -31q-105 -47 -256 -176q-16 0 -26.5 8z" />
    <glyph glyph-name="uni1EC6" unicode="&#x1ec6;" horiz-adv-x="509" 
d="M165 -3.5q-20 8.5 -20 36.5v38q-1 17 -1 38v4l2 299l-2 845q0 100 -4 228q0 25 10 41t27 16h127q13 0 22.5 -0.5t19.5 -3.5q21 -7 21 -35q0 -16 -13 -26.5t-27 -11.5q-9 -1 -34 -1l-33 2l-33 2q-15 0 -19.5 -4.5t-4.5 -19.5q0 -97 1 -174v-174v-256q0 -4 4 -4h2h2
q69 4 111 4q34 0 34 -30q0 -19 -7 -26.5t-24 -7.5h-117q-8 0 -8 -10q0 -117 4 -304q4 -188 4 -325v-76l87 1h87h18q38 0 38 -27q0 -32 -19 -39q-21 -8 -100 -8h-87q-48 0 -68 8.5zM217.5 -224.5q-13.5 15.5 -13.5 33.5q0 20 16.5 37.5t36.5 17.5q18 0 33.5 -17.5t15.5 -35.5
q0 -51 -57 -51q-18 0 -31.5 15.5zM321 1598q-11 129 -59 307q-9 -24 -31.5 -88t-36.5 -108q-16 -49 -18 -70l-35 -47l-37 26q1 30 36.5 116t76 158t59.5 72q29 0 29 -43q0 -38 9 -76t28 -89q15 -45 24 -74l-2 -13l15 -30l-2 -11q8 -18 8 -22q0 -19 -37 -25z" />
    <glyph glyph-name="uni1EC0" unicode="&#x1ec0;" horiz-adv-x="509" 
d="M29 1895q-57 67 -62 75q-13 4 -31 13q-45 27 -45 53q0 8 5 18q18 31 34 32l11 -6q52 -31 57 -60l18 -19q16 -19 55 -67q36 -45 53 -76q16 -25 16 -43q0 -7 -2 -10q-3 -6 -14 -6q-9 0 -15 3q-23 26 -80 93zM319 1590q-11 129 -59 307q-9 -24 -31.5 -88t-36.5 -108
q-16 -49 -18 -70l-35 -47l-37 26q1 30 36.5 116t76 158t59.5 72q29 0 29 -43q0 -38 9 -76t28 -89q15 -45 24 -74l-2 -13l15 -30l-2 -11q8 -18 8 -22q0 -19 -37 -25zM165 -3.5q-20 8.5 -20 36.5v38q-1 17 -1 38v4l2 299l-2 845q0 100 -4 228q0 25 10 41t27 16h127
q13 0 22.5 -0.5t19.5 -3.5q21 -7 21 -35q0 -16 -13 -26.5t-27 -11.5q-9 -1 -34 -1l-33 2l-33 2q-15 0 -19.5 -4.5t-4.5 -19.5q0 -97 1 -174v-174v-256q0 -4 4 -4h2h2q69 4 111 4q34 0 34 -30q0 -19 -7 -26.5t-24 -7.5h-117q-8 0 -8 -10q0 -117 4 -304q4 -188 4 -325v-76
l87 1h87h18q38 0 38 -27q0 -32 -19 -39q-21 -8 -100 -8h-87q-48 0 -68 8.5z" />
    <glyph glyph-name="uni1EC2" unicode="&#x1ec2;" horiz-adv-x="509" 
d="M165 -3.5q-20 8.5 -20 36.5v38q-1 17 -1 38v4l2 299l-2 845q0 100 -4 228q0 25 10 41t27 16h127q13 0 22.5 -0.5t19.5 -3.5q21 -7 21 -35q0 -16 -13 -26.5t-27 -11.5q-9 -1 -34 -1l-33 2l-33 2q-15 0 -19.5 -4.5t-4.5 -19.5q0 -97 1 -174v-174v-256q0 -4 4 -4h2h2
q69 4 111 4q34 0 34 -30q0 -19 -7 -26.5t-24 -7.5h-117q-8 0 -8 -10q0 -117 4 -304q4 -188 4 -325v-76l87 1h87h18q38 0 38 -27q0 -32 -19 -39q-21 -8 -100 -8h-87q-48 0 -68 8.5zM335 1594q-11 129 -59 307q-9 -24 -31.5 -88t-36.5 -108q-16 -49 -18 -70l-35 -47l-37 26
q1 30 36.5 116t76 158t59.5 72q29 0 29 -43q0 -38 9 -76t28 -89q15 -45 24 -74l-2 -13l15 -30l-2 -11q8 -18 8 -22q0 -19 -37 -25zM476 1811v11q0 15 11.5 26t35.5 28q21 13 32 24t11 23q0 39 -66 39q-38 0 -56.5 -10t-18.5 -33q0 -13 3 -27q-13 -5 -20 -5q-29 0 -29 36
q0 33 29 55.5t92 22.5q64 0 90 -20t26 -58q0 -19 -13.5 -33t-40.5 -33q-21 -15 -30.5 -24t-9.5 -20v-13q-8 -13 -23 -13q-20 0 -23 24z" />
    <glyph glyph-name="uni1EC4" unicode="&#x1ec4;" horiz-adv-x="509" 
d="M165 -3.5q-20 8.5 -20 36.5v38q-1 17 -1 38v4l2 299l-2 845q0 100 -4 228q0 25 10 41t27 16h127q13 0 22.5 -0.5t19.5 -3.5q21 -7 21 -35q0 -16 -13 -26.5t-27 -11.5q-9 -1 -34 -1l-33 2l-33 2q-15 0 -19.5 -4.5t-4.5 -19.5q0 -97 1 -174v-174v-256q0 -4 4 -4h2h2
q69 4 111 4q34 0 34 -30q0 -19 -7 -26.5t-24 -7.5h-117q-8 0 -8 -10q0 -117 4 -304q4 -188 4 -325v-76l87 1h87h18q38 0 38 -27q0 -32 -19 -39q-21 -8 -100 -8h-87q-48 0 -68 8.5zM321 1598q-11 129 -59 307q-9 -24 -31.5 -88t-36.5 -108q-16 -49 -18 -70l-35 -47l-37 26
q1 30 36.5 116t76 158t59.5 72q29 0 29 -43q0 -38 9 -76t28 -89q15 -45 24 -74l-2 -13l15 -30l-2 -11q8 -18 8 -22q0 -19 -37 -25zM42 2038.5q-13 11.5 -13 23.5q0 64 34.5 103t84.5 39q51 0 87 -42q15 -30 51 -54.5t66 -24.5q53 0 53 73q0 6 -5 21q-5 10 -7 18q6 12 21 12
q23 0 35 -20.5t12 -49.5q0 -28 -15.5 -53t-40.5 -40t-53 -15q-34 0 -71 20t-59 43q-19 19 -52 58l-14 6q-30 0 -53 -16t-23 -39q0 -10 10 -43l-22 -31q-13 0 -26 11.5z" />
    <glyph glyph-name="uni0204" unicode="&#x204;" horiz-adv-x="509" 
d="M165 -3.5q-20 8.5 -20 36.5v38q-1 17 -1 38v4l2 299l-2 845q0 100 -4 228q0 25 10 41t27 16h127q13 0 22.5 -0.5t19.5 -3.5q21 -7 21 -35q0 -16 -13 -26.5t-27 -11.5q-9 -1 -34 -1l-33 2l-33 2q-15 0 -19.5 -4.5t-4.5 -19.5q0 -97 1 -174v-174v-256q0 -4 4 -4h2h2
q69 4 111 4q34 0 34 -30q0 -19 -7 -26.5t-24 -7.5h-117q-8 0 -8 -10q0 -117 4 -304q4 -188 4 -325v-76l87 1h87h18q38 0 38 -27q0 -32 -19 -39q-21 -8 -100 -8h-87q-48 0 -68 8.5zM341 1656q-48 36 -71 46q-39 27 -186 145q-13 7 -13 20q0 9 9 20t13 11q11 0 95.5 -63.5
t164 -131.5t82.5 -81l-9 -11q-34 7 -85 45zM125 1639q-39 24 -74 48l-23 15q-24 15 -27 16q-77 41 -110 55l-107 60q3 16 17 33t25 17q10 0 115 -60q34 -21 140 -101q97 -75 97 -90t-11 -15q-8 0 -42 22z" />
    <glyph glyph-name="Edieresis" unicode="&#xcb;" horiz-adv-x="509" 
d="M165 -3.5q-20 8.5 -20 36.5v38q-1 17 -1 38v4l2 299l-2 845q0 100 -4 228q0 25 10 41t27 16h127q13 0 22.5 -0.5t19.5 -3.5q21 -7 21 -35q0 -16 -13 -26.5t-27 -11.5q-9 -1 -34 -1l-33 2l-33 2q-15 0 -19.5 -4.5t-4.5 -19.5q0 -97 1 -174v-174v-256q0 -4 4 -4h2h2
q69 4 111 4q34 0 34 -30q0 -19 -7 -26.5t-24 -7.5h-117q-8 0 -8 -10q0 -117 4 -304q4 -188 4 -325v-76l87 1h87h18q38 0 38 -27q0 -32 -19 -39q-21 -8 -100 -8h-87q-48 0 -68 8.5zM360 1671.5q-13 14.5 -13 30.5q0 19 15.5 35t34.5 16q17 0 31 -16.5t14 -32.5q0 -47 -54 -47
q-15 0 -28 14.5zM88.5 1665q-11.5 16 -11.5 35q0 18 15.5 34.5t33.5 16.5q20 0 30.5 -19.5t10.5 -47.5q0 -16 -15.5 -25.5t-35.5 -9.5q-16 0 -27.5 16z" />
    <glyph glyph-name="Edotaccent" unicode="&#x116;" horiz-adv-x="509" 
d="M165 -3.5q-20 8.5 -20 36.5v38q-1 17 -1 38v4l2 299l-2 845q0 100 -4 228q0 25 10 41t27 16h127q13 0 22.5 -0.5t19.5 -3.5q21 -7 21 -35q0 -16 -13 -26.5t-27 -11.5q-9 -1 -34 -1l-33 2l-33 2q-15 0 -19.5 -4.5t-4.5 -19.5q0 -97 1 -174v-174v-256q0 -4 4 -4h2h2
q69 4 111 4q34 0 34 -30q0 -19 -7 -26.5t-24 -7.5h-117q-8 0 -8 -10q0 -117 4 -304q4 -188 4 -325v-76l87 1h87h18q38 0 38 -27q0 -32 -19 -39q-21 -8 -100 -8h-87q-48 0 -68 8.5zM217.5 1661.5q-13.5 15.5 -13.5 33.5q0 20 16.5 37.5t36.5 17.5q18 0 33.5 -17.5t15.5 -35.5
q0 -51 -57 -51q-18 0 -31.5 15.5z" />
    <glyph glyph-name="uni1EB8" unicode="&#x1eb8;" horiz-adv-x="509" 
d="M165 -3.5q-20 8.5 -20 36.5v38q-1 17 -1 38v4l2 299l-2 845q0 100 -4 228q0 25 10 41t27 16h127q13 0 22.5 -0.5t19.5 -3.5q21 -7 21 -35q0 -16 -13 -26.5t-27 -11.5q-9 -1 -34 -1l-33 2l-33 2q-15 0 -19.5 -4.5t-4.5 -19.5q0 -97 1 -174v-174v-256q0 -4 4 -4h2h2
q69 4 111 4q34 0 34 -30q0 -19 -7 -26.5t-24 -7.5h-117q-8 0 -8 -10q0 -117 4 -304q4 -188 4 -325v-76l87 1h87h18q38 0 38 -27q0 -32 -19 -39q-21 -8 -100 -8h-87q-48 0 -68 8.5zM217.5 -224.5q-13.5 15.5 -13.5 33.5q0 20 16.5 37.5t36.5 17.5q18 0 33.5 -17.5t15.5 -35.5
q0 -51 -57 -51q-18 0 -31.5 15.5z" />
    <glyph glyph-name="Egrave" unicode="&#xc8;" horiz-adv-x="509" 
d="M165 -3.5q-20 8.5 -20 36.5v38q-1 17 -1 38v4l2 299l-2 845q0 100 -4 228q0 25 10 41t27 16h127q13 0 22.5 -0.5t19.5 -3.5q21 -7 21 -35q0 -16 -13 -26.5t-27 -11.5q-9 -1 -34 -1l-33 2l-33 2q-15 0 -19.5 -4.5t-4.5 -19.5q0 -97 1 -174v-174v-256q0 -4 4 -4h2h2
q69 4 111 4q34 0 34 -30q0 -19 -7 -26.5t-24 -7.5h-117q-8 0 -8 -10q0 -117 4 -304q4 -188 4 -325v-76l87 1h87h18q38 0 38 -27q0 -32 -19 -39q-21 -8 -100 -8h-87q-48 0 -68 8.5zM235 1636q-90 51 -97 57h-11q-10 0 -22 2q-70 12 -62 52q6 36 20 42l13 -2q60 -10 74 -36
l23 -12q21 -11 75 -44q48 -30 76 -53q34 -28 31 -45q-1 -6 -9.5 -10t-16.5 -3q-4 1 -94 52z" />
    <glyph glyph-name="uni1EBA" unicode="&#x1eba;" horiz-adv-x="509" 
d="M165 -3.5q-20 8.5 -20 36.5v38q-1 17 -1 38v4l2 299l-2 845q0 100 -4 228q0 25 10 41t27 16h127q13 0 22.5 -0.5t19.5 -3.5q21 -7 21 -35q0 -16 -13 -26.5t-27 -11.5q-9 -1 -34 -1l-33 2l-33 2q-15 0 -19.5 -4.5t-4.5 -19.5q0 -97 1 -174v-174v-256q0 -4 4 -4h2h2
q69 4 111 4q34 0 34 -30q0 -19 -7 -26.5t-24 -7.5h-117q-8 0 -8 -10q0 -117 4 -304q4 -188 4 -325v-76l87 1h87h18q38 0 38 -27q0 -32 -19 -39q-21 -8 -100 -8h-87q-48 0 -68 8.5zM243 1597v11q0 15 11.5 26t35.5 28q21 13 32 24t11 23q0 39 -66 39q-38 0 -56.5 -10
t-18.5 -33q0 -13 3 -27q-13 -5 -20 -5q-29 0 -29 36q0 33 29 55.5t92 22.5q64 0 90 -20t26 -58q0 -19 -13.5 -33t-40.5 -33q-21 -15 -30.5 -24t-9.5 -20v-13q-8 -13 -23 -13q-20 0 -23 24z" />
    <glyph glyph-name="uni0206" unicode="&#x206;" horiz-adv-x="509" 
d="M165 -3.5q-20 8.5 -20 36.5v38q-1 17 -1 38v4l2 299l-2 845q0 100 -4 228q0 25 10 41t27 16h127q13 0 22.5 -0.5t19.5 -3.5q21 -7 21 -35q0 -16 -13 -26.5t-27 -11.5q-9 -1 -34 -1l-33 2l-33 2q-15 0 -19.5 -4.5t-4.5 -19.5q0 -97 1 -174v-174v-256q0 -4 4 -4h2h2
q69 4 111 4q34 0 34 -30q0 -19 -7 -26.5t-24 -7.5h-117q-8 0 -8 -10q0 -117 4 -304q4 -188 4 -325v-76l87 1h87h18q38 0 38 -27q0 -32 -19 -39q-21 -8 -100 -8h-87q-48 0 -68 8.5zM89 1600q0 76 31 139q16 33 46.5 51.5t71.5 18.5q39 0 75 -20q19 -10 41 -52l6 -12t10 -23
t10 -23.5t6 -12.5l-5 -15l6 -15q5 -13 5 -17q0 -12 -9.5 -20.5t-21.5 -8.5q-37 0 -37 39q0 8 1 15q1 6 1 14q0 20 -10 44.5t-26.5 42t-33.5 17.5h-51l-22 -16q-22 -16 -33 -50.5t-19 -81.5q-6 -30 -20 -32z" />
    <glyph glyph-name="Emacron" unicode="&#x112;" horiz-adv-x="509" 
d="M165 -3.5q-20 8.5 -20 36.5v38q-1 17 -1 38v4l2 299l-2 845q0 100 -4 228q0 25 10 41t27 16h127q13 0 22.5 -0.5t19.5 -3.5q21 -7 21 -35q0 -16 -13 -26.5t-27 -11.5q-9 -1 -34 -1l-33 2l-33 2q-15 0 -19.5 -4.5t-4.5 -19.5q0 -97 1 -174v-174v-256q0 -4 4 -4h2h2
q69 4 111 4q34 0 34 -30q0 -19 -7 -26.5t-24 -7.5h-117q-8 0 -8 -10q0 -117 4 -304q4 -188 4 -325v-76l87 1h87h18q38 0 38 -27q0 -32 -19 -39q-21 -8 -100 -8h-87q-48 0 -68 8.5zM101 1678q-33 7 -39 15q-5 7 -5 14q2 17 131 17h116q35 0 58 -0.5t46 -3.5q24 -3 34 -10
t10 -19q-2 -17 -131 -17h-115h-40q-46 0 -65 4z" />
    <glyph glyph-name="Eogonek" unicode="&#x118;" horiz-adv-x="509" 
d="M491 -398q0 -25 -28 -40t-60 -15q-39 0 -75 26.5t-58 65t-22 70.5q0 47 14 97t36 88q27 47 64 95q-12 -1 -42 -1h-87q-48 0 -68 8.5t-20 36.5v38q-1 17 -1 38v4l2 299l-2 845q0 100 -4 228q0 25 10 41t27 16h127q13 0 22.5 -0.5t19.5 -3.5q21 -7 21 -35q0 -16 -13 -26.5
t-27 -11.5q-9 -1 -34 -1l-33 2l-33 2q-15 0 -19.5 -4.5t-4.5 -19.5q0 -97 1 -174v-174v-256q0 -4 4 -4h2h2q69 4 111 4q34 0 34 -30q0 -19 -7 -26.5t-24 -7.5h-117q-8 0 -8 -10q0 -117 4 -304q4 -188 4 -325v-76l87 1h87h18q38 0 38 -27q0 -15 -4 -23l13 -2l2 1l1 -1
q0 -1 -17 -26q-24 -32 -42.5 -61.5t-33.5 -67.5q-18 -44 -18 -79q0 -22 -4 -47l-1 -20q-1 -10 -1 -23q0 -27 22.5 -55.5t46.5 -28.5q11 0 33 11q20 10 33 10q22 0 22 -21z" />
    <glyph glyph-name="uni1EBC" unicode="&#x1ebc;" horiz-adv-x="509" 
d="M165 -3.5q-20 8.5 -20 36.5v38q-1 17 -1 38v4l2 299l-2 845q0 100 -4 228q0 25 10 41t27 16h127q13 0 22.5 -0.5t19.5 -3.5q21 -7 21 -35q0 -16 -13 -26.5t-27 -11.5q-9 -1 -34 -1l-33 2l-33 2q-15 0 -19.5 -4.5t-4.5 -19.5q0 -97 1 -174v-174v-256q0 -4 4 -4h2h2
q69 4 111 4q34 0 34 -30q0 -19 -7 -26.5t-24 -7.5h-117q-8 0 -8 -10q0 -117 4 -304q4 -188 4 -325v-76l87 1h87h18q38 0 38 -27q0 -32 -19 -39q-21 -8 -100 -8h-87q-48 0 -68 8.5zM52 1618.5q-13 11.5 -13 23.5q0 64 34.5 103t84.5 39q51 0 87 -42q15 -30 51 -54.5t66 -24.5
q53 0 53 73q0 6 -5 21q-5 10 -7 18q6 12 21 12q23 0 35 -20.5t12 -49.5q0 -28 -15.5 -53t-40.5 -40t-53 -15q-34 0 -71 20t-59 43q-19 19 -52 58l-14 6q-30 0 -53 -16t-23 -39q0 -10 10 -43l-22 -31q-13 0 -26 11.5z" />
    <glyph glyph-name="F" unicode="F" horiz-adv-x="524" 
d="M195 49v152l-6 125q-20 333 -20 493q0 41 -6.5 207.5t-14.5 328.5l-8 157v13q0 15 20 20q17 4 71 4h46q23 -1 56 -1q16 0 25 -14t9 -33q0 -20 -38 -20l-47 1l-53 1q-16 0 -20.5 -6.5t-4.5 -33.5q0 -22 15 -298q15 -277 15 -301q23 0 69 12q47 12 69 12q12 0 22 -13.5
t10 -27.5q0 -15 -18.5 -23t-39 -11t-69.5 -7q-43 -4 -43 -24q0 -110 20 -345q19 -224 19 -345l-6 -11q6 -15 6 -27q0 -38 -45 -38q-33 0 -33 53z" />
    <glyph glyph-name="uni1E1E" unicode="&#x1e1e;" horiz-adv-x="524" 
d="M195 49v152l-6 125q-20 333 -20 493q0 41 -6.5 207.5t-14.5 328.5l-8 157v13q0 15 20 20q17 4 71 4h46q23 -1 56 -1q16 0 25 -14t9 -33q0 -20 -38 -20l-47 1l-53 1q-16 0 -20.5 -6.5t-4.5 -33.5q0 -22 15 -298q15 -277 15 -301q23 0 69 12q47 12 69 12q12 0 22 -13.5
t10 -27.5q0 -15 -18.5 -23t-39 -11t-69.5 -7q-43 -4 -43 -24q0 -110 20 -345q19 -224 19 -345l-6 -11q6 -15 6 -27q0 -38 -45 -38q-33 0 -33 53zM224.5 1661.5q-13.5 15.5 -13.5 33.5q0 20 16.5 37.5t36.5 17.5q18 0 33.5 -17.5t15.5 -35.5q0 -51 -57 -51q-18 0 -31.5 15.5z
" />
    <glyph glyph-name="G" unicode="G" horiz-adv-x="787" 
d="M198 188q-73 219 -73 689q0 100 5 177q3 57 9 101.5t18 102.5q11 54 27 95.5t42 86.5q25 42 56 69.5t75 44.5q45 17 94 17q61 0 61 -35q0 -25 -30 -25q-9 0 -29 6q-22 5 -29 5q-34 0 -64 -15t-52 -41q-20 -23 -38 -61t-30 -80q-19 -64 -32 -182q-9 -77 -11 -181l-2 -135
q-1 -22 -1 -112q0 -101 6.5 -186t23.5 -176q18 -101 46.5 -169.5t75.5 -112.5q47 -46 111 -46q108 0 174 102q0 59 -9 145q-4 46 -16 85q-12 34 -28 34t-40 -4t-42 -4q-47 0 -47 35q0 17 56.5 31t96.5 14q32 0 48 -24t16 -62q0 -61 21 -182q20 -125 20 -183q0 -32 -27 -32
q-49 0 -49 45l1 5l1 5q-119 -68 -206 -68q-155 0 -229 221z" />
    <glyph glyph-name="uni01F4" unicode="&#x1f4;" horiz-adv-x="787" 
d="M198 188q-73 219 -73 689q0 100 5 177q3 57 9 101.5t18 102.5q11 54 27 95.5t42 86.5q25 42 56 69.5t75 44.5q45 17 94 17q61 0 61 -35q0 -25 -30 -25q-9 0 -29 6q-22 5 -29 5q-34 0 -64 -15t-52 -41q-20 -23 -38 -61t-30 -80q-19 -64 -32 -182q-9 -77 -11 -181l-2 -135
q-1 -22 -1 -112q0 -101 6.5 -186t23.5 -176q18 -101 46.5 -169.5t75.5 -112.5q47 -46 111 -46q108 0 174 102q0 59 -9 145q-4 46 -16 85q-12 34 -28 34t-40 -4t-42 -4q-47 0 -47 35q0 17 56.5 31t96.5 14q32 0 48 -24t16 -62q0 -61 21 -182q20 -125 20 -183q0 -32 -27 -32
q-49 0 -49 45l1 5l1 5q-119 -68 -206 -68q-155 0 -229 221zM354.5 1667q-10.5 8 -10.5 22q0 8 56 53q45 37 122 96q69 53 76 60q45 0 45 -32l-6 -31q-105 -47 -256 -176q-16 0 -26.5 8z" />
    <glyph glyph-name="Gbreve" unicode="&#x11e;" horiz-adv-x="787" 
d="M198 188q-73 219 -73 689q0 100 5 177q3 57 9 101.5t18 102.5q11 54 27 95.5t42 86.5q25 42 56 69.5t75 44.5q45 17 94 17q61 0 61 -35q0 -25 -30 -25q-9 0 -29 6q-22 5 -29 5q-34 0 -64 -15t-52 -41q-20 -23 -38 -61t-30 -80q-19 -64 -32 -182q-9 -77 -11 -181l-2 -135
q-1 -22 -1 -112q0 -101 6.5 -186t23.5 -176q18 -101 46.5 -169.5t75.5 -112.5q47 -46 111 -46q108 0 174 102q0 59 -9 145q-4 46 -16 85q-12 34 -28 34t-40 -4t-42 -4q-47 0 -47 35q0 17 56.5 31t96.5 14q32 0 48 -24t16 -62q0 -61 21 -182q20 -125 20 -183q0 -32 -27 -32
q-49 0 -49 45l1 5l1 5q-119 -68 -206 -68q-155 0 -229 221zM349.5 1660.5q-30.5 18.5 -46.5 51.5q-31 63 -31 139l22 18q14 -2 20 -32q8 -47 19 -81.5t33 -50.5l22 -16h51q17 0 33.5 17.5t26.5 42t10 44.5q0 8 -1 15q-1 6 -1 14q0 39 37 39q12 0 21.5 -8.5t9.5 -20.5
q0 -4 -5 -17l-6 -15l5 -15l-6 -12t-10 -23q-9 -21 -15.5 -34t-17.5 -29q-11 -17 -22.5 -24t-32.5 -14q-18 -7 -44 -7q-41 0 -71.5 18.5z" />
    <glyph glyph-name="Gcaron" unicode="&#x1e6;" horiz-adv-x="787" 
d="M198 188q-73 219 -73 689q0 100 5 177q3 57 9 101.5t18 102.5q11 54 27 95.5t42 86.5q25 42 56 69.5t75 44.5q45 17 94 17q61 0 61 -35q0 -25 -30 -25q-9 0 -29 6q-22 5 -29 5q-34 0 -64 -15t-52 -41q-20 -23 -38 -61t-30 -80q-19 -64 -32 -182q-9 -77 -11 -181l-2 -135
q-1 -22 -1 -112q0 -101 6.5 -186t23.5 -176q18 -101 46.5 -169.5t75.5 -112.5q47 -46 111 -46q108 0 174 102q0 59 -9 145q-4 46 -16 85q-12 34 -28 34t-40 -4t-42 -4q-47 0 -47 35q0 17 56.5 31t96.5 14q32 0 48 -24t16 -62q0 -61 21 -182q20 -125 20 -183q0 -32 -27 -32
q-49 0 -49 45l1 5l1 5q-119 -68 -206 -68q-155 0 -229 221zM335.5 1697q-40.5 72 -76 158t-36.5 116l37 27l35 -47q2 -21 18 -70q14 -44 36.5 -108t31.5 -88q48 178 59 307l27 16q37 -6 37 -24q0 -5 -8 -23l2 -10l-15 -31l2 -12q-9 -29 -24 -74q-19 -52 -28 -90t-9 -76
q0 -43 -29 -43q-19 0 -59.5 72z" />
    <glyph glyph-name="Gcircumflex" unicode="&#x11c;" horiz-adv-x="787" 
d="M198 188q-73 219 -73 689q0 100 5 177q3 57 9 101.5t18 102.5q11 54 27 95.5t42 86.5q25 42 56 69.5t75 44.5q45 17 94 17q61 0 61 -35q0 -25 -30 -25q-9 0 -29 6q-22 5 -29 5q-34 0 -64 -15t-52 -41q-20 -23 -38 -61t-30 -80q-19 -64 -32 -182q-9 -77 -11 -181l-2 -135
q-1 -22 -1 -112q0 -101 6.5 -186t23.5 -176q18 -101 46.5 -169.5t75.5 -112.5q47 -46 111 -46q108 0 174 102q0 59 -9 145q-4 46 -16 85q-12 34 -28 34t-40 -4t-42 -4q-47 0 -47 35q0 17 56.5 31t96.5 14q32 0 48 -24t16 -62q0 -61 21 -182q20 -125 20 -183q0 -32 -27 -32
q-49 0 -49 45l1 5l1 5q-119 -68 -206 -68q-155 0 -229 221zM490 1618q-11 129 -59 307q-9 -24 -31.5 -88t-36.5 -108q-16 -49 -18 -70l-35 -47l-37 26q1 30 36.5 116t76 158t59.5 72q29 0 29 -43q0 -38 9 -76t28 -89q15 -45 24 -74l-2 -13l15 -30l-2 -11q8 -18 8 -22
q0 -19 -37 -25z" />
    <glyph glyph-name="Gcommaaccent" unicode="&#x122;" horiz-adv-x="787" 
d="M198 188q-73 219 -73 689q0 100 5 177q3 57 9 101.5t18 102.5q11 54 27 95.5t42 86.5q25 42 56 69.5t75 44.5q45 17 94 17q61 0 61 -35q0 -25 -30 -25q-9 0 -29 6q-22 5 -29 5q-34 0 -64 -15t-52 -41q-20 -23 -38 -61t-30 -80q-19 -64 -32 -182q-9 -77 -11 -181l-2 -135
q-1 -22 -1 -112q0 -101 6.5 -186t23.5 -176q18 -101 46.5 -169.5t75.5 -112.5q47 -46 111 -46q108 0 174 102q0 59 -9 145q-4 46 -16 85q-12 34 -28 34t-40 -4t-42 -4q-47 0 -47 35q0 17 56.5 31t96.5 14q32 0 48 -24t16 -62q0 -61 21 -182q20 -125 20 -183q0 -32 -27 -32
q-49 0 -49 45l1 5l1 5q-119 -68 -206 -68q-155 0 -229 221zM345 -444l4 18q10 8 27 24t30 29q36 39 44 62q6 16 6 35q-26 16 -43 40.5t-17 49.5q0 27 24 45.5t54 18.5q46 0 68 -60l-4 -6q4 -7 4 -25q0 -35 -26 -93.5t-64 -104.5q-40 -48 -74 -49z" />
    <glyph glyph-name="Gdotaccent" unicode="&#x120;" horiz-adv-x="787" 
d="M198 188q-73 219 -73 689q0 100 5 177q3 57 9 101.5t18 102.5q11 54 27 95.5t42 86.5q25 42 56 69.5t75 44.5q45 17 94 17q61 0 61 -35q0 -25 -30 -25q-9 0 -29 6q-22 5 -29 5q-34 0 -64 -15t-52 -41q-20 -23 -38 -61t-30 -80q-19 -64 -32 -182q-9 -77 -11 -181l-2 -135
q-1 -22 -1 -112q0 -101 6.5 -186t23.5 -176q18 -101 46.5 -169.5t75.5 -112.5q47 -46 111 -46q108 0 174 102q0 59 -9 145q-4 46 -16 85q-12 34 -28 34t-40 -4t-42 -4q-47 0 -47 35q0 17 56.5 31t96.5 14q32 0 48 -24t16 -62q0 -61 21 -182q20 -125 20 -183q0 -32 -27 -32
q-49 0 -49 45l1 5l1 5q-119 -68 -206 -68q-155 0 -229 221zM346.5 1681.5q-13.5 15.5 -13.5 33.5q0 20 16.5 37.5t36.5 17.5q18 0 33.5 -17.5t15.5 -35.5q0 -51 -57 -51q-18 0 -31.5 15.5z" />
    <glyph glyph-name="H" unicode="H" horiz-adv-x="669" 
d="M468 -12.5q-6 7.5 -6 24.5q0 13 1 24q1 10 1 23q0 314 -20 712h-13h-39q-18 -1 -39 -1q-118 0 -145 -7q0 -119 18 -370q17 -258 17 -370q0 -31 -21 -31q-32 0 -32 28q0 46 -9 278.5t-14 299.5q-37 493 -37 934q0 21 26 21q12 0 19 -7.5t6 -19.5v-152q0 -70 9 -208
q8 -147 8 -208v-100q0 -53 11 -53q35 0 118 8q82 8 117 8l2 4q0 115 -9 347q-10 221 -10 348q0 25 27 25q15 0 25 -7.5t10 -19.5q0 -365 15 -880q15 -516 15 -589v-29q0 -16 -7.5 -28t-20.5 -12q-17 0 -23 7.5z" />
    <glyph glyph-name="Hbar" unicode="&#x126;" horiz-adv-x="760" 
d="M504 12q0 13 1 24q1 10 1 23q0 305 -20 703l-6 -1q-3 -1 -7 -1q-11 0 -39 5t-39 5q-102 0 -145 -25q0 -118 18 -354q17 -243 17 -354q0 -31 -21 -31q-15 0 -21.5 4.5t-10.5 16.5q-8 24 -13 144q-3 81 -5 253q-1 129 -5 174q-23 325 -32 608h-3q-16 0 -29.5 10t-13.5 25
q0 3 45 4q-4 113 -4 287l33 16l27 -22q-9 -76 -9 -152q0 -52 4 -127q33 2 171 3l77 1q-6 180 -6 269q0 11 4 28q38 0 49 -53q9 -46 9 -113v-131q11 -2 19.5 -13.5t8.5 -25.5h-27q3 -322 16 -688q13 -371 13 -475q9 -18 9 -29q0 -16 -12 -34.5t-25 -18.5q-29 0 -29 45z
M366 813q85 8 120 8l2 4q0 90 -11 387q11 0 -181 -3l-67 -2q11 -192 11 -249q0 -23 -1 -41t-1 -40q0 -38 8 -72q35 0 120 8z" />
    <glyph glyph-name="uni021E" unicode="&#x21e;" horiz-adv-x="669" 
d="M468 -12.5q-6 7.5 -6 24.5q0 13 1 24q1 10 1 23q0 314 -20 712h-13h-39q-18 -1 -39 -1q-118 0 -145 -7q0 -119 18 -370q17 -258 17 -370q0 -31 -21 -31q-32 0 -32 28q0 46 -9 278.5t-14 299.5q-37 493 -37 934q0 21 26 21q12 0 19 -7.5t6 -19.5v-152q0 -70 9 -208
q8 -147 8 -208v-100q0 -53 11 -53q35 0 118 8q82 8 117 8l2 4q0 115 -9 347q-10 221 -10 348q0 25 27 25q15 0 25 -7.5t10 -19.5q0 -365 15 -880q15 -516 15 -589v-29q0 -16 -7.5 -28t-20.5 -12q-17 0 -23 7.5zM306.5 1677q-40.5 72 -76 158t-36.5 116l37 27l35 -47
q2 -21 18 -70q14 -44 36.5 -108t31.5 -88q48 178 59 307l27 16q37 -6 37 -24q0 -5 -8 -23l2 -10l-15 -31l2 -12q-9 -29 -24 -74q-19 -52 -28 -90t-9 -76q0 -43 -29 -43q-19 0 -59.5 72z" />
    <glyph glyph-name="Hcircumflex" unicode="&#x124;" horiz-adv-x="669" 
d="M468 -12.5q-6 7.5 -6 24.5q0 13 1 24q1 10 1 23q0 314 -20 712h-13h-39q-18 -1 -39 -1q-118 0 -145 -7q0 -119 18 -370q17 -258 17 -370q0 -31 -21 -31q-32 0 -32 28q0 46 -9 278.5t-14 299.5q-37 493 -37 934q0 21 26 21q12 0 19 -7.5t6 -19.5v-152q0 -70 9 -208
q8 -147 8 -208v-100q0 -53 11 -53q35 0 118 8q82 8 117 8l2 4q0 115 -9 347q-10 221 -10 348q0 25 27 25q15 0 25 -7.5t10 -19.5q0 -365 15 -880q15 -516 15 -589v-29q0 -16 -7.5 -28t-20.5 -12q-17 0 -23 7.5zM401 1598q-11 129 -59 307q-9 -24 -31.5 -88t-36.5 -108
q-16 -49 -18 -70l-35 -47l-37 26q1 30 36.5 116t76 158t59.5 72q29 0 29 -43q0 -38 9 -76t28 -89q15 -45 24 -74l-2 -13l15 -30l-2 -11q8 -18 8 -22q0 -19 -37 -25z" />
    <glyph glyph-name="I" unicode="I" horiz-adv-x="552" 
d="M292 9q-48 1 -124 1q-15 0 -25.5 10.5t-10.5 23.5q0 26 34 26h80q0 196 -14 593l-9 256l-7 195l1 104q1 58 1 136q0 111 -6 130h-70q-22 0 -22 29q0 21 17 29q16 6 76 6h58q30 -1 78 -1q16 0 26.5 -7.5t10.5 -21.5q0 -13 -7 -23t-18 -10q-15 0 -26 1t-23 1h-22
q-7 0 -14.5 -1.5t-9.5 -3.5q-3 -3 -3 -8q0 -187 26 -644q25 -440 25 -646q0 -31 -1 -57t-1 -56h74q46 0 46 -29q0 -12 -9 -23t-19 -11q-65 0 -112 1z" />
    <glyph glyph-name="IJ" unicode="&#x132;" horiz-adv-x="1027" 
d="M292 9q-48 1 -124 1q-15 0 -25.5 10.5t-10.5 23.5q0 26 34 26h80q0 196 -14 593l-9 256l-7 195l1 104q1 58 1 136q0 111 -6 130h-70q-22 0 -22 29q0 21 17 29q16 6 76 6h58q30 -1 78 -1q16 0 26.5 -7.5t10.5 -21.5q0 -13 -7 -23t-18 -10q-15 0 -26 1t-23 1h-22
q-7 0 -14.5 -1.5t-9.5 -3.5q-3 -3 -3 -8q0 -187 26 -644q25 -440 25 -646q0 -31 -1 -57t-1 -56h74q46 0 46 -29q0 -12 -9 -23t-19 -11q-65 0 -112 1zM622 -160q1 11 13.5 23t35.5 27q18 11 25 18q90 90 90 313q0 116 -10 303q-10 196 -12 277q0 -5 -10 294l-1 24
q-10 229 -10 370l-62 -2l-61 -2q-12 0 -20 9.5t-8 21.5q0 24 18 31q17 7 77 7l78 -1q41 -1 109 -1q14 0 23.5 -9.5t9.5 -22.5q0 -20 -11 -25.5t-45 -5.5h-46q0 -229 23 -691q22 -443 22 -493q0 -89 -2.5 -137t-12.5 -104q-10 -59 -29.5 -100.5t-54.5 -84.5q-34 -43 -86 -78
q-43 0 -43 39z" />
    <glyph glyph-name="Iacute" unicode="&#xcd;" horiz-adv-x="552" 
d="M292 9q-48 1 -124 1q-15 0 -25.5 10.5t-10.5 23.5q0 26 34 26h80q0 196 -14 593l-9 256l-7 195l1 104q1 58 1 136q0 111 -6 130h-70q-22 0 -22 29q0 21 17 29q16 6 76 6h58q30 -1 78 -1q16 0 26.5 -7.5t10.5 -21.5q0 -13 -7 -23t-18 -10q-15 0 -26 1t-23 1h-22
q-7 0 -14.5 -1.5t-9.5 -3.5q-3 -3 -3 -8q0 -187 26 -644q25 -440 25 -646q0 -31 -1 -57t-1 -56h74q46 0 46 -29q0 -12 -9 -23t-19 -11q-65 0 -112 1zM246.5 1647q-10.5 8 -10.5 22q0 8 56 53q45 37 122 96q69 53 76 60q45 0 45 -32l-6 -31q-105 -47 -256 -176q-16 0 -26.5 8
z" />
    <glyph glyph-name="Ibreve" unicode="&#x12c;" horiz-adv-x="552" 
d="M292 9q-48 1 -124 1q-15 0 -25.5 10.5t-10.5 23.5q0 26 34 26h80q0 196 -14 593l-9 256l-7 195l1 104q1 58 1 136q0 111 -6 130h-70q-22 0 -22 29q0 21 17 29q16 6 76 6h58q30 -1 78 -1q16 0 26.5 -7.5t10.5 -21.5q0 -13 -7 -23t-18 -10q-15 0 -26 1t-23 1h-22
q-7 0 -14.5 -1.5t-9.5 -3.5q-3 -3 -3 -8q0 -187 26 -644q25 -440 25 -646q0 -31 -1 -57t-1 -56h74q46 0 46 -29q0 -12 -9 -23t-19 -11q-65 0 -112 1zM201.5 1640.5q-30.5 18.5 -46.5 51.5q-31 63 -31 139l22 18q14 -2 20 -32q8 -47 19 -81.5t33 -50.5l22 -16h51
q17 0 33.5 17.5t26.5 42t10 44.5q0 8 -1 15q-1 6 -1 14q0 39 37 39q12 0 21.5 -8.5t9.5 -20.5q0 -4 -5 -17l-6 -15l5 -15l-6 -12t-10 -23q-9 -21 -15.5 -34t-17.5 -29q-11 -17 -22.5 -24t-32.5 -14q-18 -7 -44 -7q-41 0 -71.5 18.5z" />
    <glyph glyph-name="uni01CF" unicode="&#x1cf;" horiz-adv-x="552" 
d="M292 9q-48 1 -124 1q-15 0 -25.5 10.5t-10.5 23.5q0 26 34 26h80q0 196 -14 593l-9 256l-7 195l1 104q1 58 1 136q0 111 -6 130h-70q-22 0 -22 29q0 21 17 29q16 6 76 6h58q30 -1 78 -1q16 0 26.5 -7.5t10.5 -21.5q0 -13 -7 -23t-18 -10q-15 0 -26 1t-23 1h-22
q-7 0 -14.5 -1.5t-9.5 -3.5q-3 -3 -3 -8q0 -187 26 -644q25 -440 25 -646q0 -31 -1 -57t-1 -56h74q46 0 46 -29q0 -12 -9 -23t-19 -11q-65 0 -112 1zM247.5 1677q-40.5 72 -76 158t-36.5 116l37 27l35 -47q2 -21 18 -70q14 -44 36.5 -108t31.5 -88q48 178 59 307l27 16
q37 -6 37 -24q0 -5 -8 -23l2 -10l-15 -31l2 -12q-9 -29 -24 -74q-19 -52 -28 -90t-9 -76q0 -43 -29 -43q-19 0 -59.5 72z" />
    <glyph glyph-name="Icircumflex" unicode="&#xce;" horiz-adv-x="552" 
d="M292 9q-48 1 -124 1q-15 0 -25.5 10.5t-10.5 23.5q0 26 34 26h80q0 196 -14 593l-9 256l-7 195l1 104q1 58 1 136q0 111 -6 130h-70q-22 0 -22 29q0 21 17 29q16 6 76 6h58q30 -1 78 -1q16 0 26.5 -7.5t10.5 -21.5q0 -13 -7 -23t-18 -10q-15 0 -26 1t-23 1h-22
q-7 0 -14.5 -1.5t-9.5 -3.5q-3 -3 -3 -8q0 -187 26 -644q25 -440 25 -646q0 -31 -1 -57t-1 -56h74q46 0 46 -29q0 -12 -9 -23t-19 -11q-65 0 -112 1zM342 1598q-11 129 -59 307q-9 -24 -31.5 -88t-36.5 -108q-16 -49 -18 -70l-35 -47l-37 26q1 30 36.5 116t76 158t59.5 72
q29 0 29 -43q0 -38 9 -76t28 -89q15 -45 24 -74l-2 -13l15 -30l-2 -11q8 -18 8 -22q0 -19 -37 -25z" />
    <glyph glyph-name="uni0208" unicode="&#x208;" horiz-adv-x="552" 
d="M292 9q-48 1 -124 1q-15 0 -25.5 10.5t-10.5 23.5q0 26 34 26h80q0 196 -14 593l-9 256l-7 195l1 104q1 58 1 136q0 111 -6 130h-70q-22 0 -22 29q0 21 17 29q16 6 76 6h58q30 -1 78 -1q16 0 26.5 -7.5t10.5 -21.5q0 -13 -7 -23t-18 -10q-15 0 -26 1t-23 1h-22
q-7 0 -14.5 -1.5t-9.5 -3.5q-3 -3 -3 -8q0 -187 26 -644q25 -440 25 -646q0 -31 -1 -57t-1 -56h74q46 0 46 -29q0 -12 -9 -23t-19 -11q-65 0 -112 1zM362 1656q-48 36 -71 46q-39 27 -186 145q-13 7 -13 20q0 9 9 20t13 11q11 0 95.5 -63.5t164 -131.5t82.5 -81l-9 -11
q-34 7 -85 45zM146 1639q-39 24 -74 48l-23 15q-24 15 -27 16q-77 41 -110 55l-107 60q3 16 17 33t25 17q10 0 115 -60q34 -21 140 -101q97 -75 97 -90t-11 -15q-8 0 -42 22z" />
    <glyph glyph-name="Idieresis" unicode="&#xcf;" horiz-adv-x="552" 
d="M292 9q-48 1 -124 1q-15 0 -25.5 10.5t-10.5 23.5q0 26 34 26h80q0 196 -14 593l-9 256l-7 195l1 104q1 58 1 136q0 111 -6 130h-70q-22 0 -22 29q0 21 17 29q16 6 76 6h58q30 -1 78 -1q16 0 26.5 -7.5t10.5 -21.5q0 -13 -7 -23t-18 -10q-15 0 -26 1t-23 1h-22
q-7 0 -14.5 -1.5t-9.5 -3.5q-3 -3 -3 -8q0 -187 26 -644q25 -440 25 -646q0 -31 -1 -57t-1 -56h74q46 0 46 -29q0 -12 -9 -23t-19 -11q-65 0 -112 1zM381 1671.5q-13 14.5 -13 30.5q0 19 15.5 35t34.5 16q17 0 31 -16.5t14 -32.5q0 -47 -54 -47q-15 0 -28 14.5zM109.5 1665
q-11.5 16 -11.5 35q0 18 15.5 34.5t33.5 16.5q20 0 30.5 -19.5t10.5 -47.5q0 -16 -15.5 -25.5t-35.5 -9.5q-16 0 -27.5 16z" />
    <glyph glyph-name="Idotaccent" unicode="&#x130;" horiz-adv-x="552" 
d="M292 9q-48 1 -124 1q-15 0 -25.5 10.5t-10.5 23.5q0 26 34 26h80q0 196 -14 593l-9 256l-7 195l1 104q1 58 1 136q0 111 -6 130h-70q-22 0 -22 29q0 21 17 29q16 6 76 6h58q30 -1 78 -1q16 0 26.5 -7.5t10.5 -21.5q0 -13 -7 -23t-18 -10q-15 0 -26 1t-23 1h-22
q-7 0 -14.5 -1.5t-9.5 -3.5q-3 -3 -3 -8q0 -187 26 -644q25 -440 25 -646q0 -31 -1 -57t-1 -56h74q46 0 46 -29q0 -12 -9 -23t-19 -11q-65 0 -112 1zM238.5 1661.5q-13.5 15.5 -13.5 33.5q0 20 16.5 37.5t36.5 17.5q18 0 33.5 -17.5t15.5 -35.5q0 -51 -57 -51
q-18 0 -31.5 15.5z" />
    <glyph glyph-name="uni1ECA" unicode="&#x1eca;" horiz-adv-x="552" 
d="M292 9q-48 1 -124 1q-15 0 -25.5 10.5t-10.5 23.5q0 26 34 26h80q0 196 -14 593l-9 256l-7 195l1 104q1 58 1 136q0 111 -6 130h-70q-22 0 -22 29q0 21 17 29q16 6 76 6h58q30 -1 78 -1q16 0 26.5 -7.5t10.5 -21.5q0 -13 -7 -23t-18 -10q-15 0 -26 1t-23 1h-22
q-7 0 -14.5 -1.5t-9.5 -3.5q-3 -3 -3 -8q0 -187 26 -644q25 -440 25 -646q0 -31 -1 -57t-1 -56h74q46 0 46 -29q0 -12 -9 -23t-19 -11q-65 0 -112 1zM238.5 -224.5q-13.5 15.5 -13.5 33.5q0 20 16.5 37.5t36.5 17.5q18 0 33.5 -17.5t15.5 -35.5q0 -51 -57 -51
q-18 0 -31.5 15.5z" />
    <glyph glyph-name="Igrave" unicode="&#xcc;" horiz-adv-x="552" 
d="M292 9q-48 1 -124 1q-15 0 -25.5 10.5t-10.5 23.5q0 26 34 26h80q0 196 -14 593l-9 256l-7 195l1 104q1 58 1 136q0 111 -6 130h-70q-22 0 -22 29q0 21 17 29q16 6 76 6h58q30 -1 78 -1q16 0 26.5 -7.5t10.5 -21.5q0 -13 -7 -23t-18 -10q-15 0 -26 1t-23 1h-22
q-7 0 -14.5 -1.5t-9.5 -3.5q-3 -3 -3 -8q0 -187 26 -644q25 -440 25 -646q0 -31 -1 -57t-1 -56h74q46 0 46 -29q0 -12 -9 -23t-19 -11q-65 0 -112 1zM256 1636q-90 51 -97 57h-11q-10 0 -22 2q-70 12 -62 52q6 36 20 42l13 -2q60 -10 74 -36l23 -12q21 -11 75 -44
q48 -30 76 -53q34 -28 31 -45q-1 -6 -9.5 -10t-16.5 -3q-4 1 -94 52z" />
    <glyph glyph-name="uni1EC8" unicode="&#x1ec8;" horiz-adv-x="552" 
d="M292 9q-48 1 -124 1q-15 0 -25.5 10.5t-10.5 23.5q0 26 34 26h80q0 196 -14 593l-9 256l-7 195l1 104q1 58 1 136q0 111 -6 130h-70q-22 0 -22 29q0 21 17 29q16 6 76 6h58q30 -1 78 -1q16 0 26.5 -7.5t10.5 -21.5q0 -13 -7 -23t-18 -10q-15 0 -26 1t-23 1h-22
q-7 0 -14.5 -1.5t-9.5 -3.5q-3 -3 -3 -8q0 -187 26 -644q25 -440 25 -646q0 -31 -1 -57t-1 -56h74q46 0 46 -29q0 -12 -9 -23t-19 -11q-65 0 -112 1zM264 1597v11q0 15 11.5 26t35.5 28q21 13 32 24t11 23q0 39 -66 39q-38 0 -56.5 -10t-18.5 -33q0 -13 3 -27q-13 -5 -20 -5
q-29 0 -29 36q0 33 29 55.5t92 22.5q64 0 90 -20t26 -58q0 -19 -13.5 -33t-40.5 -33q-21 -15 -30.5 -24t-9.5 -20v-13q-8 -13 -23 -13q-20 0 -23 24z" />
    <glyph glyph-name="uni020A" unicode="&#x20a;" horiz-adv-x="552" 
d="M292 9q-48 1 -124 1q-15 0 -25.5 10.5t-10.5 23.5q0 26 34 26h80q0 196 -14 593l-9 256l-7 195l1 104q1 58 1 136q0 111 -6 130h-70q-22 0 -22 29q0 21 17 29q16 6 76 6h58q30 -1 78 -1q16 0 26.5 -7.5t10.5 -21.5q0 -13 -7 -23t-18 -10q-15 0 -26 1t-23 1h-22
q-7 0 -14.5 -1.5t-9.5 -3.5q-3 -3 -3 -8q0 -187 26 -644q25 -440 25 -646q0 -31 -1 -57t-1 -56h74q46 0 46 -29q0 -12 -9 -23t-19 -11q-65 0 -112 1zM110 1600q0 76 31 139q16 33 46.5 51.5t71.5 18.5q39 0 75 -20q19 -10 41 -52l6 -12t10 -23t10 -23.5t6 -12.5l-5 -15
l6 -15q5 -13 5 -17q0 -12 -9.5 -20.5t-21.5 -8.5q-37 0 -37 39q0 8 1 15q1 6 1 14q0 20 -10 44.5t-26.5 42t-33.5 17.5h-51l-22 -16q-22 -16 -33 -50.5t-19 -81.5q-6 -30 -20 -32z" />
    <glyph glyph-name="Imacron" unicode="&#x12a;" horiz-adv-x="552" 
d="M292 9q-48 1 -124 1q-15 0 -25.5 10.5t-10.5 23.5q0 26 34 26h80q0 196 -14 593l-9 256l-7 195l1 104q1 58 1 136q0 111 -6 130h-70q-22 0 -22 29q0 21 17 29q16 6 76 6h58q30 -1 78 -1q16 0 26.5 -7.5t10.5 -21.5q0 -13 -7 -23t-18 -10q-15 0 -26 1t-23 1h-22
q-7 0 -14.5 -1.5t-9.5 -3.5q-3 -3 -3 -8q0 -187 26 -644q25 -440 25 -646q0 -31 -1 -57t-1 -56h74q46 0 46 -29q0 -12 -9 -23t-19 -11q-65 0 -112 1zM122 1678q-33 7 -39 15q-5 7 -5 14q2 17 131 17h116q35 0 58 -0.5t46 -3.5q24 -3 34 -10t10 -19q-2 -17 -131 -17h-115h-40
q-46 0 -65 4z" />
    <glyph glyph-name="Iogonek" unicode="&#x12e;" horiz-adv-x="552" 
d="M292 9q-48 1 -124 1q-15 0 -25.5 10.5t-10.5 23.5q0 26 34 26h80q0 196 -14 593l-9 256l-7 195l1 104q1 58 1 136q0 111 -6 130h-70q-22 0 -22 29q0 21 17 29q16 6 76 6h58q30 -1 78 -1q16 0 26.5 -7.5t10.5 -21.5q0 -13 -7 -23t-18 -10q-15 0 -26 1t-23 1h-22
q-7 0 -14.5 -1.5t-9.5 -3.5q-3 -3 -3 -8q0 -187 26 -644q25 -440 25 -646q0 -31 -1 -57t-1 -56h74q46 0 46 -29q0 -12 -9 -23t-19 -11q-65 0 -112 1zM407 -426.5q-36 26.5 -58 65t-22 70.5q0 47 14 97t36 88q45 77 77 109l14 15l59 -8l2 1l1 -1q0 -1 -17 -26
q-24 -32 -42.5 -61.5t-33.5 -67.5q-18 -44 -18 -79q0 -22 -4 -47l-1 -20q-1 -10 -1 -23q0 -27 22.5 -55.5t46.5 -28.5q11 0 33 11q20 10 33 10q22 0 22 -21q0 -25 -28 -40t-60 -15q-39 0 -75 26.5z" />
    <glyph glyph-name="Itilde" unicode="&#x128;" horiz-adv-x="552" 
d="M292 9q-48 1 -124 1q-15 0 -25.5 10.5t-10.5 23.5q0 26 34 26h80q0 196 -14 593l-9 256l-7 195l1 104q1 58 1 136q0 111 -6 130h-70q-22 0 -22 29q0 21 17 29q16 6 76 6h58q30 -1 78 -1q16 0 26.5 -7.5t10.5 -21.5q0 -13 -7 -23t-18 -10q-15 0 -26 1t-23 1h-22
q-7 0 -14.5 -1.5t-9.5 -3.5q-3 -3 -3 -8q0 -187 26 -644q25 -440 25 -646q0 -31 -1 -57t-1 -56h74q46 0 46 -29q0 -12 -9 -23t-19 -11q-65 0 -112 1zM73 1618.5q-13 11.5 -13 23.5q0 64 34.5 103t84.5 39q51 0 87 -42q15 -30 51 -54.5t66 -24.5q53 0 53 73q0 6 -5 21
q-5 10 -7 18q6 12 21 12q23 0 35 -20.5t12 -49.5q0 -28 -15.5 -53t-40.5 -40t-53 -15q-34 0 -71 20t-59 43q-19 19 -52 58l-14 6q-30 0 -53 -16t-23 -39q0 -10 10 -43l-22 -31q-13 0 -26 11.5z" />
    <glyph glyph-name="J" unicode="J" horiz-adv-x="475" 
d="M70 -160q1 11 13.5 23t35.5 27q18 11 25 18q90 90 90 313q0 116 -10 303q-10 196 -12 277q0 -5 -10 294l-1 24q-10 229 -10 370l-62 -2l-61 -2q-12 0 -20 9.5t-8 21.5q0 24 18 31q17 7 77 7l78 -1q41 -1 109 -1q14 0 23.5 -9.5t9.5 -22.5q0 -20 -11 -25.5t-45 -5.5h-46
q0 -229 23 -691q22 -443 22 -493q0 -89 -2.5 -137t-12.5 -104q-10 -59 -29.5 -100.5t-54.5 -84.5q-34 -43 -86 -78q-43 0 -43 39z" />
    <glyph glyph-name="Jcircumflex" unicode="&#x134;" horiz-adv-x="475" 
d="M70 -160q1 11 13.5 23t35.5 27q18 11 25 18q90 90 90 313q0 116 -10 303q-10 196 -12 277q0 -5 -10 294l-1 24q-10 229 -10 370l-62 -2l-61 -2q-12 0 -20 9.5t-8 21.5q0 24 18 31q17 7 77 7l78 -1q41 -1 109 -1q14 0 23.5 -9.5t9.5 -22.5q0 -20 -11 -25.5t-45 -5.5h-46
q0 -229 23 -691q22 -443 22 -493q0 -89 -2.5 -137t-12.5 -104q-10 -59 -29.5 -100.5t-54.5 -84.5q-34 -43 -86 -78q-43 0 -43 39zM304 1598q-11 129 -59 307q-9 -24 -31.5 -88t-36.5 -108q-16 -49 -18 -70l-35 -47l-37 26q1 30 36.5 116t76 158t59.5 72q29 0 29 -43
q0 -38 9 -76t28 -89q15 -45 24 -74l-2 -13l15 -30l-2 -11q8 -18 8 -22q0 -19 -37 -25z" />
    <glyph glyph-name="K" unicode="K" horiz-adv-x="645" 
d="M570 -19l-122 422q-116 400 -144 481l-14 35q-1 -3 -6 -11t-17 -28q-7 -10 -11 -20q-8 -12 -15 -24.5t-15 -24.5l-29 -48v-729q0 -34 -6.5 -47t-26.5 -13q-21 0 -27.5 13.5t-6.5 50.5v619q0 91 5 393q4 241 4 393q0 45 5 73q5 24 22 24q30 0 37 -15q7 -14 7 -72
q0 -102 -3 -341l-4 -248h2q44 95 110 258q64 160 77 191q111 284 145 284q15 0 25 -8t10 -22q-5 -38 -33 -83q-15 -26 -20 -36q-30 -66 -103 -245l-12 -30q-70 -170 -76 -180q-2 -8 -2 -11q0 -8 4 -13q41 -103 91.5 -256.5t83.5 -268.5q35 -122 71 -249.5t51 -182.5
q3 -7 3 -14q0 -14 -10.5 -22t-25.5 -8q-20 0 -24 13z" />
    <glyph glyph-name="uni01E8" unicode="&#x1e8;" horiz-adv-x="645" 
d="M570 -19l-122 422q-116 400 -144 481l-14 35q-1 -3 -6 -11t-17 -28q-7 -10 -11 -20q-8 -12 -15 -24.5t-15 -24.5l-29 -48v-729q0 -34 -6.5 -47t-26.5 -13q-21 0 -27.5 13.5t-6.5 50.5v619q0 91 5 393q4 241 4 393q0 45 5 73q5 24 22 24q30 0 37 -15q7 -14 7 -72
q0 -102 -3 -341l-4 -248h2q44 95 110 258q64 160 77 191q111 284 145 284q15 0 25 -8t10 -22q-5 -38 -33 -83q-15 -26 -20 -36q-30 -66 -103 -245l-12 -30q-70 -170 -76 -180q-2 -8 -2 -11q0 -8 4 -13q41 -103 91.5 -256.5t83.5 -268.5q35 -122 71 -249.5t51 -182.5
q3 -7 3 -14q0 -14 -10.5 -22t-25.5 -8q-20 0 -24 13zM294.5 1677q-40.5 72 -76 158t-36.5 116l37 27l35 -47q2 -21 18 -70q14 -44 36.5 -108t31.5 -88q48 178 59 307l27 16q37 -6 37 -24q0 -5 -8 -23l2 -10l-15 -31l2 -12q-9 -29 -24 -74q-19 -52 -28 -90t-9 -76
q0 -43 -29 -43q-19 0 -59.5 72z" />
    <glyph glyph-name="Kcommaaccent" unicode="&#x136;" horiz-adv-x="645" 
d="M570 -19l-122 422q-116 400 -144 481l-14 35q-1 -3 -6 -11t-17 -28q-7 -10 -11 -20q-8 -12 -15 -24.5t-15 -24.5l-29 -48v-729q0 -34 -6.5 -47t-26.5 -13q-21 0 -27.5 13.5t-6.5 50.5v619q0 91 5 393q4 241 4 393q0 45 5 73q5 24 22 24q30 0 37 -15q7 -14 7 -72
q0 -102 -3 -341l-4 -248h2q44 95 110 258q64 160 77 191q111 284 145 284q15 0 25 -8t10 -22q-5 -38 -33 -83q-15 -26 -20 -36q-30 -66 -103 -245l-12 -30q-70 -170 -76 -180q-2 -8 -2 -11q0 -8 4 -13q41 -103 91.5 -256.5t83.5 -268.5q35 -122 71 -249.5t51 -182.5
q3 -7 3 -14q0 -14 -10.5 -22t-25.5 -8q-20 0 -24 13zM224 -424l4 18q10 8 27 24t30 29q36 39 44 62q6 16 6 35q-26 16 -43 40.5t-17 49.5q0 27 24 45.5t54 18.5q46 0 68 -60l-4 -6q4 -7 4 -25q0 -35 -26 -93.5t-64 -104.5q-40 -48 -74 -49z" />
    <glyph glyph-name="L" unicode="L" horiz-adv-x="505" 
d="M189.5 0.5q-9.5 12.5 -9.5 30.5l1 33v49q0 106 -10 290t-10 291q0 155 -10 428q-11 300 -11 428q0 11 9 17.5t21 6.5q36 0 36 -29q0 -370 8 -568l10 -367q0 -77 11 -280q11 -193 12 -255q0 -4 6 -6q3 -1 28 -1h126q28 0 28 -37q0 -16 -7 -28t-18 -12l-14 -1q-7 -1 -17 -1
q-43 -1 -165 -1q-15 0 -24.5 12.5z" />
    <glyph glyph-name="uni01C7" unicode="&#x1c7;" horiz-adv-x="980" 
d="M189.5 0.5q-9.5 12.5 -9.5 30.5l1 33v49q0 106 -10 290t-10 291q0 155 -10 428q-11 300 -11 428q0 11 9 17.5t21 6.5q36 0 36 -29q0 -370 8 -568l10 -367q0 -77 11 -280q11 -193 12 -255q0 -4 6 -6q3 -1 28 -1h126q28 0 28 -37q0 -16 -7 -28t-18 -12l-14 -1q-7 -1 -17 -1
q-43 -1 -165 -1q-15 0 -24.5 12.5zM575 -160q1 11 13.5 23t35.5 27q18 11 25 18q90 90 90 313q0 116 -10 303q-10 196 -12 277q0 -5 -10 294l-1 24q-10 229 -10 370l-62 -2l-61 -2q-12 0 -20 9.5t-8 21.5q0 24 18 31q17 7 77 7l78 -1q41 -1 109 -1q14 0 23.5 -9.5t9.5 -22.5
q0 -20 -11 -25.5t-45 -5.5h-46q0 -229 23 -691q22 -443 22 -493q0 -89 -2.5 -137t-12.5 -104q-10 -59 -29.5 -100.5t-54.5 -84.5q-34 -43 -86 -78q-43 0 -43 39z" />
    <glyph glyph-name="Lacute" unicode="&#x139;" horiz-adv-x="505" 
d="M189.5 0.5q-9.5 12.5 -9.5 30.5l1 33v49q0 106 -10 290t-10 291q0 155 -10 428q-11 300 -11 428q0 11 9 17.5t21 6.5q36 0 36 -29q0 -370 8 -568l10 -367q0 -77 11 -280q11 -193 12 -255q0 -4 6 -6q3 -1 28 -1h126q28 0 28 -37q0 -16 -7 -28t-18 -12l-14 -1q-7 -1 -17 -1
q-43 -1 -165 -1q-15 0 -24.5 12.5zM143.5 1647q-10.5 8 -10.5 22q0 8 56 53q45 37 122 96q69 53 76 60q45 0 45 -32l-6 -31q-105 -47 -256 -176q-16 0 -26.5 8z" />
    <glyph glyph-name="Lcaron" unicode="&#x13d;" horiz-adv-x="505" 
d="M189.5 0.5q-9.5 12.5 -9.5 30.5l1 33v49q0 106 -10 290t-10 291q0 155 -10 428q-11 300 -11 428q0 11 9 17.5t21 6.5q36 0 36 -29q0 -370 8 -568l10 -367q0 -77 11 -280q11 -193 12 -255q0 -4 6 -6q3 -1 28 -1h126q28 0 28 -37q0 -16 -7 -28t-18 -12l-14 -1q-7 -1 -17 -1
q-43 -1 -165 -1q-15 0 -24.5 12.5zM144.5 1677q-40.5 72 -76 158t-36.5 116l37 27l35 -47q2 -21 18 -70q14 -44 36.5 -108t31.5 -88q48 178 59 307l27 16q37 -6 37 -24q0 -5 -8 -23l2 -10l-15 -31l2 -12q-9 -29 -24 -74q-19 -52 -28 -90t-9 -76q0 -43 -29 -43
q-19 0 -59.5 72z" />
    <glyph glyph-name="Lcommaaccent" unicode="&#x13b;" horiz-adv-x="505" 
d="M189.5 0.5q-9.5 12.5 -9.5 30.5l1 33v49q0 106 -10 290t-10 291q0 155 -10 428q-11 300 -11 428q0 11 9 17.5t21 6.5q36 0 36 -29q0 -370 8 -568l10 -367q0 -77 11 -280q11 -193 12 -255q0 -4 6 -6q3 -1 28 -1h126q28 0 28 -37q0 -16 -7 -28t-18 -12l-14 -1q-7 -1 -17 -1
q-43 -1 -165 -1q-15 0 -24.5 12.5zM154 -424l4 18q10 8 27 24t30 29q36 39 44 62q6 16 6 35q-26 16 -43 40.5t-17 49.5q0 27 24 45.5t54 18.5q46 0 68 -60l-4 -6q4 -7 4 -25q0 -35 -26 -93.5t-64 -104.5q-40 -48 -74 -49z" />
    <glyph glyph-name="Ldot" unicode="&#x13f;" horiz-adv-x="635" 
d="M189.5 0.5q-9.5 12.5 -9.5 30.5l1 33v49q0 106 -10 290t-10 291q0 155 -10 428q-11 300 -11 428q0 11 9 17.5t21 6.5q36 0 36 -29q0 -370 8 -568l10 -367q0 -77 11 -280q11 -193 12 -255q0 -4 6 -6q3 -1 28 -1h126q28 0 28 -37q0 -16 -7 -28t-18 -12l-14 -1q-7 -1 -17 -1
q-43 -1 -165 -1q-15 0 -24.5 12.5zM496.5 711.5q-13.5 15.5 -13.5 33.5q0 21 16.5 38.5t36.5 17.5q18 0 33.5 -17.5t15.5 -35.5q0 -52 -57 -52q-18 0 -31.5 15.5z" />
    <glyph glyph-name="uni01C8" unicode="&#x1c8;" horiz-adv-x="996" 
d="M189.5 0.5q-9.5 12.5 -9.5 30.5l1 33v49q0 106 -10 290t-10 291q0 155 -10 428q-11 300 -11 428q0 11 9 17.5t21 6.5q36 0 36 -29q0 -370 8 -568l10 -367q0 -77 11 -280q11 -193 12 -255q0 -4 6 -6q3 -1 28 -1h126q28 0 28 -37q0 -16 -7 -28t-18 -12l-14 -1q-7 -1 -17 -1
q-43 -1 -165 -1q-15 0 -24.5 12.5zM522 -205l-1 4l-1 4q0 8 34 30l28 19l46 30q41 27 47 34q31 35 48.5 109t17.5 147q0 181 -9 544q-10 346 -10 544l-12 22q-8 4 -49 10q-38 4 -70 16q-30 11 -30 27q0 8 16.5 16.5t26.5 8.5q40 0 124.5 -14.5t151 -34.5t66.5 -37
q0 -12 -10 -19.5t-23 -7.5q-18 0 -56 11q-34 10 -55 10q-18 0 -18 -41q0 -156 10 -426t10 -424v-225q-12 -27 -12 -86q0 -42 -13 -93.5t-37 -102.5q-25 -54 -67.5 -88t-91.5 -34h-14z" />
    <glyph glyph-name="Lslash" unicode="&#x141;" horiz-adv-x="536" 
d="M466 31q0 -16 -7 -28t-18 -12l-14 -1q-7 -1 -17 -1q-43 -1 -165 -1q-15 0 -24.5 12.5t-9.5 30.5l1 33v49q0 106 -10 290t-10 291q0 59 -1 95q-31 -15 -125 -58q-11 -4 -20 -4q-11 0 -22 6t-11 15q0 23 177 111l-1 40l-7 223q-11 300 -11 428q0 11 9 17.5t21 6.5
q36 0 36 -29q0 -370 8 -568l2 -90q27 13 112 52l30 13q9 4 20 4q12 0 23.5 -6t11.5 -14q0 -24 -195 -119l6 -207q0 -77 11 -280q11 -193 12 -255q0 -4 6 -6q3 -1 28 -1h126q28 0 28 -37z" />
    <glyph glyph-name="M" unicode="M" horiz-adv-x="937" 
d="M721 -33.5q-9 13.5 -9 43.5v187q0 128 -7 337q-8 238 -8 336l2 115l2 115q0 35 -3 98l-5 84q-3 -3 -4 -14q-24 -154 -71.5 -410.5t-71.5 -374.5q-23 -106 -37 -187q-4 -26 -17.5 -42t-29.5 -16q-15 0 -27 17t-16 47q-7 54 -55.5 306t-94.5 475t-53 234q-8 -197 -8 -414
q0 -108 3 -326q3 -217 3 -325q0 -25 5 -97t5 -98q0 -37 -16 -53q-58 0 -58 107v342l2 207q1 92 1 208q0 81 3 243t3 243v179q0 11 9.5 19.5t20.5 8.5q15 0 21 -17q18 -58 92 -357.5t111 -469.5q16 -76 60 -341l32 183q11 67 31 180q9 41 88 469l6 33l20 106l21 115l6 33
l4 28q4 21 13.5 32t21.5 11t20 -10.5t8 -27.5v-203q0 -146 17 -464q16 -300 16 -462q0 -44 5 -169t5 -206q0 -45 -7 -58t-23 -13q-27 0 -36 13.5z" />
    <glyph glyph-name="uni1E40" unicode="&#x1e40;" horiz-adv-x="980" 
d="M787 24q0 -45 -7 -58t-23 -13q-27 0 -36 13.5t-9 43.5v187q0 128 -7 337q-8 238 -8 336l2 115l2 115q0 35 -3 98l-5 84q-3 -3 -4 -14q-24 -154 -71.5 -410.5t-71.5 -374.5q-23 -106 -37 -187q-4 -26 -17.5 -42t-29.5 -16q-15 0 -27 17t-16 47q-8 61 -65 357t-99 494h-7
q-22 0 -37 22q-3 -126 -3 -272q0 -108 3 -326q3 -217 3 -325q0 -25 5 -97t5 -98q0 -37 -16 -53q-58 0 -58 107v342l2 207q1 92 1 208q0 81 3 243t3 243v179q0 11 9.5 19.5t20.5 8.5q15 0 21 -17q11 -35 79 -304q16 -18 16 -36q0 -11 -3 -19q68 -272 111 -468q16 -76 60 -341
l32 183q11 67 31 180q9 41 88 469l6 33l20 106l21 115l6 33l4 28q4 21 13.5 32t21.5 11t20 -10.5t8 -27.5v-203q0 -146 17 -464q16 -300 16 -462q0 -44 5 -169t5 -206zM233 1251q-12 55 -17 66l-3 -85q8 12 20 19z" />
    <glyph glyph-name="N" unicode="N" horiz-adv-x="778" 
d="M531 -8.5q-12 14.5 -16 32.5q-2 6 -8 40l-6 30q-226 813 -252 922q-11 48 -84 410q-2 -26 -2 -85v-741q0 -77 5 -292t5 -292l-14 -16h-47l-6 16q4 15 4 82l-2 357q-3 237 -3 356v268q0 108 -1 194l-2 193q0 12 -1 22q-1 9 -1 21q0 25 13 34t42 9q13 0 28 -12.5t19 -26.5
q5 -21 34 -153l10 -47q31 -144 48 -217q6 -27 148 -557q62 -256 106 -389q13 27 13 98q0 145 4 357q4 211 4 356l2 159q1 70 1 158l-2 289q7 28 42 28q16 0 16 -60q0 -25 -1 -42l-2 -33v-131l-2 -486q-3 -321 -3 -483q0 -39 -5 -161t-5 -162q0 -60 -52 -60q-15 0 -27 14.5z
" />
    <glyph glyph-name="uni01CA" unicode="&#x1ca;" horiz-adv-x="1253" 
d="M531 -8.5q-12 14.5 -16 32.5q-2 6 -8 40l-6 30q-226 813 -252 922q-11 48 -84 410q-2 -26 -2 -85v-741q0 -77 5 -292t5 -292l-14 -16h-47l-6 16q4 15 4 82l-2 357q-3 237 -3 356v268q0 108 -1 194l-2 193q0 12 -1 22q-1 9 -1 21q0 25 13 34t42 9q13 0 28 -12.5t19 -26.5
q5 -21 34 -153l10 -47q31 -144 48 -217q6 -27 148 -557q62 -256 106 -389q13 27 13 98q0 145 4 357q4 211 4 356l2 159q1 70 1 158l-2 289q7 28 42 28q16 0 16 -60q0 -25 -1 -42l-2 -33v-131l-2 -486q-3 -321 -3 -483q0 -39 -5 -161t-5 -162q0 -60 -52 -60q-15 0 -27 14.5z
M848 -160q1 11 13.5 23t35.5 27q18 11 25 18q90 90 90 313q0 116 -10 303q-10 196 -12 277q0 -5 -10 294l-1 24q-10 229 -10 370l-62 -2l-61 -2q-12 0 -20 9.5t-8 21.5q0 24 18 31q17 7 77 7l78 -1q41 -1 109 -1q14 0 23.5 -9.5t9.5 -22.5q0 -20 -11 -25.5t-45 -5.5h-46
q0 -229 23 -691q22 -443 22 -493q0 -89 -2.5 -137t-12.5 -104q-10 -59 -29.5 -100.5t-54.5 -84.5q-34 -43 -86 -78q-43 0 -43 39z" />
    <glyph glyph-name="Nacute" unicode="&#x143;" horiz-adv-x="778" 
d="M531 -8.5q-12 14.5 -16 32.5q-2 6 -8 40l-6 30q-226 813 -252 922q-11 48 -84 410q-2 -26 -2 -85v-741q0 -77 5 -292t5 -292l-14 -16h-47l-6 16q4 15 4 82l-2 357q-3 237 -3 356v268q0 108 -1 194l-2 193q0 12 -1 22q-1 9 -1 21q0 25 13 34t42 9q13 0 28 -12.5t19 -26.5
q5 -21 34 -153l10 -47q31 -144 48 -217q6 -27 148 -557q62 -256 106 -389q13 27 13 98q0 145 4 357q4 211 4 356l2 159q1 70 1 158l-2 289q7 28 42 28q16 0 16 -60q0 -25 -1 -42l-2 -33v-131l-2 -486q-3 -321 -3 -483q0 -39 -5 -161t-5 -162q0 -60 -52 -60q-15 0 -27 14.5z
M359.5 1647q-10.5 8 -10.5 22q0 8 56 53q45 37 122 96q69 53 76 60q45 0 45 -32l-6 -31q-105 -47 -256 -176q-16 0 -26.5 8z" />
    <glyph glyph-name="Ncaron" unicode="&#x147;" horiz-adv-x="778" 
d="M531 -8.5q-12 14.5 -16 32.5q-2 6 -8 40l-6 30q-226 813 -252 922q-11 48 -84 410q-2 -26 -2 -85v-741q0 -77 5 -292t5 -292l-14 -16h-47l-6 16q4 15 4 82l-2 357q-3 237 -3 356v268q0 108 -1 194l-2 193q0 12 -1 22q-1 9 -1 21q0 25 13 34t42 9q13 0 28 -12.5t19 -26.5
q5 -21 34 -153l10 -47q31 -144 48 -217q6 -27 148 -557q62 -256 106 -389q13 27 13 98q0 145 4 357q4 211 4 356l2 159q1 70 1 158l-2 289q7 28 42 28q16 0 16 -60q0 -25 -1 -42l-2 -33v-131l-2 -486q-3 -321 -3 -483q0 -39 -5 -161t-5 -162q0 -60 -52 -60q-15 0 -27 14.5z
M360.5 1677q-40.5 72 -76 158t-36.5 116l37 27l35 -47q2 -21 18 -70q14 -44 36.5 -108t31.5 -88q48 178 59 307l27 16q37 -6 37 -24q0 -5 -8 -23l2 -10l-15 -31l2 -12q-9 -29 -24 -74q-19 -52 -28 -90t-9 -76q0 -43 -29 -43q-19 0 -59.5 72z" />
    <glyph glyph-name="Ncommaaccent" unicode="&#x145;" horiz-adv-x="778" 
d="M531 -8.5q-12 14.5 -16 32.5q-2 6 -8 40l-6 30q-226 813 -252 922q-11 48 -84 410q-2 -26 -2 -85v-741q0 -77 5 -292t5 -292l-14 -16h-47l-6 16q4 15 4 82l-2 357q-3 237 -3 356v268q0 108 -1 194l-2 193q0 12 -1 22q-1 9 -1 21q0 25 13 34t42 9q13 0 28 -12.5t19 -26.5
q5 -21 34 -153l10 -47q31 -144 48 -217q6 -27 148 -557q62 -256 106 -389q13 27 13 98q0 145 4 357q4 211 4 356l2 159q1 70 1 158l-2 289q7 28 42 28q16 0 16 -60q0 -25 -1 -42l-2 -33v-131l-2 -486q-3 -321 -3 -483q0 -39 -5 -161t-5 -162q0 -60 -52 -60q-15 0 -27 14.5z
M290 -424l4 18q10 8 27 24t30 29q36 39 44 62q6 16 6 35q-26 16 -43 40.5t-17 49.5q0 27 24 45.5t54 18.5q46 0 68 -60l-4 -6q4 -7 4 -25q0 -35 -26 -93.5t-64 -104.5q-40 -48 -74 -49z" />
    <glyph glyph-name="uni1E46" unicode="&#x1e46;" horiz-adv-x="778" 
d="M531 -8.5q-12 14.5 -16 32.5q-2 6 -8 40l-6 30q-226 813 -252 922q-11 48 -84 410q-2 -26 -2 -85v-741q0 -77 5 -292t5 -292l-14 -16h-47l-6 16q4 15 4 82l-2 357q-3 237 -3 356v268q0 108 -1 194l-2 193q0 12 -1 22q-1 9 -1 21q0 25 13 34t42 9q13 0 28 -12.5t19 -26.5
q5 -21 34 -153l10 -47q31 -144 48 -217q6 -27 148 -557q62 -256 106 -389q13 27 13 98q0 145 4 357q4 211 4 356l2 159q1 70 1 158l-2 289q7 28 42 28q16 0 16 -60q0 -25 -1 -42l-2 -33v-131l-2 -486q-3 -321 -3 -483q0 -39 -5 -161t-5 -162q0 -60 -52 -60q-15 0 -27 14.5z
M351.5 -224.5q-13.5 15.5 -13.5 33.5q0 20 16.5 37.5t36.5 17.5q18 0 33.5 -17.5t15.5 -35.5q0 -51 -57 -51q-18 0 -31.5 15.5z" />
    <glyph glyph-name="uni01F8" unicode="&#x1f8;" horiz-adv-x="778" 
d="M531 -8.5q-12 14.5 -16 32.5q-2 6 -8 40l-6 30q-226 813 -252 922q-11 48 -84 410q-2 -26 -2 -85v-741q0 -77 5 -292t5 -292l-14 -16h-47l-6 16q4 15 4 82l-2 357q-3 237 -3 356v268q0 108 -1 194l-2 193q0 12 -1 22q-1 9 -1 21q0 25 13 34t42 9q13 0 28 -12.5t19 -26.5
q5 -21 34 -153l10 -47q31 -144 48 -217q6 -27 148 -557q62 -256 106 -389q13 27 13 98q0 145 4 357q4 211 4 356l2 159q1 70 1 158l-2 289q7 28 42 28q16 0 16 -60q0 -25 -1 -42l-2 -33v-131l-2 -486q-3 -321 -3 -483q0 -39 -5 -161t-5 -162q0 -60 -52 -60q-15 0 -27 14.5z
M369 1636q-90 51 -97 57h-11q-10 0 -22 2q-70 12 -62 52q6 36 20 42l13 -2q60 -10 74 -36l23 -12q21 -11 75 -44q48 -30 76 -53q34 -28 31 -45q-1 -6 -9.5 -10t-16.5 -3q-4 1 -94 52z" />
    <glyph glyph-name="Eng" unicode="&#x14a;" horiz-adv-x="920" 
d="M474 -428q1 11 13.5 23t35.5 27q18 11 25 18q90 90 90 313v18q-11 15 -22 52q-24 74 -39 124q-60 187 -86 275t-69 247q-55 202 -81 347l-3 29q-2 40 -19 57l4 10l-22 120q-5 16 -12 52q-16 69 -36 117q-1 -6 -2.5 -16.5t-2.5 -24.5q-1 -7 -1 -19q0 -27 4 -38
q-14 -50 -14 -142v-561q0 -91 14 -292t14 -292l-14 -16h-47l-6 16q4 15 4 82q0 107 -11 357q-12 237 -12 356v268q0 56 8 194q7 120 7 193q0 12 -1 22q-1 9 -1 21q0 25 13 34t42 9q15 0 31 -12.5t16 -26.5q0 -38 8 -69.5t27 -73.5q19 -44 27.5 -76.5t16.5 -99.5
q6 -59 13 -98q28 -135 100 -383l9 -31q27 -93 36 -129.5t26 -117.5q19 -95 28 -122l59 -198q9 104 9 133q0 145 4 357q4 211 4 356q0 53 -3 159q-3 105 -3 158q0 15 3 40q3 26 3 38q0 22 -6 26l6 17v47q0 79 -8 121q7 28 51 28q33 0 33 -67q-13 -25 -13 -68q0 -20 1 -35
t1 -34q0 -43 -8 -62q0 -107 -3 -323t-3 -324q0 -23 4 -55l-4 -9v-258q0 -39 -5 -161t-5 -162q0 -18 -5 -76q-6 -53 -6 -92q0 -103 -47.5 -191t-126.5 -145q-43 0 -43 39z" />
    <glyph glyph-name="uni019D" unicode="&#x19d;" horiz-adv-x="778" 
d="M108 455q-3 237 -3 356v268q0 108 -1 194l-2 193q0 12 -1 22q-1 9 -1 21q0 25 13 34t42 9q13 0 28 -12.5t19 -26.5q5 -21 34 -153l10 -47q31 -144 48 -217q6 -27 148 -557q62 -256 106 -389q13 27 13 98q0 145 4 357q4 211 4 356l2 159q1 70 1 158l-2 289q7 28 42 28
q16 0 16 -60q0 -25 -1 -42l-2 -33v-131l-2 -486q-3 -321 -3 -483q0 -39 -5 -161t-5 -162q0 -60 -52 -60q-15 0 -27 14.5t-16 32.5q-2 6 -8 40l-6 30q-226 813 -252 922q-11 48 -84 410q-2 -26 -2 -85v-741q0 -77 5 -292q2 -110 2 -170l-1 -177q-6 -53 -6 -92
q0 -103 -47.5 -191t-126.5 -145q-43 0 -43 39q1 21 49 50q18 11 25 18q90 90 90 313v18z" />
    <glyph glyph-name="uni01CB" unicode="&#x1cb;" horiz-adv-x="1269" 
d="M531 -8.5q-12 14.5 -16 32.5q-2 6 -8 40l-6 30q-226 813 -252 922q-11 48 -84 410q-2 -26 -2 -85v-741q0 -77 5 -292t5 -292l-14 -16h-47l-6 16q4 15 4 82l-2 357q-3 237 -3 356v268q0 108 -1 194l-2 193q0 12 -1 22q-1 9 -1 21q0 25 13 34t42 9q13 0 28 -12.5t19 -26.5
q5 -21 34 -153l10 -47q31 -144 48 -217q6 -27 148 -557q62 -256 106 -389q13 27 13 98q0 145 4 357q4 211 4 356l2 159q1 70 1 158l-2 289q7 28 42 28q16 0 16 -60q0 -25 -1 -42l-2 -33v-131l-2 -486q-3 -321 -3 -483q0 -39 -5 -161t-5 -162q0 -60 -52 -60q-15 0 -27 14.5z
M795 -205l-1 4l-1 4q0 8 34 30l28 19l46 30q41 27 47 34q31 35 48.5 109t17.5 147q0 181 -9 544q-10 346 -10 544l-12 22q-8 4 -49 10q-38 4 -70 16q-30 11 -30 27q0 8 16.5 16.5t26.5 8.5q40 0 124.5 -14.5t151 -34.5t66.5 -37q0 -12 -10 -19.5t-23 -7.5q-18 0 -56 11
q-34 10 -55 10q-18 0 -18 -41q0 -156 10 -426t10 -424v-225q-12 -27 -12 -86q0 -42 -13 -93.5t-37 -102.5q-25 -54 -67.5 -88t-91.5 -34h-14z" />
    <glyph glyph-name="Ntilde" unicode="&#xd1;" horiz-adv-x="778" 
d="M531 -8.5q-12 14.5 -16 32.5q-2 6 -8 40l-6 30q-226 813 -252 922q-11 48 -84 410q-2 -26 -2 -85v-741q0 -77 5 -292t5 -292l-14 -16h-47l-6 16q4 15 4 82l-2 357q-3 237 -3 356v268q0 108 -1 194l-2 193q0 12 -1 22q-1 9 -1 21q0 25 13 34t42 9q13 0 28 -12.5t19 -26.5
q5 -21 34 -153l10 -47q31 -144 48 -217q6 -27 148 -557q62 -256 106 -389q13 27 13 98q0 145 4 357q4 211 4 356l2 159q1 70 1 158l-2 289q7 28 42 28q16 0 16 -60q0 -25 -1 -42l-2 -33v-131l-2 -486q-3 -321 -3 -483q0 -39 -5 -161t-5 -162q0 -60 -52 -60q-15 0 -27 14.5z
M186 1618.5q-13 11.5 -13 23.5q0 64 34.5 103t84.5 39q51 0 87 -42q15 -30 51 -54.5t66 -24.5q53 0 53 73q0 6 -5 21q-5 10 -7 18q6 12 21 12q23 0 35 -20.5t12 -49.5q0 -28 -15.5 -53t-40.5 -40t-53 -15q-34 0 -71 20t-59 43q-19 19 -52 58l-14 6q-30 0 -53 -16t-23 -39
q0 -10 10 -43l-22 -31q-13 0 -26 11.5z" />
    <glyph glyph-name="O" unicode="O" horiz-adv-x="755" 
d="M125 942v83q0 93 4 159t16 139q12 80 33.5 130.5t58.5 83.5q37 34 90 34q50 0 91 -19t67 -51q23 -28 41.5 -74t28.5 -91q11 -58 16 -97q49 -346 49 -621v-6q0 -102 -3 -189q-3 -60 -7.5 -103t-15.5 -112q-9 -56 -24 -95.5t-39 -81.5q-44 -74 -122 -74q-284 0 -284 985z
M473 52q27 38 42 105q33 144 39 282q6 131 6 214v9q0 100 -3 205q-5 112 -22 260l-3 27q-9 74 -25.5 133t-41.5 121q-22 53 -55 81.5t-73 28.5q-35 0 -62 -32.5t-42 -92.5q-17 -65 -27 -124.5t-14 -129.5q-6 -121 -6 -208v-100q0 -139 27 -347q18 -136 42 -233.5t64 -164.5
q42 -72 94 -72q33 0 60 38z" />
    <glyph glyph-name="Oacute" unicode="&#xd3;" horiz-adv-x="755" 
d="M125 942v83q0 93 4 159t16 139q12 80 33.5 130.5t58.5 83.5q37 34 90 34q50 0 91 -19t67 -51q23 -28 41.5 -74t28.5 -91q11 -58 16 -97q49 -346 49 -621v-6q0 -102 -3 -189q-3 -60 -7.5 -103t-15.5 -112q-9 -56 -24 -95.5t-39 -81.5q-44 -74 -122 -74q-284 0 -284 985z
M473 52q27 38 42 105q33 144 39 282q6 131 6 214v9q0 100 -3 205q-5 112 -22 260l-3 27q-9 74 -25.5 133t-41.5 121q-22 53 -55 81.5t-73 28.5q-35 0 -62 -32.5t-42 -92.5q-17 -65 -27 -124.5t-14 -129.5q-6 -121 -6 -208v-100q0 -139 27 -347q18 -136 42 -233.5t64 -164.5
q42 -72 94 -72q33 0 60 38zM298.5 1677q-10.5 8 -10.5 22q0 8 56 53q45 37 122 96q69 53 76 60q45 0 45 -32l-6 -31q-105 -47 -256 -176q-16 0 -26.5 8z" />
    <glyph glyph-name="Obreve" unicode="&#x14e;" horiz-adv-x="755" 
d="M125 942v83q0 93 4 159t16 139q12 80 33.5 130.5t58.5 83.5q37 34 90 34q50 0 91 -19t67 -51q23 -28 41.5 -74t28.5 -91q11 -58 16 -97q49 -346 49 -621v-6q0 -102 -3 -189q-3 -60 -7.5 -103t-15.5 -112q-9 -56 -24 -95.5t-39 -81.5q-44 -74 -122 -74q-284 0 -284 985z
M473 52q27 38 42 105q33 144 39 282q6 131 6 214v9q0 100 -3 205q-5 112 -22 260l-3 27q-9 74 -25.5 133t-41.5 121q-22 53 -55 81.5t-73 28.5q-35 0 -62 -32.5t-42 -92.5q-17 -65 -27 -124.5t-14 -129.5q-6 -121 -6 -208v-100q0 -139 27 -347q18 -136 42 -233.5t64 -164.5
q42 -72 94 -72q33 0 60 38zM253.5 1670.5q-30.5 18.5 -46.5 51.5q-31 63 -31 139l22 18q14 -2 20 -32q8 -47 19 -81.5t33 -50.5l22 -16h51q17 0 33.5 17.5t26.5 42t10 44.5q0 8 -1 15q-1 6 -1 14q0 39 37 39q12 0 21.5 -8.5t9.5 -20.5q0 -4 -5 -17l-6 -15l5 -15l-6 -12
t-10 -23q-9 -21 -15.5 -34t-17.5 -29q-11 -17 -22.5 -24t-32.5 -14q-18 -7 -44 -7q-41 0 -71.5 18.5z" />
    <glyph glyph-name="uni01D1" unicode="&#x1d1;" horiz-adv-x="755" 
d="M125 942v83q0 93 4 159t16 139q12 80 33.5 130.5t58.5 83.5q37 34 90 34q50 0 91 -19t67 -51q23 -28 41.5 -74t28.5 -91q11 -58 16 -97q49 -346 49 -621v-6q0 -102 -3 -189q-3 -60 -7.5 -103t-15.5 -112q-9 -56 -24 -95.5t-39 -81.5q-44 -74 -122 -74q-284 0 -284 985z
M473 52q27 38 42 105q33 144 39 282q6 131 6 214v9q0 100 -3 205q-5 112 -22 260l-3 27q-9 74 -25.5 133t-41.5 121q-22 53 -55 81.5t-73 28.5q-35 0 -62 -32.5t-42 -92.5q-17 -65 -27 -124.5t-14 -129.5q-6 -121 -6 -208v-100q0 -139 27 -347q18 -136 42 -233.5t64 -164.5
q42 -72 94 -72q33 0 60 38zM299.5 1707q-40.5 72 -76 158t-36.5 116l37 27l35 -47q2 -21 18 -70q14 -44 36.5 -108t31.5 -88q48 178 59 307l27 16q37 -6 37 -24q0 -5 -8 -23l2 -10l-15 -31l2 -12q-9 -29 -24 -74q-19 -52 -28 -90t-9 -76q0 -43 -29 -43q-19 0 -59.5 72z" />
    <glyph glyph-name="Ocircumflex" unicode="&#xd4;" horiz-adv-x="755" 
d="M125 942v83q0 93 4 159t16 139q12 80 33.5 130.5t58.5 83.5q37 34 90 34q50 0 91 -19t67 -51q23 -28 41.5 -74t28.5 -91q11 -58 16 -97q49 -346 49 -621v-6q0 -102 -3 -189q-3 -60 -7.5 -103t-15.5 -112q-9 -56 -24 -95.5t-39 -81.5q-44 -74 -122 -74q-284 0 -284 985z
M473 52q27 38 42 105q33 144 39 282q6 131 6 214v9q0 100 -3 205q-5 112 -22 260l-3 27q-9 74 -25.5 133t-41.5 121q-22 53 -55 81.5t-73 28.5q-35 0 -62 -32.5t-42 -92.5q-17 -65 -27 -124.5t-14 -129.5q-6 -121 -6 -208v-100q0 -139 27 -347q18 -136 42 -233.5t64 -164.5
q42 -72 94 -72q33 0 60 38zM394 1628q-11 129 -59 307q-9 -24 -31.5 -88t-36.5 -108q-16 -49 -18 -70l-35 -47l-37 26q1 30 36.5 116t76 158t59.5 72q29 0 29 -43q0 -38 9 -76t28 -89q15 -45 24 -74l-2 -13l15 -30l-2 -11q8 -18 8 -22q0 -19 -37 -25z" />
    <glyph glyph-name="uni1ED0" unicode="&#x1ed0;" horiz-adv-x="755" 
d="M125 942v83q0 93 4 159t16 139q12 80 33.5 130.5t58.5 83.5q37 34 90 34q50 0 91 -19t67 -51q23 -28 41.5 -74t28.5 -91q11 -58 16 -97q49 -346 49 -621v-6q0 -102 -3 -189q-3 -60 -7.5 -103t-15.5 -112q-9 -56 -24 -95.5t-39 -81.5q-44 -74 -122 -74q-284 0 -284 985z
M473 52q27 38 42 105q33 144 39 282q6 131 6 214v9q0 100 -3 205q-5 112 -22 260l-3 27q-9 74 -25.5 133t-41.5 121q-22 53 -55 81.5t-73 28.5q-35 0 -62 -32.5t-42 -92.5q-17 -65 -27 -124.5t-14 -129.5q-6 -121 -6 -208v-100q0 -139 27 -347q18 -136 42 -233.5t64 -164.5
q42 -72 94 -72q33 0 60 38zM404 1617q-11 129 -59 307q-9 -24 -31.5 -88t-36.5 -108q-16 -49 -18 -70l-35 -47l-37 26q1 30 36.5 116t76 158t59.5 72q29 0 29 -43q0 -38 9 -76t28 -89q15 -45 24 -74l-2 -13l15 -30l-2 -11q8 -18 8 -22q0 -19 -37 -25zM444.5 1834
q-10.5 8 -10.5 22q0 8 56 53q45 37 122 96q69 53 76 60q45 0 45 -32l-6 -31q-105 -47 -256 -176q-16 0 -26.5 8z" />
    <glyph glyph-name="uni1ED8" unicode="&#x1ed8;" horiz-adv-x="755" 
d="M125 942v83q0 93 4 159t16 139q12 80 33.5 130.5t58.5 83.5q37 34 90 34q50 0 91 -19t67 -51q23 -28 41.5 -74t28.5 -91q11 -58 16 -97q49 -346 49 -621v-6q0 -102 -3 -189q-3 -60 -7.5 -103t-15.5 -112q-9 -56 -24 -95.5t-39 -81.5q-44 -74 -122 -74q-284 0 -284 985z
M473 52q27 38 42 105q33 144 39 282q6 131 6 214v9q0 100 -3 205q-5 112 -22 260l-3 27q-9 74 -25.5 133t-41.5 121q-22 53 -55 81.5t-73 28.5q-35 0 -62 -32.5t-42 -92.5q-17 -65 -27 -124.5t-14 -129.5q-6 -121 -6 -208v-100q0 -139 27 -347q18 -136 42 -233.5t64 -164.5
q42 -72 94 -72q33 0 60 38zM340.5 -224.5q-13.5 15.5 -13.5 33.5q0 20 16.5 37.5t36.5 17.5q18 0 33.5 -17.5t15.5 -35.5q0 -51 -57 -51q-18 0 -31.5 15.5zM394 1628q-11 129 -59 307q-9 -24 -31.5 -88t-36.5 -108q-16 -49 -18 -70l-35 -47l-37 26q1 30 36.5 116t76 158
t59.5 72q29 0 29 -43q0 -38 9 -76t28 -89q15 -45 24 -74l-2 -13l15 -30l-2 -11q8 -18 8 -22q0 -19 -37 -25z" />
    <glyph glyph-name="uni1ED2" unicode="&#x1ed2;" horiz-adv-x="755" 
d="M102 1925q-57 67 -62 75q-13 4 -31 13q-45 27 -45 53q0 8 5 18q18 31 34 32l11 -6q52 -31 57 -60l18 -19q16 -19 55 -67q36 -45 53 -76q16 -25 16 -43q0 -7 -2 -10q-3 -6 -14 -6q-9 0 -15 3q-23 26 -80 93zM392 1620q-11 129 -59 307q-9 -24 -31.5 -88t-36.5 -108
q-16 -49 -18 -70l-35 -47l-37 26q1 30 36.5 116t76 158t59.5 72q29 0 29 -43q0 -38 9 -76t28 -89q15 -45 24 -74l-2 -13l15 -30l-2 -11q8 -18 8 -22q0 -19 -37 -25zM125 942v83q0 93 4 159t16 139q12 80 33.5 130.5t58.5 83.5q37 34 90 34q50 0 91 -19t67 -51
q23 -28 41.5 -74t28.5 -91q11 -58 16 -97q49 -346 49 -621v-6q0 -102 -3 -189q-3 -60 -7.5 -103t-15.5 -112q-9 -56 -24 -95.5t-39 -81.5q-44 -74 -122 -74q-284 0 -284 985zM473 52q27 38 42 105q33 144 39 282q6 131 6 214v9q0 100 -3 205q-5 112 -22 260l-3 27
q-9 74 -25.5 133t-41.5 121q-22 53 -55 81.5t-73 28.5q-35 0 -62 -32.5t-42 -92.5q-17 -65 -27 -124.5t-14 -129.5q-6 -121 -6 -208v-100q0 -139 27 -347q18 -136 42 -233.5t64 -164.5q42 -72 94 -72q33 0 60 38z" />
    <glyph glyph-name="uni1ED4" unicode="&#x1ed4;" horiz-adv-x="755" 
d="M125 942v83q0 93 4 159t16 139q12 80 33.5 130.5t58.5 83.5q37 34 90 34q50 0 91 -19t67 -51q23 -28 41.5 -74t28.5 -91q11 -58 16 -97q49 -346 49 -621v-6q0 -102 -3 -189q-3 -60 -7.5 -103t-15.5 -112q-9 -56 -24 -95.5t-39 -81.5q-44 -74 -122 -74q-284 0 -284 985z
M473 52q27 38 42 105q33 144 39 282q6 131 6 214v9q0 100 -3 205q-5 112 -22 260l-3 27q-9 74 -25.5 133t-41.5 121q-22 53 -55 81.5t-73 28.5q-35 0 -62 -32.5t-42 -92.5q-17 -65 -27 -124.5t-14 -129.5q-6 -121 -6 -208v-100q0 -139 27 -347q18 -136 42 -233.5t64 -164.5
q42 -72 94 -72q33 0 60 38zM408 1624q-11 129 -59 307q-9 -24 -31.5 -88t-36.5 -108q-16 -49 -18 -70l-35 -47l-37 26q1 30 36.5 116t76 158t59.5 72q29 0 29 -43q0 -38 9 -76t28 -89q15 -45 24 -74l-2 -13l15 -30l-2 -11q8 -18 8 -22q0 -19 -37 -25zM549 1841v11
q0 15 11.5 26t35.5 28q21 13 32 24t11 23q0 39 -66 39q-38 0 -56.5 -10t-18.5 -33q0 -13 3 -27q-13 -5 -20 -5q-29 0 -29 36q0 33 29 55.5t92 22.5q64 0 90 -20t26 -58q0 -19 -13.5 -33t-40.5 -33q-21 -15 -30.5 -24t-9.5 -20v-13q-8 -13 -23 -13q-20 0 -23 24z" />
    <glyph glyph-name="uni1ED6" unicode="&#x1ed6;" horiz-adv-x="755" 
d="M125 942v83q0 93 4 159t16 139q12 80 33.5 130.5t58.5 83.5q37 34 90 34q50 0 91 -19t67 -51q23 -28 41.5 -74t28.5 -91q11 -58 16 -97q49 -346 49 -621v-6q0 -102 -3 -189q-3 -60 -7.5 -103t-15.5 -112q-9 -56 -24 -95.5t-39 -81.5q-44 -74 -122 -74q-284 0 -284 985z
M473 52q27 38 42 105q33 144 39 282q6 131 6 214v9q0 100 -3 205q-5 112 -22 260l-3 27q-9 74 -25.5 133t-41.5 121q-22 53 -55 81.5t-73 28.5q-35 0 -62 -32.5t-42 -92.5q-17 -65 -27 -124.5t-14 -129.5q-6 -121 -6 -208v-100q0 -139 27 -347q18 -136 42 -233.5t64 -164.5
q42 -72 94 -72q33 0 60 38zM394 1628q-11 129 -59 307q-9 -24 -31.5 -88t-36.5 -108q-16 -49 -18 -70l-35 -47l-37 26q1 30 36.5 116t76 158t59.5 72q29 0 29 -43q0 -38 9 -76t28 -89q15 -45 24 -74l-2 -13l15 -30l-2 -11q8 -18 8 -22q0 -19 -37 -25zM115 2068.5
q-13 11.5 -13 23.5q0 64 34.5 103t84.5 39q51 0 87 -42q15 -30 51 -54.5t66 -24.5q53 0 53 73q0 6 -5 21q-5 10 -7 18q6 12 21 12q23 0 35 -20.5t12 -49.5q0 -28 -15.5 -53t-40.5 -40t-53 -15q-34 0 -71 20t-59 43q-19 19 -52 58l-14 6q-30 0 -53 -16t-23 -39q0 -10 10 -43
l-22 -31q-13 0 -26 11.5z" />
    <glyph glyph-name="uni020C" unicode="&#x20c;" horiz-adv-x="755" 
d="M125 942v83q0 93 4 159t16 139q12 80 33.5 130.5t58.5 83.5q37 34 90 34q50 0 91 -19t67 -51q23 -28 41.5 -74t28.5 -91q11 -58 16 -97q49 -346 49 -621v-6q0 -102 -3 -189q-3 -60 -7.5 -103t-15.5 -112q-9 -56 -24 -95.5t-39 -81.5q-44 -74 -122 -74q-284 0 -284 985z
M473 52q27 38 42 105q33 144 39 282q6 131 6 214v9q0 100 -3 205q-5 112 -22 260l-3 27q-9 74 -25.5 133t-41.5 121q-22 53 -55 81.5t-73 28.5q-35 0 -62 -32.5t-42 -92.5q-17 -65 -27 -124.5t-14 -129.5q-6 -121 -6 -208v-100q0 -139 27 -347q18 -136 42 -233.5t64 -164.5
q42 -72 94 -72q33 0 60 38zM414 1686q-48 36 -71 46q-39 27 -186 145q-13 7 -13 20q0 9 9 20t13 11q11 0 95.5 -63.5t164 -131.5t82.5 -81l-9 -11q-34 7 -85 45zM198 1669q-39 24 -74 48l-23 15q-24 15 -27 16q-77 41 -110 55l-107 60q3 16 17 33t25 17q10 0 115 -60
q34 -21 140 -101q97 -75 97 -90t-11 -15q-8 0 -42 22z" />
    <glyph glyph-name="Odieresis" unicode="&#xd6;" horiz-adv-x="755" 
d="M125 942v83q0 93 4 159t16 139q12 80 33.5 130.5t58.5 83.5q37 34 90 34q50 0 91 -19t67 -51q23 -28 41.5 -74t28.5 -91q11 -58 16 -97q49 -346 49 -621v-6q0 -102 -3 -189q-3 -60 -7.5 -103t-15.5 -112q-9 -56 -24 -95.5t-39 -81.5q-44 -74 -122 -74q-284 0 -284 985z
M473 52q27 38 42 105q33 144 39 282q6 131 6 214v9q0 100 -3 205q-5 112 -22 260l-3 27q-9 74 -25.5 133t-41.5 121q-22 53 -55 81.5t-73 28.5q-35 0 -62 -32.5t-42 -92.5q-17 -65 -27 -124.5t-14 -129.5q-6 -121 -6 -208v-100q0 -139 27 -347q18 -136 42 -233.5t64 -164.5
q42 -72 94 -72q33 0 60 38zM433 1701.5q-13 14.5 -13 30.5q0 19 15.5 35t34.5 16q17 0 31 -16.5t14 -32.5q0 -47 -54 -47q-15 0 -28 14.5zM161.5 1695q-11.5 16 -11.5 35q0 18 15.5 34.5t33.5 16.5q20 0 30.5 -19.5t10.5 -47.5q0 -16 -15.5 -25.5t-35.5 -9.5q-16 0 -27.5 16
z" />
    <glyph glyph-name="uni022A" unicode="&#x22a;" horiz-adv-x="755" 
d="M125 942v83q0 93 4 159t16 139q12 80 33.5 130.5t58.5 83.5q37 34 90 34q50 0 91 -19t67 -51q23 -28 41.5 -74t28.5 -91q11 -58 16 -97q49 -346 49 -621v-6q0 -102 -3 -189q-3 -60 -7.5 -103t-15.5 -112q-9 -56 -24 -95.5t-39 -81.5q-44 -74 -122 -74q-284 0 -284 985z
M473 52q27 38 42 105q33 144 39 282q6 131 6 214v9q0 100 -3 205q-5 112 -22 260l-3 27q-9 74 -25.5 133t-41.5 121q-22 53 -55 81.5t-73 28.5q-35 0 -62 -32.5t-42 -92.5q-17 -65 -27 -124.5t-14 -129.5q-6 -121 -6 -208v-100q0 -139 27 -347q18 -136 42 -233.5t64 -164.5
q42 -72 94 -72q33 0 60 38zM433 1701.5q-13 14.5 -13 30.5q0 19 15.5 35t34.5 16q17 0 31 -16.5t14 -32.5q0 -47 -54 -47q-15 0 -28 14.5zM161.5 1695q-11.5 16 -11.5 35q0 18 15.5 34.5t33.5 16.5q20 0 30.5 -19.5t10.5 -47.5q0 -16 -15.5 -25.5t-35.5 -9.5q-16 0 -27.5 16
zM174 1917q-33 7 -39 15q-5 7 -5 14q2 17 131 17h116q35 0 58 -0.5t46 -3.5q24 -3 34 -10t10 -19q-2 -17 -131 -17h-115h-40q-46 0 -65 4z" />
    <glyph glyph-name="uni022E" unicode="&#x22e;" horiz-adv-x="755" 
d="M125 942v83q0 93 4 159t16 139q12 80 33.5 130.5t58.5 83.5q37 34 90 34q50 0 91 -19t67 -51q23 -28 41.5 -74t28.5 -91q11 -58 16 -97q49 -346 49 -621v-6q0 -102 -3 -189q-3 -60 -7.5 -103t-15.5 -112q-9 -56 -24 -95.5t-39 -81.5q-44 -74 -122 -74q-284 0 -284 985z
M473 52q27 38 42 105q33 144 39 282q6 131 6 214v9q0 100 -3 205q-5 112 -22 260l-3 27q-9 74 -25.5 133t-41.5 121q-22 53 -55 81.5t-73 28.5q-35 0 -62 -32.5t-42 -92.5q-17 -65 -27 -124.5t-14 -129.5q-6 -121 -6 -208v-100q0 -139 27 -347q18 -136 42 -233.5t64 -164.5
q42 -72 94 -72q33 0 60 38zM290.5 1691.5q-13.5 15.5 -13.5 33.5q0 20 16.5 37.5t36.5 17.5q18 0 33.5 -17.5t15.5 -35.5q0 -51 -57 -51q-18 0 -31.5 15.5z" />
    <glyph glyph-name="uni0230" unicode="&#x230;" horiz-adv-x="755" 
d="M125 942v83q0 93 4 159t16 139q12 80 33.5 130.5t58.5 83.5q37 34 90 34q50 0 91 -19t67 -51q23 -28 41.5 -74t28.5 -91q11 -58 16 -97q49 -346 49 -621v-6q0 -102 -3 -189q-3 -60 -7.5 -103t-15.5 -112q-9 -56 -24 -95.5t-39 -81.5q-44 -74 -122 -74q-284 0 -284 985z
M473 52q27 38 42 105q33 144 39 282q6 131 6 214v9q0 100 -3 205q-5 112 -22 260l-3 27q-9 74 -25.5 133t-41.5 121q-22 53 -55 81.5t-73 28.5q-35 0 -62 -32.5t-42 -92.5q-17 -65 -27 -124.5t-14 -129.5q-6 -121 -6 -208v-100q0 -139 27 -347q18 -136 42 -233.5t64 -164.5
q42 -72 94 -72q33 0 60 38zM290.5 1691.5q-13.5 15.5 -13.5 33.5q0 20 16.5 37.5t36.5 17.5q18 0 33.5 -17.5t15.5 -35.5q0 -51 -57 -51q-18 0 -31.5 15.5zM174 1914q-33 7 -39 15q-5 7 -5 14q2 17 131 17h116q35 0 58 -0.5t46 -3.5q24 -3 34 -10t10 -19q-2 -17 -131 -17
h-115h-40q-46 0 -65 4z" />
    <glyph glyph-name="uni1ECC" unicode="&#x1ecc;" horiz-adv-x="755" 
d="M125 942v83q0 93 4 159t16 139q12 80 33.5 130.5t58.5 83.5q37 34 90 34q50 0 91 -19t67 -51q23 -28 41.5 -74t28.5 -91q11 -58 16 -97q49 -346 49 -621v-6q0 -102 -3 -189q-3 -60 -7.5 -103t-15.5 -112q-9 -56 -24 -95.5t-39 -81.5q-44 -74 -122 -74q-284 0 -284 985z
M473 52q27 38 42 105q33 144 39 282q6 131 6 214v9q0 100 -3 205q-5 112 -22 260l-3 27q-9 74 -25.5 133t-41.5 121q-22 53 -55 81.5t-73 28.5q-35 0 -62 -32.5t-42 -92.5q-17 -65 -27 -124.5t-14 -129.5q-6 -121 -6 -208v-100q0 -139 27 -347q18 -136 42 -233.5t64 -164.5
q42 -72 94 -72q33 0 60 38zM340.5 -224.5q-13.5 15.5 -13.5 33.5q0 20 16.5 37.5t36.5 17.5q18 0 33.5 -17.5t15.5 -35.5q0 -51 -57 -51q-18 0 -31.5 15.5z" />
    <glyph glyph-name="Ograve" unicode="&#xd2;" horiz-adv-x="755" 
d="M125 942v83q0 93 4 159t16 139q12 80 33.5 130.5t58.5 83.5q37 34 90 34q50 0 91 -19t67 -51q23 -28 41.5 -74t28.5 -91q11 -58 16 -97q49 -346 49 -621v-6q0 -102 -3 -189q-3 -60 -7.5 -103t-15.5 -112q-9 -56 -24 -95.5t-39 -81.5q-44 -74 -122 -74q-284 0 -284 985z
M473 52q27 38 42 105q33 144 39 282q6 131 6 214v9q0 100 -3 205q-5 112 -22 260l-3 27q-9 74 -25.5 133t-41.5 121q-22 53 -55 81.5t-73 28.5q-35 0 -62 -32.5t-42 -92.5q-17 -65 -27 -124.5t-14 -129.5q-6 -121 -6 -208v-100q0 -139 27 -347q18 -136 42 -233.5t64 -164.5
q42 -72 94 -72q33 0 60 38zM308 1666q-90 51 -97 57h-11q-10 0 -22 2q-70 12 -62 52q6 36 20 42l13 -2q60 -10 74 -36l23 -12q21 -11 75 -44q48 -30 76 -53q34 -28 31 -45q-1 -6 -9.5 -10t-16.5 -3q-4 1 -94 52z" />
    <glyph glyph-name="uni1ECE" unicode="&#x1ece;" horiz-adv-x="755" 
d="M125 942v83q0 93 4 159t16 139q12 80 33.5 130.5t58.5 83.5q37 34 90 34q50 0 91 -19t67 -51q23 -28 41.5 -74t28.5 -91q11 -58 16 -97q49 -346 49 -621v-6q0 -102 -3 -189q-3 -60 -7.5 -103t-15.5 -112q-9 -56 -24 -95.5t-39 -81.5q-44 -74 -122 -74q-284 0 -284 985z
M473 52q27 38 42 105q33 144 39 282q6 131 6 214v9q0 100 -3 205q-5 112 -22 260l-3 27q-9 74 -25.5 133t-41.5 121q-22 53 -55 81.5t-73 28.5q-35 0 -62 -32.5t-42 -92.5q-17 -65 -27 -124.5t-14 -129.5q-6 -121 -6 -208v-100q0 -139 27 -347q18 -136 42 -233.5t64 -164.5
q42 -72 94 -72q33 0 60 38zM316 1627v11q0 15 11.5 26t35.5 28q21 13 32 24t11 23q0 39 -66 39q-38 0 -56.5 -10t-18.5 -33q0 -13 3 -27q-13 -5 -20 -5q-29 0 -29 36q0 33 29 55.5t92 22.5q64 0 90 -20t26 -58q0 -19 -13.5 -33t-40.5 -33q-21 -15 -30.5 -24t-9.5 -20v-13
q-8 -13 -23 -13q-20 0 -23 24z" />
    <glyph glyph-name="Ohorn" unicode="&#x1a0;" horiz-adv-x="755" 
d="M571 1239q49 -346 49 -621v-6q0 -102 -3 -189q-3 -60 -7.5 -103t-15.5 -112q-9 -56 -24 -95.5t-39 -81.5q-44 -74 -122 -74q-284 0 -284 985v83q0 93 4 159t16 139q12 80 33.5 130.5t58.5 83.5q37 34 90 34q70 0 123 -38q22 -10 41 -10q27 0 44 19t17 47q0 21 -10 49
q-7 19 -7 29q0 18 10 27t27 9q29 0 42.5 -20.5t13.5 -62.5q0 -44 -17 -77t-44.5 -50.5t-55.5 -17.5h-8q17 -29 30.5 -66.5t21.5 -72.5q11 -58 16 -97zM560 662q0 100 -3 205q-5 112 -22 260l-3 27q-9 74 -25.5 133t-41.5 121q-22 53 -55 81.5t-73 28.5q-35 0 -62 -32.5
t-42 -92.5q-17 -65 -27 -124.5t-14 -129.5q-6 -121 -6 -208v-100q0 -139 27 -347q18 -136 42 -233.5t64 -164.5q42 -72 94 -72q33 0 60 38t42 105q33 144 39 282q6 131 6 214v9z" />
    <glyph glyph-name="uni1EDA" unicode="&#x1eda;" horiz-adv-x="755" 
d="M571 1239q49 -346 49 -621v-6q0 -102 -3 -189q-3 -60 -7.5 -103t-15.5 -112q-9 -56 -24 -95.5t-39 -81.5q-44 -74 -122 -74q-284 0 -284 985v83q0 93 4 159t16 139q12 80 33.5 130.5t58.5 83.5q37 34 90 34q70 0 123 -38q22 -10 41 -10q27 0 44 19t17 47q0 21 -10 49
q-7 19 -7 29q0 18 10 27t27 9q29 0 42.5 -20.5t13.5 -62.5q0 -44 -17 -77t-44.5 -50.5t-55.5 -17.5h-8q17 -29 30.5 -66.5t21.5 -72.5q11 -58 16 -97zM560 662q0 100 -3 205q-5 112 -22 260l-3 27q-9 74 -25.5 133t-41.5 121q-22 53 -55 81.5t-73 28.5q-35 0 -62 -32.5
t-42 -92.5q-17 -65 -27 -124.5t-14 -129.5q-6 -121 -6 -208v-100q0 -139 27 -347q18 -136 42 -233.5t64 -164.5q42 -72 94 -72q33 0 60 38t42 105q33 144 39 282q6 131 6 214v9zM298.5 1677q-10.5 8 -10.5 22q0 8 56 53q45 37 122 96q69 53 76 60q45 0 45 -32l-6 -31
q-105 -47 -256 -176q-16 0 -26.5 8z" />
    <glyph glyph-name="uni1EE2" unicode="&#x1ee2;" horiz-adv-x="755" 
d="M571 1239q49 -346 49 -621v-6q0 -102 -3 -189q-3 -60 -7.5 -103t-15.5 -112q-9 -56 -24 -95.5t-39 -81.5q-44 -74 -122 -74q-284 0 -284 985v83q0 93 4 159t16 139q12 80 33.5 130.5t58.5 83.5q37 34 90 34q70 0 123 -38q22 -10 41 -10q27 0 44 19t17 47q0 21 -10 49
q-7 19 -7 29q0 18 10 27t27 9q29 0 42.5 -20.5t13.5 -62.5q0 -44 -17 -77t-44.5 -50.5t-55.5 -17.5h-8q17 -29 30.5 -66.5t21.5 -72.5q11 -58 16 -97zM560 662q0 100 -3 205q-5 112 -22 260l-3 27q-9 74 -25.5 133t-41.5 121q-22 53 -55 81.5t-73 28.5q-35 0 -62 -32.5
t-42 -92.5q-17 -65 -27 -124.5t-14 -129.5q-6 -121 -6 -208v-100q0 -139 27 -347q18 -136 42 -233.5t64 -164.5q42 -72 94 -72q33 0 60 38t42 105q33 144 39 282q6 131 6 214v9zM340.5 -224.5q-13.5 15.5 -13.5 33.5q0 20 16.5 37.5t36.5 17.5q18 0 33.5 -17.5t15.5 -35.5
q0 -51 -57 -51q-18 0 -31.5 15.5z" />
    <glyph glyph-name="uni1EDC" unicode="&#x1edc;" horiz-adv-x="755" 
d="M571 1239q49 -346 49 -621v-6q0 -102 -3 -189q-3 -60 -7.5 -103t-15.5 -112q-9 -56 -24 -95.5t-39 -81.5q-44 -74 -122 -74q-284 0 -284 985v83q0 93 4 159t16 139q12 80 33.5 130.5t58.5 83.5q37 34 90 34q70 0 123 -38q22 -10 41 -10q27 0 44 19t17 47q0 21 -10 49
q-7 19 -7 29q0 18 10 27t27 9q29 0 42.5 -20.5t13.5 -62.5q0 -44 -17 -77t-44.5 -50.5t-55.5 -17.5h-8q17 -29 30.5 -66.5t21.5 -72.5q11 -58 16 -97zM560 662q0 100 -3 205q-5 112 -22 260l-3 27q-9 74 -25.5 133t-41.5 121q-22 53 -55 81.5t-73 28.5q-35 0 -62 -32.5
t-42 -92.5q-17 -65 -27 -124.5t-14 -129.5q-6 -121 -6 -208v-100q0 -139 27 -347q18 -136 42 -233.5t64 -164.5q42 -72 94 -72q33 0 60 38t42 105q33 144 39 282q6 131 6 214v9zM308 1666q-90 51 -97 57h-11q-10 0 -22 2q-70 12 -62 52q6 36 20 42l13 -2q60 -10 74 -36
l23 -12q21 -11 75 -44q48 -30 76 -53q34 -28 31 -45q-1 -6 -9.5 -10t-16.5 -3q-4 1 -94 52z" />
    <glyph glyph-name="uni1EDE" unicode="&#x1ede;" horiz-adv-x="755" 
d="M571 1239q49 -346 49 -621v-6q0 -102 -3 -189q-3 -60 -7.5 -103t-15.5 -112q-9 -56 -24 -95.5t-39 -81.5q-44 -74 -122 -74q-284 0 -284 985v83q0 93 4 159t16 139q12 80 33.5 130.5t58.5 83.5q37 34 90 34q70 0 123 -38q22 -10 41 -10q27 0 44 19t17 47q0 21 -10 49
q-7 19 -7 29q0 18 10 27t27 9q29 0 42.5 -20.5t13.5 -62.5q0 -44 -17 -77t-44.5 -50.5t-55.5 -17.5h-8q17 -29 30.5 -66.5t21.5 -72.5q11 -58 16 -97zM560 662q0 100 -3 205q-5 112 -22 260l-3 27q-9 74 -25.5 133t-41.5 121q-22 53 -55 81.5t-73 28.5q-35 0 -62 -32.5
t-42 -92.5q-17 -65 -27 -124.5t-14 -129.5q-6 -121 -6 -208v-100q0 -139 27 -347q18 -136 42 -233.5t64 -164.5q42 -72 94 -72q33 0 60 38t42 105q33 144 39 282q6 131 6 214v9zM316 1627v11q0 15 11.5 26t35.5 28q21 13 32 24t11 23q0 39 -66 39q-38 0 -56.5 -10t-18.5 -33
q0 -13 3 -27q-13 -5 -20 -5q-29 0 -29 36q0 33 29 55.5t92 22.5q64 0 90 -20t26 -58q0 -19 -13.5 -33t-40.5 -33q-21 -15 -30.5 -24t-9.5 -20v-13q-8 -13 -23 -13q-20 0 -23 24z" />
    <glyph glyph-name="uni1EE0" unicode="&#x1ee0;" horiz-adv-x="755" 
d="M571 1239q49 -346 49 -621v-6q0 -102 -3 -189q-3 -60 -7.5 -103t-15.5 -112q-9 -56 -24 -95.5t-39 -81.5q-44 -74 -122 -74q-284 0 -284 985v83q0 93 4 159t16 139q12 80 33.5 130.5t58.5 83.5q37 34 90 34q70 0 123 -38q22 -10 41 -10q27 0 44 19t17 47q0 21 -10 49
q-7 19 -7 29q0 18 10 27t27 9q29 0 42.5 -20.5t13.5 -62.5q0 -44 -17 -77t-44.5 -50.5t-55.5 -17.5h-8q17 -29 30.5 -66.5t21.5 -72.5q11 -58 16 -97zM560 662q0 100 -3 205q-5 112 -22 260l-3 27q-9 74 -25.5 133t-41.5 121q-22 53 -55 81.5t-73 28.5q-35 0 -62 -32.5
t-42 -92.5q-17 -65 -27 -124.5t-14 -129.5q-6 -121 -6 -208v-100q0 -139 27 -347q18 -136 42 -233.5t64 -164.5q42 -72 94 -72q33 0 60 38t42 105q33 144 39 282q6 131 6 214v9zM125 1648.5q-13 11.5 -13 23.5q0 64 34.5 103t84.5 39q51 0 87 -42q15 -30 51 -54.5t66 -24.5
q53 0 53 73q0 6 -5 21q-5 10 -7 18q6 12 21 12q23 0 35 -20.5t12 -49.5q0 -28 -15.5 -53t-40.5 -40t-53 -15q-34 0 -71 20t-59 43q-19 19 -52 58l-14 6q-30 0 -53 -16t-23 -39q0 -10 10 -43l-22 -31q-13 0 -26 11.5z" />
    <glyph glyph-name="Ohungarumlaut" unicode="&#x150;" horiz-adv-x="755" 
d="M125 942v83q0 93 4 159t16 139q12 80 33.5 130.5t58.5 83.5q37 34 90 34q50 0 91 -19t67 -51q23 -28 41.5 -74t28.5 -91q11 -58 16 -97q49 -346 49 -621v-6q0 -102 -3 -189q-3 -60 -7.5 -103t-15.5 -112q-9 -56 -24 -95.5t-39 -81.5q-44 -74 -122 -74q-284 0 -284 985z
M473 52q27 38 42 105q33 144 39 282q6 131 6 214v9q0 100 -3 205q-5 112 -22 260l-3 27q-9 74 -25.5 133t-41.5 121q-22 53 -55 81.5t-73 28.5q-35 0 -62 -32.5t-42 -92.5q-17 -65 -27 -124.5t-14 -129.5q-6 -121 -6 -208v-100q0 -139 27 -347q18 -136 42 -233.5t64 -164.5
q42 -72 94 -72q33 0 60 38zM135 1626q3 14 86.5 83t171.5 134t100 65q4 0 13.5 -11t9.5 -20q0 -12 -14 -20q-173 -132 -202 -151q-24 -11 -70 -46q-51 -38 -85 -45zM443 1636q0 14 95.5 86t157.5 111q105 60 114 60q11 0 25 -17t17 -33l-106 -60q-22 -8 -111 -55
q-8 -3 -53 -33q-33 -21 -82 -51q-38 -23 -46 -23q-11 0 -11 15z" />
    <glyph glyph-name="uni020E" unicode="&#x20e;" horiz-adv-x="755" 
d="M125 942v83q0 93 4 159t16 139q12 80 33.5 130.5t58.5 83.5q37 34 90 34q50 0 91 -19t67 -51q23 -28 41.5 -74t28.5 -91q11 -58 16 -97q49 -346 49 -621v-6q0 -102 -3 -189q-3 -60 -7.5 -103t-15.5 -112q-9 -56 -24 -95.5t-39 -81.5q-44 -74 -122 -74q-284 0 -284 985z
M473 52q27 38 42 105q33 144 39 282q6 131 6 214v9q0 100 -3 205q-5 112 -22 260l-3 27q-9 74 -25.5 133t-41.5 121q-22 53 -55 81.5t-73 28.5q-35 0 -62 -32.5t-42 -92.5q-17 -65 -27 -124.5t-14 -129.5q-6 -121 -6 -208v-100q0 -139 27 -347q18 -136 42 -233.5t64 -164.5
q42 -72 94 -72q33 0 60 38zM162 1630q0 76 31 139q16 33 46.5 51.5t71.5 18.5q39 0 75 -20q19 -10 41 -52l6 -12t10 -23t10 -23.5t6 -12.5l-5 -15l6 -15q5 -13 5 -17q0 -12 -9.5 -20.5t-21.5 -8.5q-37 0 -37 39q0 8 1 15q1 6 1 14q0 20 -10 44.5t-26.5 42t-33.5 17.5h-51
l-22 -16q-22 -16 -33 -50.5t-19 -81.5q-6 -30 -20 -32z" />
    <glyph glyph-name="Omacron" unicode="&#x14c;" horiz-adv-x="755" 
d="M125 942v83q0 93 4 159t16 139q12 80 33.5 130.5t58.5 83.5q37 34 90 34q50 0 91 -19t67 -51q23 -28 41.5 -74t28.5 -91q11 -58 16 -97q49 -346 49 -621v-6q0 -102 -3 -189q-3 -60 -7.5 -103t-15.5 -112q-9 -56 -24 -95.5t-39 -81.5q-44 -74 -122 -74q-284 0 -284 985z
M473 52q27 38 42 105q33 144 39 282q6 131 6 214v9q0 100 -3 205q-5 112 -22 260l-3 27q-9 74 -25.5 133t-41.5 121q-22 53 -55 81.5t-73 28.5q-35 0 -62 -32.5t-42 -92.5q-17 -65 -27 -124.5t-14 -129.5q-6 -121 -6 -208v-100q0 -139 27 -347q18 -136 42 -233.5t64 -164.5
q42 -72 94 -72q33 0 60 38zM174 1708q-33 7 -39 15q-5 7 -5 14q2 17 131 17h116q35 0 58 -0.5t46 -3.5q24 -3 34 -10t10 -19q-2 -17 -131 -17h-115h-40q-46 0 -65 4z" />
    <glyph glyph-name="uni01EA" unicode="&#x1ea;" horiz-adv-x="755" 
d="M620 618v-6q0 -102 -3 -189q-3 -60 -7.5 -103t-15.5 -112q-9 -56 -24 -95.5t-39 -81.5q-4 -7 -14 -21h2l2 1l1 -1q0 -1 -17 -26q-24 -32 -42.5 -61.5t-33.5 -67.5q-18 -44 -18 -79q0 -22 -4 -47l-1 -20q-1 -10 -1 -23q0 -27 22.5 -55.5t46.5 -28.5q11 0 33 11
q20 10 33 10q22 0 22 -21q0 -25 -28 -40t-60 -15q-39 0 -75 26.5t-58 65t-22 70.5q0 47 14 96.5t36 88.5q29 48 40 63q-284 0 -284 985v83q0 93 4 159t16 139q12 80 33.5 130.5t58.5 83.5q37 34 90 34q50 0 91 -19t67 -51q23 -28 41.5 -74t28.5 -91q11 -58 16 -97
q49 -346 49 -621zM560 662q0 100 -3 205q-5 112 -22 260l-3 27q-9 74 -25.5 133t-41.5 121q-22 53 -55 81.5t-73 28.5q-35 0 -62 -32.5t-42 -92.5q-17 -65 -27 -124.5t-14 -129.5q-6 -121 -6 -208v-100q0 -139 27 -347q18 -136 42 -233.5t64 -164.5q42 -72 94 -72
q33 0 60 38t42 105q33 144 39 282q6 131 6 214v9z" />
    <glyph glyph-name="Oslash" unicode="&#xd8;" horiz-adv-x="652" 
d="M127 -240q1 26 5 50.5t15 75.5l10 48q15 75 30 177q0 12 -8 39q-10 26 -11 34q-43 265 -43 768v129q0 488 150 488q11 0 31 -11q20 -12 28 -12l8 4l11 -10q18 55 34 149l19 109h37l-2 -59l-43 -248q0 -24 30 -59l-2 -5q5 -21 21 -44q3 -6 6 -10t4 -7q23 -57 23 -137
l-4 -2q0 -60 15 -188q15 -127 15 -189v-12l4 -7q0 -79 4 -194q3 -129 3 -193q0 -71 -3 -131q-3 -42 -8 -73.5t-15 -79.5q-8 -39 -22.5 -68t-37.5 -58q-42 -54 -117 -54q-71 0 -101 40h-2q-11 -73 -53 -284zM230 371q14 101 45 406l7 71l23 241l13 138q4 37 10 72
q6 44 10 84.5t4 72.5q0 24 -19.5 40.5t-45.5 16.5l-8 -2l-15 -6l-10 -4l-12 4q-64 -39 -64 -653v-13q0 -92 19 -134q0 -71 12 -215t12 -216q5 6 19 97zM463 399q0 845 -73 990q-30 -183 -62 -572q-35 -405 -74 -602q-14 -79 -14 -96q0 -51 20.5 -73.5t69.5 -22.5
q133 0 133 376z" />
    <glyph glyph-name="Oslashacute" unicode="&#x1fe;" horiz-adv-x="652" 
d="M127 -240q1 26 5 50.5t15 75.5l10 48q15 75 30 177q0 12 -8 39q-10 26 -11 34q-43 265 -43 768v129q0 488 150 488q11 0 31 -11q20 -12 28 -12l8 4l11 -10q18 55 34 149l19 109h37l-2 -59l-43 -248q0 -24 30 -59l-2 -5q5 -21 21 -44q3 -6 6 -10t4 -7q23 -57 23 -137
l-4 -2q0 -60 15 -188q15 -127 15 -189v-12l4 -7q0 -79 4 -194q3 -129 3 -193q0 -71 -3 -131q-3 -42 -8 -73.5t-15 -79.5q-8 -39 -22.5 -68t-37.5 -58q-42 -54 -117 -54q-71 0 -101 40h-2q-11 -73 -53 -284zM230 371q14 101 45 406l7 71l23 241l13 138q4 37 10 72
q6 44 10 84.5t4 72.5q0 24 -19.5 40.5t-45.5 16.5l-8 -2l-15 -6l-10 -4l-12 4q-64 -39 -64 -653v-13q0 -92 19 -134q0 -71 12 -215t12 -216q5 6 19 97zM463 399q0 845 -73 990q-30 -183 -62 -572q-35 -405 -74 -602q-14 -79 -14 -96q0 -51 20.5 -73.5t69.5 -22.5
q133 0 133 376zM196.5 1707q-10.5 8 -10.5 22q0 8 56 53q45 37 122 96q69 53 76 60q45 0 45 -32l-6 -31q-105 -47 -256 -176q-16 0 -26.5 8z" />
    <glyph glyph-name="Otilde" unicode="&#xd5;" horiz-adv-x="755" 
d="M125 942v83q0 93 4 159t16 139q12 80 33.5 130.5t58.5 83.5q37 34 90 34q50 0 91 -19t67 -51q23 -28 41.5 -74t28.5 -91q11 -58 16 -97q49 -346 49 -621v-6q0 -102 -3 -189q-3 -60 -7.5 -103t-15.5 -112q-9 -56 -24 -95.5t-39 -81.5q-44 -74 -122 -74q-284 0 -284 985z
M473 52q27 38 42 105q33 144 39 282q6 131 6 214v9q0 100 -3 205q-5 112 -22 260l-3 27q-9 74 -25.5 133t-41.5 121q-22 53 -55 81.5t-73 28.5q-35 0 -62 -32.5t-42 -92.5q-17 -65 -27 -124.5t-14 -129.5q-6 -121 -6 -208v-100q0 -139 27 -347q18 -136 42 -233.5t64 -164.5
q42 -72 94 -72q33 0 60 38zM125 1648.5q-13 11.5 -13 23.5q0 64 34.5 103t84.5 39q51 0 87 -42q15 -30 51 -54.5t66 -24.5q53 0 53 73q0 6 -5 21q-5 10 -7 18q6 12 21 12q23 0 35 -20.5t12 -49.5q0 -28 -15.5 -53t-40.5 -40t-53 -15q-34 0 -71 20t-59 43q-19 19 -52 58
l-14 6q-30 0 -53 -16t-23 -39q0 -10 10 -43l-22 -31q-13 0 -26 11.5z" />
    <glyph glyph-name="uni022C" unicode="&#x22c;" horiz-adv-x="755" 
d="M125 942v83q0 93 4 159t16 139q12 80 33.5 130.5t58.5 83.5q37 34 90 34q50 0 91 -19t67 -51q23 -28 41.5 -74t28.5 -91q11 -58 16 -97q49 -346 49 -621v-6q0 -102 -3 -189q-3 -60 -7.5 -103t-15.5 -112q-9 -56 -24 -95.5t-39 -81.5q-44 -74 -122 -74q-284 0 -284 985z
M473 52q27 38 42 105q33 144 39 282q6 131 6 214v9q0 100 -3 205q-5 112 -22 260l-3 27q-9 74 -25.5 133t-41.5 121q-22 53 -55 81.5t-73 28.5q-35 0 -62 -32.5t-42 -92.5q-17 -65 -27 -124.5t-14 -129.5q-6 -121 -6 -208v-100q0 -139 27 -347q18 -136 42 -233.5t64 -164.5
q42 -72 94 -72q33 0 60 38zM125 1648.5q-13 11.5 -13 23.5q0 64 34.5 103t84.5 39q51 0 87 -42q15 -30 51 -54.5t66 -24.5q53 0 53 73q0 6 -5 21q-5 10 -7 18q6 12 21 12q23 0 35 -20.5t12 -49.5q0 -28 -15.5 -53t-40.5 -40t-53 -15q-34 0 -71 20t-59 43q-19 19 -52 58
l-14 6q-30 0 -53 -16t-23 -39q0 -10 10 -43l-22 -31q-13 0 -26 11.5zM174 1951q-33 7 -39 15q-5 7 -5 14q2 17 131 17h116q35 0 58 -0.5t46 -3.5q24 -3 34 -10t10 -19q-2 -17 -131 -17h-115h-40q-46 0 -65 4z" />
    <glyph glyph-name="OE" unicode="&#x152;" horiz-adv-x="1136" 
d="M744 10l12 33q-21 -3 -69 -18q-49 -15 -76 -15q-113 0 -204.5 41.5t-151.5 115.5q-59 73 -89.5 169.5t-30.5 208.5q0 53 -5 210t-5 210q0 107 22 233q24 135 89 242q32 52 80 82t106 30q223 0 295 -79l-6 22l31 43q13 0 40 -6q26 -6 40 -6h151l23 2l22 2q11 -7 21 -18
t10 -19q0 -23 -37 -23q-31 0 -121 5q-72 4 -121 4q0 -75 15 -227q14 -157 14 -228l-2 -53l-2 -53q0 -51 10 -84l80 -3q9 0 27 3l26 2q30 0 49 -25q0 -19 -6.5 -26t-25.5 -7q-15 0 -46 3q-32 3 -47 3q-59 0 -59 -18q0 -138 7 -365q7 -228 7 -366l73 5q56 3 85 3
q141 0 141 -39l-12 -18q-51 0 -155 -3q-103 -3 -156 -3q-46 0 -49 30zM681 85q38 8 60.5 26t22.5 43q0 155 -14 500q-14 344 -14 499q0 42 -6 124q-7 77 -7 124q-37 49 -108 72.5t-158 23.5q-59 0 -107 -25.5t-78 -70.5q-63 -96 -81 -215q-17 -111 -17 -219q0 -41 1 -74
t1 -72t-2 -73l4 -7q0 -101 24 -298q12 -97 38 -169t59 -77q116 -125 262 -125q56 0 120 13z" />
    <glyph glyph-name="P" unicode="P" horiz-adv-x="565" 
d="M156 59q0 62 -3 183q-3 122 -3 184q0 93 -1 166t-1 166q0 241 -10 508q-8 184 -8 270l5 8q3 6 8 11q4 6 10 8q4 2 15 2q71 0 130 -33t95 -90q35 -55 53.5 -121t18.5 -135q0 -92 -30 -188t-88 -174q-62 -83 -138 -99q0 -113 9 -337q8 -238 8 -337q0 -33 -9.5 -48
t-35.5 -15q-25 0 -25 71zM246 817l15 16l14 15q133 133 133 334q0 117 -46 213q-25 51 -71.5 80.5t-109.5 29.5q0 -117 12 -350q12 -232 12 -350l4 -4q20 1 37 16z" />
    <glyph glyph-name="uni1E56" unicode="&#x1e56;" horiz-adv-x="565" 
d="M156 59q0 62 -3 183q-3 122 -3 184q0 93 -1 166t-1 166q0 241 -10 508q-8 184 -8 270l5 8q3 6 8 11q4 6 10 8q4 2 15 2q71 0 130 -33t95 -90q35 -55 53.5 -121t18.5 -135q0 -92 -30 -188t-88 -174q-62 -83 -138 -99q0 -113 9 -337q8 -238 8 -337q0 -33 -9.5 -48
t-35.5 -15q-25 0 -25 71zM246 817l15 16l14 15q133 133 133 334q0 117 -46 213q-25 51 -71.5 80.5t-109.5 29.5q0 -117 12 -350q12 -232 12 -350l4 -4q20 1 37 16zM175.5 1661.5q-13.5 15.5 -13.5 33.5q0 20 16.5 37.5t36.5 17.5q18 0 33.5 -17.5t15.5 -35.5q0 -51 -57 -51
q-18 0 -31.5 15.5z" />
    <glyph glyph-name="Thorn" unicode="&#xde;" horiz-adv-x="652" 
d="M177 59q0 84 1 129t1 129q0 32 -2 126t-2 126q0 130 -11 367l-7 164q-8 113 -8 119q-7 88 -7 147q-2 14 -2 29l2 56q1 31 1 64v10l-1 5q0 12 15 16q9 0 29 -5q5 -2 5 -1q3 -49 5 -136q1 -82 4 -136v-2q76 -1 138 -23.5t102 -60.5q38 -36 64.5 -86t37.5 -102
q10 -49 10 -107q0 -67 -20 -147t-55 -149t-78 -103q-9 -8 -27 -15q-12 -5 -26 -14q-18 -12 -110 -32q0 -113 6 -188q5 -83 5 -188q0 -33 -9.5 -48t-35.5 -15q-25 0 -25 71zM305 519.5q43 15.5 57 29.5q133 133 133 334q0 324 -287 324v-53q2 -133 14 -330q13 -229 14 -322
q26 2 69 17.5z" />
    <glyph glyph-name="Q" unicode="Q" horiz-adv-x="755" 
d="M565 -270q-22 12 -29 14q-37 16 -57 60t-33 125q-12 77 -19 98q-58 0 -106 20t-80 54q-29 30 -52 78.5t-35 97.5q-11 40 -17.5 98.5t-8.5 106.5q-2 52 -2 91v93q-1 43 -1 99q0 154 6 279q5 128 27 262q19 113 63 194q42 77 116 77q47 0 96.5 -27t85 -70.5t43.5 -88.5
q56 -319 56 -797q0 -360 -127 -541q2 -17 10 -38l10 -29q3 -10 8 -55q5 -53 10 -77.5t22 -45.5q19 -25 52 -25h8q64 0 64 -27q0 -39 -78 -39q-9 0 -32 13zM512 273q34 191 34 614v54q0 83 -4 183q-3 51 -8.5 88.5t-16.5 99.5q-9 45 -25 80t-39 68q-21 30 -52 45t-68 15
q-31 0 -57 -45q-23 -42 -39 -115t-28 -172q-16 -129 -23 -349q-2 -90 -2 -126v-123q0 -117 24 -236q15 -81 38.5 -137.5t62.5 -95.5q41 -41 94 -41q75 0 109 193z" />
    <glyph glyph-name="R" unicode="R" horiz-adv-x="579" 
d="M448 20q-5 20 -25 90q-64 226 -84 322q-6 27 -40 199q-29 149 -53 239l-21 -11q-18 -11 -27 -13l4 -789v-30q0 -41 -37 -41q-15 0 -25 9.5t-10 24.5v31q0 180 8 612q7 377 7 611v264q0 18 37 18q55 0 100 -28t73 -77q26 -48 40 -104.5t14 -115.5q0 -96 -41 -205
q-10 -29 -29 -69.5t-33 -54.5l220 -855q3 -10 3 -23q0 -19 -8 -31.5t-22 -12.5q-41 0 -51 40zM252.5 951.5q38.5 38.5 54.5 66.5q15 28 24.5 85t9.5 103q0 81 -27 173q-16 50 -44 81.5t-63 31.5h-5q-2 -1 -5 -1v-578q17 0 55.5 38.5z" />
    <glyph glyph-name="Racute" unicode="&#x154;" horiz-adv-x="579" 
d="M448 20q-5 20 -25 90q-64 226 -84 322q-6 27 -40 199q-29 149 -53 239l-21 -11q-18 -11 -27 -13l4 -789v-30q0 -41 -37 -41q-15 0 -25 9.5t-10 24.5v31q0 180 8 612q7 377 7 611v264q0 18 37 18q55 0 100 -28t73 -77q26 -48 40 -104.5t14 -115.5q0 -96 -41 -205
q-10 -29 -29 -69.5t-33 -54.5l220 -855q3 -10 3 -23q0 -19 -8 -31.5t-22 -12.5q-41 0 -51 40zM252.5 951.5q38.5 38.5 54.5 66.5q15 28 24.5 85t9.5 103q0 81 -27 173q-16 50 -44 81.5t-63 31.5h-5q-2 -1 -5 -1v-578q17 0 55.5 38.5zM190.5 1647q-10.5 8 -10.5 22q0 8 56 53
q45 37 122 96q69 53 76 60q45 0 45 -32l-6 -31q-105 -47 -256 -176q-16 0 -26.5 8z" />
    <glyph glyph-name="Rcaron" unicode="&#x158;" horiz-adv-x="579" 
d="M448 20q-5 20 -25 90q-64 226 -84 322q-6 27 -40 199q-29 149 -53 239l-21 -11q-18 -11 -27 -13l4 -789v-30q0 -41 -37 -41q-15 0 -25 9.5t-10 24.5v31q0 180 8 612q7 377 7 611v264q0 18 37 18q55 0 100 -28t73 -77q26 -48 40 -104.5t14 -115.5q0 -96 -41 -205
q-10 -29 -29 -69.5t-33 -54.5l220 -855q3 -10 3 -23q0 -19 -8 -31.5t-22 -12.5q-41 0 -51 40zM252.5 951.5q38.5 38.5 54.5 66.5q15 28 24.5 85t9.5 103q0 81 -27 173q-16 50 -44 81.5t-63 31.5h-5q-2 -1 -5 -1v-578q17 0 55.5 38.5zM191.5 1677q-40.5 72 -76 158t-36.5 116
l37 27l35 -47q2 -21 18 -70q14 -44 36.5 -108t31.5 -88q48 178 59 307l27 16q37 -6 37 -24q0 -5 -8 -23l2 -10l-15 -31l2 -12q-9 -29 -24 -74q-19 -52 -28 -90t-9 -76q0 -43 -29 -43q-19 0 -59.5 72z" />
    <glyph glyph-name="Rcommaaccent" unicode="&#x156;" horiz-adv-x="579" 
d="M448 20q-5 20 -25 90q-64 226 -84 322q-6 27 -40 199q-29 149 -53 239l-21 -11q-18 -11 -27 -13l4 -789v-30q0 -41 -37 -41q-15 0 -25 9.5t-10 24.5v31q0 180 8 612q7 377 7 611v264q0 18 37 18q55 0 100 -28t73 -77q26 -48 40 -104.5t14 -115.5q0 -96 -41 -205
q-10 -29 -29 -69.5t-33 -54.5l220 -855q3 -10 3 -23q0 -19 -8 -31.5t-22 -12.5q-41 0 -51 40zM252.5 951.5q38.5 38.5 54.5 66.5q15 28 24.5 85t9.5 103q0 81 -27 173q-16 50 -44 81.5t-63 31.5h-5q-2 -1 -5 -1v-578q17 0 55.5 38.5zM191 -424l4 18q10 8 27 24t30 29
q36 39 44 62q6 16 6 35q-26 16 -43 40.5t-17 49.5q0 27 24 45.5t54 18.5q46 0 68 -60l-4 -6q4 -7 4 -25q0 -35 -26 -93.5t-64 -104.5q-40 -48 -74 -49z" />
    <glyph glyph-name="uni0210" unicode="&#x210;" horiz-adv-x="579" 
d="M448 20q-5 20 -25 90q-64 226 -84 322q-6 27 -40 199q-29 149 -53 239l-21 -11q-18 -11 -27 -13l4 -789v-30q0 -41 -37 -41q-15 0 -25 9.5t-10 24.5v31q0 180 8 612q7 377 7 611v264q0 18 37 18q55 0 100 -28t73 -77q26 -48 40 -104.5t14 -115.5q0 -96 -41 -205
q-10 -29 -29 -69.5t-33 -54.5l220 -855q3 -10 3 -23q0 -19 -8 -31.5t-22 -12.5q-41 0 -51 40zM252.5 951.5q38.5 38.5 54.5 66.5q15 28 24.5 85t9.5 103q0 81 -27 173q-16 50 -44 81.5t-63 31.5h-5q-2 -1 -5 -1v-578q17 0 55.5 38.5zM306 1656q-48 36 -71 46
q-39 27 -186 145q-13 7 -13 20q0 9 9 20t13 11q11 0 95.5 -63.5t164 -131.5t82.5 -81l-9 -11q-34 7 -85 45zM90 1639q-39 24 -74 48l-23 15q-24 15 -27 16q-77 41 -110 55l-107 60q3 16 17 33t25 17q10 0 115 -60q34 -21 140 -101q97 -75 97 -90t-11 -15q-8 0 -42 22z" />
    <glyph glyph-name="uni0212" unicode="&#x212;" horiz-adv-x="579" 
d="M448 20q-5 20 -25 90q-64 226 -84 322q-6 27 -40 199q-29 149 -53 239l-21 -11q-18 -11 -27 -13l4 -789v-30q0 -41 -37 -41q-15 0 -25 9.5t-10 24.5v31q0 180 8 612q7 377 7 611v264q0 18 37 18q55 0 100 -28t73 -77q26 -48 40 -104.5t14 -115.5q0 -96 -41 -205
q-10 -29 -29 -69.5t-33 -54.5l220 -855q3 -10 3 -23q0 -19 -8 -31.5t-22 -12.5q-41 0 -51 40zM252.5 951.5q38.5 38.5 54.5 66.5q15 28 24.5 85t9.5 103q0 81 -27 173q-16 50 -44 81.5t-63 31.5h-5q-2 -1 -5 -1v-578q17 0 55.5 38.5zM54 1600q0 76 31 139q16 33 46.5 51.5
t71.5 18.5q39 0 75 -20q19 -10 41 -52l6 -12t10 -23t10 -23.5t6 -12.5l-5 -15l6 -15q5 -13 5 -17q0 -12 -9.5 -20.5t-21.5 -8.5q-37 0 -37 39q0 8 1 15q1 6 1 14q0 20 -10 44.5t-26.5 42t-33.5 17.5h-51l-22 -16q-22 -16 -33 -50.5t-19 -81.5q-6 -30 -20 -32z" />
    <glyph glyph-name="S" unicode="S" horiz-adv-x="621" 
d="M179.5 -42.5q-18.5 2.5 -41.5 13.5q-24 11 -38 35q0 25 22 25q21 0 58 -15q35 -16 55 -16q46 0 83.5 37t58.5 96q20 55 30 109t10 98q0 100 -28 202.5t-75 193.5l-28 54q-49 94 -79 159.5t-53 140.5q-30 99 -30 198q0 68 22.5 130t68.5 108q49 47 114 47q15 0 38 -9
t40 -22.5t17 -26.5q0 -16 -13 -16t-33 11q-19 10 -34 10q-46 0 -82.5 -35t-52.5 -86q-15 -46 -15 -94q0 -81 21 -166t56 -158q33 -71 72 -150l19 -40q42 -85 66 -144.5t41 -131.5q22 -91 22 -185q0 -58 -15.5 -121.5t-44.5 -120.5q-31 -60 -83 -96.5t-113 -36.5
q-37 0 -55.5 2.5z" />
    <glyph glyph-name="Sacute" unicode="&#x15a;" horiz-adv-x="621" 
d="M179.5 -42.5q-18.5 2.5 -41.5 13.5q-24 11 -38 35q0 25 22 25q21 0 58 -15q35 -16 55 -16q46 0 83.5 37t58.5 96q20 55 30 109t10 98q0 100 -28 202.5t-75 193.5l-28 54q-49 94 -79 159.5t-53 140.5q-30 99 -30 198q0 68 22.5 130t68.5 108q49 47 114 47q15 0 38 -9
t40 -22.5t17 -26.5q0 -16 -13 -16t-33 11q-19 10 -34 10q-46 0 -82.5 -35t-52.5 -86q-15 -46 -15 -94q0 -81 21 -166t56 -158q33 -71 72 -150l19 -40q42 -85 66 -144.5t41 -131.5q22 -91 22 -185q0 -58 -15.5 -121.5t-44.5 -120.5q-31 -60 -83 -96.5t-113 -36.5
q-37 0 -55.5 2.5zM281.5 1647q-10.5 8 -10.5 22q0 8 56 53q45 37 122 96q69 53 76 60q45 0 45 -32l-6 -31q-105 -47 -256 -176q-16 0 -26.5 8z" />
    <glyph glyph-name="Scaron" unicode="&#x160;" horiz-adv-x="621" 
d="M179.5 -42.5q-18.5 2.5 -41.5 13.5q-24 11 -38 35q0 25 22 25q21 0 58 -15q35 -16 55 -16q46 0 83.5 37t58.5 96q20 55 30 109t10 98q0 100 -28 202.5t-75 193.5l-28 54q-49 94 -79 159.5t-53 140.5q-30 99 -30 198q0 68 22.5 130t68.5 108q49 47 114 47q15 0 38 -9
t40 -22.5t17 -26.5q0 -16 -13 -16t-33 11q-19 10 -34 10q-46 0 -82.5 -35t-52.5 -86q-15 -46 -15 -94q0 -81 21 -166t56 -158q33 -71 72 -150l19 -40q42 -85 66 -144.5t41 -131.5q22 -91 22 -185q0 -58 -15.5 -121.5t-44.5 -120.5q-31 -60 -83 -96.5t-113 -36.5
q-37 0 -55.5 2.5zM282.5 1677q-40.5 72 -76 158t-36.5 116l37 27l35 -47q2 -21 18 -70q14 -44 36.5 -108t31.5 -88q48 178 59 307l27 16q37 -6 37 -24q0 -5 -8 -23l2 -10l-15 -31l2 -12q-9 -29 -24 -74q-19 -52 -28 -90t-9 -76q0 -43 -29 -43q-19 0 -59.5 72z" />
    <glyph glyph-name="Scedilla" unicode="&#x15e;" horiz-adv-x="621" 
d="M432 -317q0 -32 -22 -70.5t-58 -65t-75 -26.5q-32 0 -60 15t-28 40q0 21 22 21q13 0 33 -10q22 -11 33 -11q35 0 57.5 43t22.5 100q0 67 -31 91q-9 0 -27 -3q-17 -4 -28 -4q-30 0 -56 41q17 39 17 111q-36 0 -54 2.5t-40 13.5q-24 11 -38 35q0 25 22 25q21 0 58 -15
q35 -16 55 -16q46 0 83.5 37t58.5 96q20 55 30 109t10 98q0 100 -28 202.5t-75 193.5l-28 54q-49 94 -79 159.5t-53 140.5q-30 99 -30 198q0 68 22.5 130t68.5 108q49 47 114 47q15 0 38 -9t40 -22.5t17 -26.5q0 -16 -13 -16t-33 11q-19 10 -34 10q-46 0 -82.5 -35
t-52.5 -86q-15 -46 -15 -94q0 -81 21 -166t56 -158q33 -71 72 -150l19 -40q42 -85 66 -144.5t41 -131.5q22 -91 22 -185q0 -58 -15.5 -121.5t-44.5 -120.5q-24 -46 -61.5 -79.5t-82.5 -46.5q-4 -31 -4 -73q149 -11 149 -206z" />
    <glyph glyph-name="Scircumflex" unicode="&#x15c;" horiz-adv-x="621" 
d="M179.5 -42.5q-18.5 2.5 -41.5 13.5q-24 11 -38 35q0 25 22 25q21 0 58 -15q35 -16 55 -16q46 0 83.5 37t58.5 96q20 55 30 109t10 98q0 100 -28 202.5t-75 193.5l-28 54q-49 94 -79 159.5t-53 140.5q-30 99 -30 198q0 68 22.5 130t68.5 108q49 47 114 47q15 0 38 -9
t40 -22.5t17 -26.5q0 -16 -13 -16t-33 11q-19 10 -34 10q-46 0 -82.5 -35t-52.5 -86q-15 -46 -15 -94q0 -81 21 -166t56 -158q33 -71 72 -150l19 -40q42 -85 66 -144.5t41 -131.5q22 -91 22 -185q0 -58 -15.5 -121.5t-44.5 -120.5q-31 -60 -83 -96.5t-113 -36.5
q-37 0 -55.5 2.5zM377 1598q-11 129 -59 307q-9 -24 -31.5 -88t-36.5 -108q-16 -49 -18 -70l-35 -47l-37 26q1 30 36.5 116t76 158t59.5 72q29 0 29 -43q0 -38 9 -76t28 -89q15 -45 24 -74l-2 -13l15 -30l-2 -11q8 -18 8 -22q0 -19 -37 -25z" />
    <glyph glyph-name="Scommaaccent" unicode="&#x218;" horiz-adv-x="621" 
d="M179.5 -42.5q-18.5 2.5 -41.5 13.5q-24 11 -38 35q0 25 22 25q21 0 58 -15q35 -16 55 -16q46 0 83.5 37t58.5 96q20 55 30 109t10 98q0 100 -28 202.5t-75 193.5l-28 54q-49 94 -79 159.5t-53 140.5q-30 99 -30 198q0 68 22.5 130t68.5 108q49 47 114 47q15 0 38 -9
t40 -22.5t17 -26.5q0 -16 -13 -16t-33 11q-19 10 -34 10q-46 0 -82.5 -35t-52.5 -86q-15 -46 -15 -94q0 -81 21 -166t56 -158q33 -71 72 -150l19 -40q42 -85 66 -144.5t41 -131.5q22 -91 22 -185q0 -58 -15.5 -121.5t-44.5 -120.5q-31 -60 -83 -96.5t-113 -36.5
q-37 0 -55.5 2.5zM162 -454l4 18q10 8 27 24t30 29q36 39 44 62q6 16 6 35q-26 16 -43 40.5t-17 49.5q0 27 24 45.5t54 18.5q46 0 68 -60l-4 -6q4 -7 4 -25q0 -35 -26 -93.5t-64 -104.5q-40 -48 -74 -49z" />
    <glyph glyph-name="uni1E60" unicode="&#x1e60;" horiz-adv-x="621" 
d="M179.5 -42.5q-18.5 2.5 -41.5 13.5q-24 11 -38 35q0 25 22 25q21 0 58 -15q35 -16 55 -16q46 0 83.5 37t58.5 96q20 55 30 109t10 98q0 100 -28 202.5t-75 193.5l-28 54q-49 94 -79 159.5t-53 140.5q-30 99 -30 198q0 68 22.5 130t68.5 108q49 47 114 47q15 0 38 -9
t40 -22.5t17 -26.5q0 -16 -13 -16t-33 11q-19 10 -34 10q-46 0 -82.5 -35t-52.5 -86q-15 -46 -15 -94q0 -81 21 -166t56 -158q33 -71 72 -150l19 -40q42 -85 66 -144.5t41 -131.5q22 -91 22 -185q0 -58 -15.5 -121.5t-44.5 -120.5q-31 -60 -83 -96.5t-113 -36.5
q-37 0 -55.5 2.5zM273.5 1661.5q-13.5 15.5 -13.5 33.5q0 20 16.5 37.5t36.5 17.5q18 0 33.5 -17.5t15.5 -35.5q0 -51 -57 -51q-18 0 -31.5 15.5z" />
    <glyph glyph-name="uni1E9E" unicode="&#x1e9e;" horiz-adv-x="720" 
d="M184 16q0 67 5 260q5 192 5 259q0 141 -7 366t-7 365q0 270 155 270q51 0 88 -41t56.5 -113.5t19.5 -167.5q0 -110 -33 -204t-98 -156q95 -48 146 -148t51 -233v-47q0 -78 -5 -125t-21 -101q-32 -111 -153 -173q-11 -4 -18 -4q-16 0 -29.5 9t-13.5 21q0 17 25 35
q41 20 82 52.5t47 56.5q28 52 28 163v11q0 127 -35 249q-19 67 -57 117.5t-88 73.5q-13 6 -23 20t-10 27q0 11 5 18t12 9l14 4q27 8 55.5 60t47 120.5t18.5 120.5q0 121 -32 199q-32 77 -77 77q-94 0 -94 -211q0 -75 4 -184t4 -184v-78q0 -98 5 -380t5 -380q0 -61 -38 -61
h-2q-37 0 -37 28z" />
    <glyph glyph-name="uni018F" unicode="&#x18f;" horiz-adv-x="914" 
d="M622.5 1336q69.5 -65 103.5 -176q34 -108 34 -247v-343q0 -67 -1.5 -110.5t-6.5 -97.5q-5 -57 -14.5 -98.5t-27.5 -87.5q-18 -45 -42.5 -77.5t-61.5 -60.5q-35 -26 -82 -43q-41 -7 -87 -7q-152 0 -219 99.5t-67 310.5v58q0 155 65 239.5t192 84.5h279q3 83 3 165
q0 120 -28.5 209.5t-83.5 138.5t-132 49q-103 0 -234 -86q-18 0 -31 11q-6 6 0 11q153 123 281 123q91 0 160.5 -65zM401 719q-28 0 -42.5 -2t-35.5 -8q-20 -7 -33 -20t-29 -40q-13 -25 -21 -61t-14 -97q-5 -62 -5 -129q0 -112 23 -178t76 -97t145 -31q56 0 102 56.5
t70 143.5q22 79 33.5 150t11.5 118v8q0 94 3 187h-284z" />
    <glyph glyph-name="T" unicode="T" horiz-adv-x="654" 
d="M307 3q-11 15 -11 37q1 37 1 183v183q0 84 -5 327q-5 242 -5 328l1 59q1 33 1 133q0 221 -5 221h-231q-17 0 -30 8t-13 23q0 16 6.5 22t32.5 12q30 5 82 5l205 1l225 1q25 0 34 -8.5t9 -26.5q0 -30 -39 -30h-91l-92 -1l-18 -2h1l1 -119v-159v-832l1 -169l1 -151v-6
q0 -20 -1.5 -28.5t-7.5 -16.5q-7 -9 -21 -9q-20 0 -31 15z" />
    <glyph glyph-name="Tbar" unicode="&#x166;" horiz-adv-x="720" 
d="M347 14.5q-12 26.5 -12 55.5q1 51 9 164q8 120 8 172q0 95 -12 287q-64 -7 -123 -7q-16 0 -29.5 8.5t-13.5 20.5q0 19 162 35q-13 186 -13 311l1 59q1 33 1 133q0 211 -35 211q-21 0 -58 -6q-38 -6 -58 -6q-16 0 -29.5 10t-13.5 25q0 13 63.5 27t148.5 23t140 9
q16 0 29.5 -10.5t13.5 -24.5q0 -30 -39 -30q-11 0 -38 3t-38 3q-35 0 -43 -21q15 -129 15 -266q0 -69 -1 -124l-2 -124q0 -123 5 -198q96 8 139 8q11 0 21 -7t10 -16q0 -20 -164 -40q6 -51 18 -95q-6 -30 -6 -59q0 -62 5 -240t5 -237q0 -80 -35 -80q-19 0 -31 26.5z" />
    <glyph glyph-name="Tcaron" unicode="&#x164;" horiz-adv-x="654" 
d="M307 3q-11 15 -11 37q1 37 1 183v183q0 84 -5 327q-5 242 -5 328l1 59q1 33 1 133q0 221 -5 221h-231q-17 0 -30 8t-13 23q0 16 6.5 22t32.5 12q30 5 82 5l205 1l225 1q25 0 34 -8.5t9 -26.5q0 -30 -39 -30h-91l-92 -1l-18 -2h1l1 -119v-159v-832l1 -169l1 -151v-6
q0 -20 -1.5 -28.5t-7.5 -16.5q-7 -9 -21 -9q-20 0 -31 15zM298.5 1677q-40.5 72 -76 158t-36.5 116l37 27l35 -47q2 -21 18 -70q14 -44 36.5 -108t31.5 -88q48 178 59 307l27 16q37 -6 37 -24q0 -5 -8 -23l2 -10l-15 -31l2 -12q-9 -29 -24 -74q-19 -52 -28 -90t-9 -76
q0 -43 -29 -43q-19 0 -59.5 72z" />
    <glyph glyph-name="uni0162" unicode="&#x162;" horiz-adv-x="654" 
d="M595 1537.5q9 -8.5 9 -26.5q0 -30 -39 -30h-91l-92 -1l-18 -2h1l1 -119v-159v-832l1 -169l1 -151v-6q0 -20 -1.5 -28.5t-7.5 -16.5q-4 -4 -6 -5q-4 -31 -4 -73q149 -11 149 -206q0 -32 -22 -70.5t-58 -65t-75 -26.5q-32 0 -60 15t-28 40q0 21 22 21q13 0 33 -10
q22 -11 33 -11q35 0 57.5 43t22.5 100q0 67 -31 91q-9 0 -27 -3q-17 -4 -28 -4q-30 0 -56 41q17 40 17 117v23h3q-5 13 -5 26q1 37 1 183v183q0 84 -5 327q-5 242 -5 328l1 59q1 33 1 133q0 221 -5 221h-231q-17 0 -30 8t-13 23q0 16 6.5 22t32.5 12q30 5 82 5l205 1l225 1
q25 0 34 -8.5z" />
    <glyph glyph-name="uni021A" unicode="&#x21a;" horiz-adv-x="654" 
d="M307 3q-11 15 -11 37q1 37 1 183v183q0 84 -5 327q-5 242 -5 328l1 59q1 33 1 133q0 221 -5 221h-231q-17 0 -30 8t-13 23q0 16 6.5 22t32.5 12q30 5 82 5l205 1l225 1q25 0 34 -8.5t9 -26.5q0 -30 -39 -30h-91l-92 -1l-18 -2h1l1 -119v-159v-832l1 -169l1 -151v-6
q0 -20 -1.5 -28.5t-7.5 -16.5q-7 -9 -21 -9q-20 0 -31 15zM228 -424l4 18q10 8 27 24t30 29q36 39 44 62q6 16 6 35q-26 16 -43 40.5t-17 49.5q0 27 24 45.5t54 18.5q46 0 68 -60l-4 -6q4 -7 4 -25q0 -35 -26 -93.5t-64 -104.5q-40 -48 -74 -49z" />
    <glyph glyph-name="uni1E6A" unicode="&#x1e6a;" horiz-adv-x="654" 
d="M307 3q-11 15 -11 37q1 37 1 183v183q0 84 -5 327q-5 242 -5 328l1 59q1 33 1 133q0 221 -5 221h-231q-17 0 -30 8t-13 23q0 16 6.5 22t32.5 12q30 5 82 5l205 1l225 1q25 0 34 -8.5t9 -26.5q0 -30 -39 -30h-91l-92 -1l-18 -2h1l1 -119v-159v-832l1 -169l1 -151v-6
q0 -20 -1.5 -28.5t-7.5 -16.5q-7 -9 -21 -9q-20 0 -31 15zM289.5 1661.5q-13.5 15.5 -13.5 33.5q0 20 16.5 37.5t36.5 17.5q18 0 33.5 -17.5t15.5 -35.5q0 -51 -57 -51q-18 0 -31.5 15.5z" />
    <glyph glyph-name="U" unicode="U" horiz-adv-x="761" 
d="M336 -19q-41 20 -68 53q-26 31 -47 76t-33 90q-11 39 -19 89t-11 85q-2 23 -4 65l-2 34q-10 97 -25.5 440t-15.5 535v14q-1 7 -1 17q0 53 32 53q24 0 33 -12t9 -37v-15q-1 -7 -1 -16q0 -240 14 -564t29 -466q8 -89 34 -185q16 -63 36 -105.5t51 -72.5q32 -32 70 -32
q35 0 62.5 16t43.5 42q14 22 23 57.5t12 70.5q2 40 2 68v233q0 130 -9 383l-9 262q0 71 -4 174q-5 128 -5 174q0 22 11.5 35t28.5 13t28.5 -13t11.5 -35v-155q0 -103 1 -185v-184q0 -148 4 -349q3 -226 3 -339q0 -49 -4 -88t-16 -84q-13 -50 -34 -83.5t-57 -55.5
q-38 -23 -86 -23q-47 0 -88 20z" />
    <glyph glyph-name="Uacute" unicode="&#xda;" horiz-adv-x="761" 
d="M336 -19q-41 20 -68 53q-26 31 -47 76t-33 90q-11 39 -19 89t-11 85q-2 23 -4 65l-2 34q-10 97 -25.5 440t-15.5 535v14q-1 7 -1 17q0 53 32 53q24 0 33 -12t9 -37v-15q-1 -7 -1 -16q0 -240 14 -564t29 -466q8 -89 34 -185q16 -63 36 -105.5t51 -72.5q32 -32 70 -32
q35 0 62.5 16t43.5 42q14 22 23 57.5t12 70.5q2 40 2 68v233q0 130 -9 383l-9 262q0 71 -4 174q-5 128 -5 174q0 22 11.5 35t28.5 13t28.5 -13t11.5 -35v-155q0 -103 1 -185v-184q0 -148 4 -349q3 -226 3 -339q0 -49 -4 -88t-16 -84q-13 -50 -34 -83.5t-57 -55.5
q-38 -23 -86 -23q-47 0 -88 20zM291.5 1647q-10.5 8 -10.5 22q0 8 56 53q45 37 122 96q69 53 76 60q45 0 45 -32l-6 -31q-105 -47 -256 -176q-16 0 -26.5 8z" />
    <glyph glyph-name="Ubreve" unicode="&#x16c;" horiz-adv-x="761" 
d="M336 -19q-41 20 -68 53q-26 31 -47 76t-33 90q-11 39 -19 89t-11 85q-2 23 -4 65l-2 34q-10 97 -25.5 440t-15.5 535v14q-1 7 -1 17q0 53 32 53q24 0 33 -12t9 -37v-15q-1 -7 -1 -16q0 -240 14 -564t29 -466q8 -89 34 -185q16 -63 36 -105.5t51 -72.5q32 -32 70 -32
q35 0 62.5 16t43.5 42q14 22 23 57.5t12 70.5q2 40 2 68v233q0 130 -9 383l-9 262q0 71 -4 174q-5 128 -5 174q0 22 11.5 35t28.5 13t28.5 -13t11.5 -35v-155q0 -103 1 -185v-184q0 -148 4 -349q3 -226 3 -339q0 -49 -4 -88t-16 -84q-13 -50 -34 -83.5t-57 -55.5
q-38 -23 -86 -23q-47 0 -88 20zM246.5 1640.5q-30.5 18.5 -46.5 51.5q-31 63 -31 139l22 18q14 -2 20 -32q8 -47 19 -81.5t33 -50.5l22 -16h51q17 0 33.5 17.5t26.5 42t10 44.5q0 8 -1 15q-1 6 -1 14q0 39 37 39q12 0 21.5 -8.5t9.5 -20.5q0 -4 -5 -17l-6 -15l5 -15l-6 -12
t-10 -23q-9 -21 -15.5 -34t-17.5 -29q-11 -17 -22.5 -24t-32.5 -14q-18 -7 -44 -7q-41 0 -71.5 18.5z" />
    <glyph glyph-name="uni01D3" unicode="&#x1d3;" horiz-adv-x="761" 
d="M336 -19q-41 20 -68 53q-26 31 -47 76t-33 90q-11 39 -19 89t-11 85q-2 23 -4 65l-2 34q-10 97 -25.5 440t-15.5 535v14q-1 7 -1 17q0 53 32 53q24 0 33 -12t9 -37v-15q-1 -7 -1 -16q0 -240 14 -564t29 -466q8 -89 34 -185q16 -63 36 -105.5t51 -72.5q32 -32 70 -32
q35 0 62.5 16t43.5 42q14 22 23 57.5t12 70.5q2 40 2 68v233q0 130 -9 383l-9 262q0 71 -4 174q-5 128 -5 174q0 22 11.5 35t28.5 13t28.5 -13t11.5 -35v-155q0 -103 1 -185v-184q0 -148 4 -349q3 -226 3 -339q0 -49 -4 -88t-16 -84q-13 -50 -34 -83.5t-57 -55.5
q-38 -23 -86 -23q-47 0 -88 20zM292.5 1677q-40.5 72 -76 158t-36.5 116l37 27l35 -47q2 -21 18 -70q14 -44 36.5 -108t31.5 -88q48 178 59 307l27 16q37 -6 37 -24q0 -5 -8 -23l2 -10l-15 -31l2 -12q-9 -29 -24 -74q-19 -52 -28 -90t-9 -76q0 -43 -29 -43q-19 0 -59.5 72z
" />
    <glyph glyph-name="Ucircumflex" unicode="&#xdb;" horiz-adv-x="761" 
d="M336 -19q-41 20 -68 53q-26 31 -47 76t-33 90q-11 39 -19 89t-11 85q-2 23 -4 65l-2 34q-10 97 -25.5 440t-15.5 535v14q-1 7 -1 17q0 53 32 53q24 0 33 -12t9 -37v-15q-1 -7 -1 -16q0 -240 14 -564t29 -466q8 -89 34 -185q16 -63 36 -105.5t51 -72.5q32 -32 70 -32
q35 0 62.5 16t43.5 42q14 22 23 57.5t12 70.5q2 40 2 68v233q0 130 -9 383l-9 262q0 71 -4 174q-5 128 -5 174q0 22 11.5 35t28.5 13t28.5 -13t11.5 -35v-155q0 -103 1 -185v-184q0 -148 4 -349q3 -226 3 -339q0 -49 -4 -88t-16 -84q-13 -50 -34 -83.5t-57 -55.5
q-38 -23 -86 -23q-47 0 -88 20zM387 1598q-11 129 -59 307q-9 -24 -31.5 -88t-36.5 -108q-16 -49 -18 -70l-35 -47l-37 26q1 30 36.5 116t76 158t59.5 72q29 0 29 -43q0 -38 9 -76t28 -89q15 -45 24 -74l-2 -13l15 -30l-2 -11q8 -18 8 -22q0 -19 -37 -25z" />
    <glyph glyph-name="uni0214" unicode="&#x214;" horiz-adv-x="761" 
d="M336 -19q-41 20 -68 53q-26 31 -47 76t-33 90q-11 39 -19 89t-11 85q-2 23 -4 65l-2 34q-10 97 -25.5 440t-15.5 535v14q-1 7 -1 17q0 53 32 53q24 0 33 -12t9 -37v-15q-1 -7 -1 -16q0 -240 14 -564t29 -466q8 -89 34 -185q16 -63 36 -105.5t51 -72.5q32 -32 70 -32
q35 0 62.5 16t43.5 42q14 22 23 57.5t12 70.5q2 40 2 68v233q0 130 -9 383l-9 262q0 71 -4 174q-5 128 -5 174q0 22 11.5 35t28.5 13t28.5 -13t11.5 -35v-155q0 -103 1 -185v-184q0 -148 4 -349q3 -226 3 -339q0 -49 -4 -88t-16 -84q-13 -50 -34 -83.5t-57 -55.5
q-38 -23 -86 -23q-47 0 -88 20zM407 1656q-48 36 -71 46q-39 27 -186 145q-13 7 -13 20q0 9 9 20t13 11q11 0 95.5 -63.5t164 -131.5t82.5 -81l-9 -11q-34 7 -85 45zM191 1639q-39 24 -74 48l-23 15q-24 15 -27 16q-77 41 -110 55l-107 60q3 16 17 33t25 17q10 0 115 -60
q34 -21 140 -101q97 -75 97 -90t-11 -15q-8 0 -42 22z" />
    <glyph glyph-name="Udieresis" unicode="&#xdc;" horiz-adv-x="761" 
d="M336 -19q-41 20 -68 53q-26 31 -47 76t-33 90q-11 39 -19 89t-11 85q-2 23 -4 65l-2 34q-10 97 -25.5 440t-15.5 535v14q-1 7 -1 17q0 53 32 53q24 0 33 -12t9 -37v-15q-1 -7 -1 -16q0 -240 14 -564t29 -466q8 -89 34 -185q16 -63 36 -105.5t51 -72.5q32 -32 70 -32
q35 0 62.5 16t43.5 42q14 22 23 57.5t12 70.5q2 40 2 68v233q0 130 -9 383l-9 262q0 71 -4 174q-5 128 -5 174q0 22 11.5 35t28.5 13t28.5 -13t11.5 -35v-155q0 -103 1 -185v-184q0 -148 4 -349q3 -226 3 -339q0 -49 -4 -88t-16 -84q-13 -50 -34 -83.5t-57 -55.5
q-38 -23 -86 -23q-47 0 -88 20zM426 1671.5q-13 14.5 -13 30.5q0 19 15.5 35t34.5 16q17 0 31 -16.5t14 -32.5q0 -47 -54 -47q-15 0 -28 14.5zM154.5 1665q-11.5 16 -11.5 35q0 18 15.5 34.5t33.5 16.5q20 0 30.5 -19.5t10.5 -47.5q0 -16 -15.5 -25.5t-35.5 -9.5
q-16 0 -27.5 16z" />
    <glyph glyph-name="uni1EE4" unicode="&#x1ee4;" horiz-adv-x="761" 
d="M336 -19q-41 20 -68 53q-26 31 -47 76t-33 90q-11 39 -19 89t-11 85q-2 23 -4 65l-2 34q-10 97 -25.5 440t-15.5 535v14q-1 7 -1 17q0 53 32 53q24 0 33 -12t9 -37v-15q-1 -7 -1 -16q0 -240 14 -564t29 -466q8 -89 34 -185q16 -63 36 -105.5t51 -72.5q32 -32 70 -32
q35 0 62.5 16t43.5 42q14 22 23 57.5t12 70.5q2 40 2 68v233q0 130 -9 383l-9 262q0 71 -4 174q-5 128 -5 174q0 22 11.5 35t28.5 13t28.5 -13t11.5 -35v-155q0 -103 1 -185v-184q0 -148 4 -349q3 -226 3 -339q0 -49 -4 -88t-16 -84q-13 -50 -34 -83.5t-57 -55.5
q-38 -23 -86 -23q-47 0 -88 20zM343.5 -224.5q-13.5 15.5 -13.5 33.5q0 20 16.5 37.5t36.5 17.5q18 0 33.5 -17.5t15.5 -35.5q0 -51 -57 -51q-18 0 -31.5 15.5z" />
    <glyph glyph-name="Ugrave" unicode="&#xd9;" horiz-adv-x="761" 
d="M336 -19q-41 20 -68 53q-26 31 -47 76t-33 90q-11 39 -19 89t-11 85q-2 23 -4 65l-2 34q-10 97 -25.5 440t-15.5 535v14q-1 7 -1 17q0 53 32 53q24 0 33 -12t9 -37v-15q-1 -7 -1 -16q0 -240 14 -564t29 -466q8 -89 34 -185q16 -63 36 -105.5t51 -72.5q32 -32 70 -32
q35 0 62.5 16t43.5 42q14 22 23 57.5t12 70.5q2 40 2 68v233q0 130 -9 383l-9 262q0 71 -4 174q-5 128 -5 174q0 22 11.5 35t28.5 13t28.5 -13t11.5 -35v-155q0 -103 1 -185v-184q0 -148 4 -349q3 -226 3 -339q0 -49 -4 -88t-16 -84q-13 -50 -34 -83.5t-57 -55.5
q-38 -23 -86 -23q-47 0 -88 20zM301 1636q-90 51 -97 57h-11q-10 0 -22 2q-70 12 -62 52q6 36 20 42l13 -2q60 -10 74 -36l23 -12q21 -11 75 -44q48 -30 76 -53q34 -28 31 -45q-1 -6 -9.5 -10t-16.5 -3q-4 1 -94 52z" />
    <glyph glyph-name="uni1EE6" unicode="&#x1ee6;" horiz-adv-x="761" 
d="M336 -19q-41 20 -68 53q-26 31 -47 76t-33 90q-11 39 -19 89t-11 85q-2 23 -4 65l-2 34q-10 97 -25.5 440t-15.5 535v14q-1 7 -1 17q0 53 32 53q24 0 33 -12t9 -37v-15q-1 -7 -1 -16q0 -240 14 -564t29 -466q8 -89 34 -185q16 -63 36 -105.5t51 -72.5q32 -32 70 -32
q35 0 62.5 16t43.5 42q14 22 23 57.5t12 70.5q2 40 2 68v233q0 130 -9 383l-9 262q0 71 -4 174q-5 128 -5 174q0 22 11.5 35t28.5 13t28.5 -13t11.5 -35v-155q0 -103 1 -185v-184q0 -148 4 -349q3 -226 3 -339q0 -49 -4 -88t-16 -84q-13 -50 -34 -83.5t-57 -55.5
q-38 -23 -86 -23q-47 0 -88 20zM309 1597v11q0 15 11.5 26t35.5 28q21 13 32 24t11 23q0 39 -66 39q-38 0 -56.5 -10t-18.5 -33q0 -13 3 -27q-13 -5 -20 -5q-29 0 -29 36q0 33 29 55.5t92 22.5q64 0 90 -20t26 -58q0 -19 -13.5 -33t-40.5 -33q-21 -15 -30.5 -24t-9.5 -20
v-13q-8 -13 -23 -13q-20 0 -23 24z" />
    <glyph glyph-name="Uhorn" unicode="&#x1af;" horiz-adv-x="811" 
d="M752.5 1682.5q13.5 -20.5 13.5 -62.5q0 -44 -17 -77t-44.5 -50.5t-55.5 -17.5q-23 0 -36 4v-127q0 -103 1 -185v-184q0 -148 4 -349q3 -226 3 -339q0 -49 -4 -88t-16 -84q-13 -50 -34 -83.5t-57 -55.5q-38 -23 -86 -23q-47 0 -88 20t-68 53q-26 31 -47 76t-33 90
q-11 39 -19 89t-11 85q-2 23 -4 65l-2 34q-10 97 -25.5 440t-15.5 535v14q-1 7 -1 17q0 53 32 53q24 0 33 -12t9 -37v-15q-1 -7 -1 -16q0 -240 14 -564t29 -466q8 -89 34 -185q16 -63 36 -105.5t51 -72.5q32 -32 70 -32q35 0 62.5 16t43.5 42q14 22 23 57.5t12 70.5
q2 40 2 68v233q0 130 -9 383l-9 262q0 71 -4 174q-5 128 -5 174q0 22 11.5 35t28.5 13q13 0 23.5 -8t14.5 -22q10 -2 18 -2q27 0 44 19t17 47q0 21 -10 49q-7 19 -7 29q0 18 10 27t27 9q29 0 42.5 -20.5z" />
    <glyph glyph-name="uni1EE8" unicode="&#x1ee8;" horiz-adv-x="811" 
d="M752.5 1682.5q13.5 -20.5 13.5 -62.5q0 -44 -17 -77t-44.5 -50.5t-55.5 -17.5q-23 0 -36 4v-127q0 -103 1 -185v-184q0 -148 4 -349q3 -226 3 -339q0 -49 -4 -88t-16 -84q-13 -50 -34 -83.5t-57 -55.5q-38 -23 -86 -23q-47 0 -88 20t-68 53q-26 31 -47 76t-33 90
q-11 39 -19 89t-11 85q-2 23 -4 65l-2 34q-10 97 -25.5 440t-15.5 535v14q-1 7 -1 17q0 53 32 53q24 0 33 -12t9 -37v-15q-1 -7 -1 -16q0 -240 14 -564t29 -466q8 -89 34 -185q16 -63 36 -105.5t51 -72.5q32 -32 70 -32q35 0 62.5 16t43.5 42q14 22 23 57.5t12 70.5
q2 40 2 68v233q0 130 -9 383l-9 262q0 71 -4 174q-5 128 -5 174q0 22 11.5 35t28.5 13q13 0 23.5 -8t14.5 -22q10 -2 18 -2q27 0 44 19t17 47q0 21 -10 49q-7 19 -7 29q0 18 10 27t27 9q29 0 42.5 -20.5zM291.5 1647q-10.5 8 -10.5 22q0 8 56 53q45 37 122 96q69 53 76 60
q45 0 45 -32l-6 -31q-105 -47 -256 -176q-16 0 -26.5 8z" />
    <glyph glyph-name="uni1EF0" unicode="&#x1ef0;" horiz-adv-x="811" 
d="M752.5 1682.5q13.5 -20.5 13.5 -62.5q0 -44 -17 -77t-44.5 -50.5t-55.5 -17.5q-23 0 -36 4v-127q0 -103 1 -185v-184q0 -148 4 -349q3 -226 3 -339q0 -49 -4 -88t-16 -84q-13 -50 -34 -83.5t-57 -55.5q-38 -23 -86 -23q-47 0 -88 20t-68 53q-26 31 -47 76t-33 90
q-11 39 -19 89t-11 85q-2 23 -4 65l-2 34q-10 97 -25.5 440t-15.5 535v14q-1 7 -1 17q0 53 32 53q24 0 33 -12t9 -37v-15q-1 -7 -1 -16q0 -240 14 -564t29 -466q8 -89 34 -185q16 -63 36 -105.5t51 -72.5q32 -32 70 -32q35 0 62.5 16t43.5 42q14 22 23 57.5t12 70.5
q2 40 2 68v233q0 130 -9 383l-9 262q0 71 -4 174q-5 128 -5 174q0 22 11.5 35t28.5 13q13 0 23.5 -8t14.5 -22q10 -2 18 -2q27 0 44 19t17 47q0 21 -10 49q-7 19 -7 29q0 18 10 27t27 9q29 0 42.5 -20.5zM343.5 -224.5q-13.5 15.5 -13.5 33.5q0 20 16.5 37.5t36.5 17.5
q18 0 33.5 -17.5t15.5 -35.5q0 -51 -57 -51q-18 0 -31.5 15.5z" />
    <glyph glyph-name="uni1EEA" unicode="&#x1eea;" horiz-adv-x="811" 
d="M752.5 1682.5q13.5 -20.5 13.5 -62.5q0 -44 -17 -77t-44.5 -50.5t-55.5 -17.5q-23 0 -36 4v-127q0 -103 1 -185v-184q0 -148 4 -349q3 -226 3 -339q0 -49 -4 -88t-16 -84q-13 -50 -34 -83.5t-57 -55.5q-38 -23 -86 -23q-47 0 -88 20t-68 53q-26 31 -47 76t-33 90
q-11 39 -19 89t-11 85q-2 23 -4 65l-2 34q-10 97 -25.5 440t-15.5 535v14q-1 7 -1 17q0 53 32 53q24 0 33 -12t9 -37v-15q-1 -7 -1 -16q0 -240 14 -564t29 -466q8 -89 34 -185q16 -63 36 -105.5t51 -72.5q32 -32 70 -32q35 0 62.5 16t43.5 42q14 22 23 57.5t12 70.5
q2 40 2 68v233q0 130 -9 383l-9 262q0 71 -4 174q-5 128 -5 174q0 22 11.5 35t28.5 13q13 0 23.5 -8t14.5 -22q10 -2 18 -2q27 0 44 19t17 47q0 21 -10 49q-7 19 -7 29q0 18 10 27t27 9q29 0 42.5 -20.5zM301 1636q-90 51 -97 57h-11q-10 0 -22 2q-70 12 -62 52q6 36 20 42
l13 -2q60 -10 74 -36l23 -12q21 -11 75 -44q48 -30 76 -53q34 -28 31 -45q-1 -6 -9.5 -10t-16.5 -3q-4 1 -94 52z" />
    <glyph glyph-name="uni1EEC" unicode="&#x1eec;" horiz-adv-x="811" 
d="M752.5 1682.5q13.5 -20.5 13.5 -62.5q0 -44 -17 -77t-44.5 -50.5t-55.5 -17.5q-23 0 -36 4v-127q0 -103 1 -185v-184q0 -148 4 -349q3 -226 3 -339q0 -49 -4 -88t-16 -84q-13 -50 -34 -83.5t-57 -55.5q-38 -23 -86 -23q-47 0 -88 20t-68 53q-26 31 -47 76t-33 90
q-11 39 -19 89t-11 85q-2 23 -4 65l-2 34q-10 97 -25.5 440t-15.5 535v14q-1 7 -1 17q0 53 32 53q24 0 33 -12t9 -37v-15q-1 -7 -1 -16q0 -240 14 -564t29 -466q8 -89 34 -185q16 -63 36 -105.5t51 -72.5q32 -32 70 -32q35 0 62.5 16t43.5 42q14 22 23 57.5t12 70.5
q2 40 2 68v233q0 130 -9 383l-9 262q0 71 -4 174q-5 128 -5 174q0 22 11.5 35t28.5 13q13 0 23.5 -8t14.5 -22q10 -2 18 -2q27 0 44 19t17 47q0 21 -10 49q-7 19 -7 29q0 18 10 27t27 9q29 0 42.5 -20.5zM309 1597v11q0 15 11.5 26t35.5 28q21 13 32 24t11 23q0 39 -66 39
q-38 0 -56.5 -10t-18.5 -33q0 -13 3 -27q-13 -5 -20 -5q-29 0 -29 36q0 33 29 55.5t92 22.5q64 0 90 -20t26 -58q0 -19 -13.5 -33t-40.5 -33q-21 -15 -30.5 -24t-9.5 -20v-13q-8 -13 -23 -13q-20 0 -23 24z" />
    <glyph glyph-name="uni1EEE" unicode="&#x1eee;" horiz-adv-x="811" 
d="M752.5 1682.5q13.5 -20.5 13.5 -62.5q0 -44 -17 -77t-44.5 -50.5t-55.5 -17.5q-23 0 -36 4v-127q0 -103 1 -185v-184q0 -148 4 -349q3 -226 3 -339q0 -49 -4 -88t-16 -84q-13 -50 -34 -83.5t-57 -55.5q-38 -23 -86 -23q-47 0 -88 20t-68 53q-26 31 -47 76t-33 90
q-11 39 -19 89t-11 85q-2 23 -4 65l-2 34q-10 97 -25.5 440t-15.5 535v14q-1 7 -1 17q0 53 32 53q24 0 33 -12t9 -37v-15q-1 -7 -1 -16q0 -240 14 -564t29 -466q8 -89 34 -185q16 -63 36 -105.5t51 -72.5q32 -32 70 -32q35 0 62.5 16t43.5 42q14 22 23 57.5t12 70.5
q2 40 2 68v233q0 130 -9 383l-9 262q0 71 -4 174q-5 128 -5 174q0 22 11.5 35t28.5 13q13 0 23.5 -8t14.5 -22q10 -2 18 -2q27 0 44 19t17 47q0 21 -10 49q-7 19 -7 29q0 18 10 27t27 9q29 0 42.5 -20.5zM118 1618.5q-13 11.5 -13 23.5q0 64 34.5 103t84.5 39q51 0 87 -42
q15 -30 51 -54.5t66 -24.5q53 0 53 73q0 6 -5 21q-5 10 -7 18q6 12 21 12q23 0 35 -20.5t12 -49.5q0 -28 -15.5 -53t-40.5 -40t-53 -15q-34 0 -71 20t-59 43q-19 19 -52 58l-14 6q-30 0 -53 -16t-23 -39q0 -10 10 -43l-22 -31q-13 0 -26 11.5z" />
    <glyph glyph-name="Uhungarumlaut" unicode="&#x170;" horiz-adv-x="761" 
d="M336 -19q-41 20 -68 53q-26 31 -47 76t-33 90q-11 39 -19 89t-11 85q-2 23 -4 65l-2 34q-10 97 -25.5 440t-15.5 535v14q-1 7 -1 17q0 53 32 53q24 0 33 -12t9 -37v-15q-1 -7 -1 -16q0 -240 14 -564t29 -466q8 -89 34 -185q16 -63 36 -105.5t51 -72.5q32 -32 70 -32
q35 0 62.5 16t43.5 42q14 22 23 57.5t12 70.5q2 40 2 68v233q0 130 -9 383l-9 262q0 71 -4 174q-5 128 -5 174q0 22 11.5 35t28.5 13t28.5 -13t11.5 -35v-155q0 -103 1 -185v-184q0 -148 4 -349q3 -226 3 -339q0 -49 -4 -88t-16 -84q-13 -50 -34 -83.5t-57 -55.5
q-38 -23 -86 -23q-47 0 -88 20zM128 1596q3 14 86.5 83t171.5 134t100 65q4 0 13.5 -11t9.5 -20q0 -12 -14 -20q-173 -132 -202 -151q-24 -11 -70 -46q-51 -38 -85 -45zM436 1606q0 14 95.5 86t157.5 111q105 60 114 60q11 0 25 -17t17 -33l-106 -60q-22 -8 -111 -55
q-8 -3 -53 -33q-33 -21 -82 -51q-38 -23 -46 -23q-11 0 -11 15z" />
    <glyph glyph-name="uni0216" unicode="&#x216;" horiz-adv-x="761" 
d="M336 -19q-41 20 -68 53q-26 31 -47 76t-33 90q-11 39 -19 89t-11 85q-2 23 -4 65l-2 34q-10 97 -25.5 440t-15.5 535v14q-1 7 -1 17q0 53 32 53q24 0 33 -12t9 -37v-15q-1 -7 -1 -16q0 -240 14 -564t29 -466q8 -89 34 -185q16 -63 36 -105.5t51 -72.5q32 -32 70 -32
q35 0 62.5 16t43.5 42q14 22 23 57.5t12 70.5q2 40 2 68v233q0 130 -9 383l-9 262q0 71 -4 174q-5 128 -5 174q0 22 11.5 35t28.5 13t28.5 -13t11.5 -35v-155q0 -103 1 -185v-184q0 -148 4 -349q3 -226 3 -339q0 -49 -4 -88t-16 -84q-13 -50 -34 -83.5t-57 -55.5
q-38 -23 -86 -23q-47 0 -88 20zM155 1600q0 76 31 139q16 33 46.5 51.5t71.5 18.5q39 0 75 -20q19 -10 41 -52l6 -12t10 -23t10 -23.5t6 -12.5l-5 -15l6 -15q5 -13 5 -17q0 -12 -9.5 -20.5t-21.5 -8.5q-37 0 -37 39q0 8 1 15q1 6 1 14q0 20 -10 44.5t-26.5 42t-33.5 17.5
h-51l-22 -16q-22 -16 -33 -50.5t-19 -81.5q-6 -30 -20 -32z" />
    <glyph glyph-name="Umacron" unicode="&#x16a;" horiz-adv-x="761" 
d="M336 -19q-41 20 -68 53q-26 31 -47 76t-33 90q-11 39 -19 89t-11 85q-2 23 -4 65l-2 34q-10 97 -25.5 440t-15.5 535v14q-1 7 -1 17q0 53 32 53q24 0 33 -12t9 -37v-15q-1 -7 -1 -16q0 -240 14 -564t29 -466q8 -89 34 -185q16 -63 36 -105.5t51 -72.5q32 -32 70 -32
q35 0 62.5 16t43.5 42q14 22 23 57.5t12 70.5q2 40 2 68v233q0 130 -9 383l-9 262q0 71 -4 174q-5 128 -5 174q0 22 11.5 35t28.5 13t28.5 -13t11.5 -35v-155q0 -103 1 -185v-184q0 -148 4 -349q3 -226 3 -339q0 -49 -4 -88t-16 -84q-13 -50 -34 -83.5t-57 -55.5
q-38 -23 -86 -23q-47 0 -88 20zM167 1678q-33 7 -39 15q-5 7 -5 14q2 17 131 17h116q35 0 58 -0.5t46 -3.5q24 -3 34 -10t10 -19q-2 -17 -131 -17h-115h-40q-46 0 -65 4z" />
    <glyph glyph-name="Uogonek" unicode="&#x172;" horiz-adv-x="761" 
d="M426 -286q-1 -10 -1 -23q0 -27 22.5 -55.5t46.5 -28.5q11 0 33 11q20 10 33 10q22 0 22 -21q0 -25 -28 -40t-60 -15q-39 0 -75 26.5t-58 65t-22 70.5q0 47 14 97t36 88q13 23 39 62h-4q-47 0 -88 20t-68 53q-26 31 -47 76t-33 90q-11 39 -19 89t-11 85q-2 23 -4 65l-2 34
q-10 97 -25.5 440t-15.5 535v14q-1 7 -1 17q0 53 32 53q24 0 33 -12t9 -37v-15q-1 -7 -1 -16q0 -240 14 -564t29 -466q8 -89 34 -185q16 -63 36 -105.5t51 -72.5q32 -32 70 -32q35 0 62.5 16t43.5 42q14 22 23 57.5t12 70.5q2 40 2 68v233q0 130 -9 383l-9 262q0 71 -4 174
q-5 128 -5 174q0 22 11.5 35t28.5 13t28.5 -13t11.5 -35v-155q0 -103 1 -185v-184q0 -148 4 -349q3 -226 3 -339q0 -49 -4 -88t-16 -84q-11 -41 -27 -70.5t-41 -51.5l-8 -12q-24 -32 -42.5 -61.5t-33.5 -67.5q-18 -44 -18 -79q0 -22 -4 -47z" />
    <glyph glyph-name="Uring" unicode="&#x16e;" horiz-adv-x="761" 
d="M336 -19q-41 20 -68 53q-26 31 -47 76t-33 90q-11 39 -19 89t-11 85q-2 23 -4 65l-2 34q-10 97 -25.5 440t-15.5 535v14q-1 7 -1 17q0 53 32 53q24 0 33 -12t9 -37v-15q-1 -7 -1 -16q0 -240 14 -564t29 -466q8 -89 34 -185q16 -63 36 -105.5t51 -72.5q32 -32 70 -32
q35 0 62.5 16t43.5 42q14 22 23 57.5t12 70.5q2 40 2 68v233q0 130 -9 383l-9 262q0 71 -4 174q-5 128 -5 174q0 22 11.5 35t28.5 13t28.5 -13t11.5 -35v-155q0 -103 1 -185v-184q0 -148 4 -349q3 -226 3 -339q0 -49 -4 -88t-16 -84q-13 -50 -34 -83.5t-57 -55.5
q-38 -23 -86 -23q-47 0 -88 20zM256 1621.5q-23 15.5 -37 40.5t-14 52q0 30 17.5 59.5t45 48.5t56.5 19q25 0 51.5 -18.5t43.5 -46.5t17 -53q0 -56 -36 -86.5t-95 -30.5q-26 0 -49 15.5zM353.5 1662.5q29.5 17.5 29.5 39.5q0 40 -15.5 70t-43.5 30q-25 0 -48.5 -25
t-23.5 -52q0 -21 3 -35.5t13 -28.5q10 -16 29 -16q27 0 56.5 17.5z" />
    <glyph glyph-name="Utilde" unicode="&#x168;" horiz-adv-x="761" 
d="M336 -19q-41 20 -68 53q-26 31 -47 76t-33 90q-11 39 -19 89t-11 85q-2 23 -4 65l-2 34q-10 97 -25.5 440t-15.5 535v14q-1 7 -1 17q0 53 32 53q24 0 33 -12t9 -37v-15q-1 -7 -1 -16q0 -240 14 -564t29 -466q8 -89 34 -185q16 -63 36 -105.5t51 -72.5q32 -32 70 -32
q35 0 62.5 16t43.5 42q14 22 23 57.5t12 70.5q2 40 2 68v233q0 130 -9 383l-9 262q0 71 -4 174q-5 128 -5 174q0 22 11.5 35t28.5 13t28.5 -13t11.5 -35v-155q0 -103 1 -185v-184q0 -148 4 -349q3 -226 3 -339q0 -49 -4 -88t-16 -84q-13 -50 -34 -83.5t-57 -55.5
q-38 -23 -86 -23q-47 0 -88 20zM118 1618.5q-13 11.5 -13 23.5q0 64 34.5 103t84.5 39q51 0 87 -42q15 -30 51 -54.5t66 -24.5q53 0 53 73q0 6 -5 21q-5 10 -7 18q6 12 21 12q23 0 35 -20.5t12 -49.5q0 -28 -15.5 -53t-40.5 -40t-53 -15q-34 0 -71 20t-59 43q-19 19 -52 58
l-14 6q-30 0 -53 -16t-23 -39q0 -10 10 -43l-22 -31q-13 0 -26 11.5z" />
    <glyph glyph-name="V" unicode="V" horiz-adv-x="666" 
d="M350 -16l-22 6q-34 139 -82 452l-112 732l-20 89q-44 184 -44 249q0 14 9 25t20 11q8 0 14 -3q9 -4 18 -23q6 -13 9 -31l4 -29q9 -48 46 -265l103 -704l27 -194l26 -187q9 86 14 146l23 236q13 115 49 449l30 288l7 67q3 25 15 103q12 83 14 115q3 38 39 38l12 -8h-4
l21 -16q0 -62 -17 -175l-12 -79q-9 -65 -40 -329q-33 -275 -65.5 -570.5t-33.5 -349.5q-17 -45 -39 -45q-3 0 -9 2zM342 101h7l-3 5z" />
    <glyph glyph-name="W" unicode="W" horiz-adv-x="944" 
d="M270 19q0 13 1 23t1 22v10q-6 50 -37 248l-18 112q-7 45 -39 320q-32 278 -63 505q-31 231 -45 254q6 11 18.5 19t24.5 8q31 0 42 -11t11 -36v-18q-1 -9 -1 -21q0 -17 1 -22q56 -601 133 -1253h4q8 57 24 325q18 284 22 334q5 63 24 180q20 118 24 166l7 93l3 42
q2 26 2 27q0 5 1 13t2 13q0 3 3.5 7t8.5 7q15 0 23.5 -3t13.5 -11t7 -14t4 -17l3 -18q21 -106 88.5 -564t81.5 -603l6 -4l76 829q6 84 26 246q21 179 21 276q0 11 -1 20t-1 19q0 25 11.5 37t41.5 12q13 0 26 -10t13 -22q0 -21 -22 -39q2 -6 2 -13q0 -10 -4 -26.5t-4 -18.5
q-21 -165 -55 -543q-34 -363 -42 -423q-8 -89 -17 -162l-23 -208q-1 -10 -4 -38q-7 -55 -7 -65q0 -26 -7.5 -38t-29.5 -12q-32 0 -39 25q-6 19 -7 57l-3 31q-60 399 -148 1123l-6 4l-1 -2l-1 -2q-79 -888 -102 -1119v-36q0 -81 -35 -81q-39 0 -39 46z" />
    <glyph glyph-name="Wacute" unicode="&#x1e82;" horiz-adv-x="944" 
d="M270 19q0 13 1 23t1 22v10q-6 50 -37 248l-18 112q-7 45 -39 320q-32 278 -63 505q-31 231 -45 254q6 11 18.5 19t24.5 8q31 0 42 -11t11 -36v-18q-1 -9 -1 -21q0 -17 1 -22q56 -601 133 -1253h4q8 57 24 325q18 284 22 334q5 63 24 180q20 118 24 166l7 93l3 42
q2 26 2 27q0 5 1 13t2 13q0 3 3.5 7t8.5 7q15 0 23.5 -3t13.5 -11t7 -14t4 -17l3 -18q21 -106 88.5 -564t81.5 -603l6 -4l76 829q6 84 26 246q21 179 21 276q0 11 -1 20t-1 19q0 25 11.5 37t41.5 12q13 0 26 -10t13 -22q0 -21 -22 -39q2 -6 2 -13q0 -10 -4 -26.5t-4 -18.5
q-21 -165 -55 -543q-34 -363 -42 -423q-8 -89 -17 -162l-23 -208q-1 -10 -4 -38q-7 -55 -7 -65q0 -26 -7.5 -38t-29.5 -12q-32 0 -39 25q-6 19 -7 57l-3 31q-60 399 -148 1123l-6 4l-1 -2l-1 -2q-79 -888 -102 -1119v-36q0 -81 -35 -81q-39 0 -39 46zM401.5 1647
q-10.5 8 -10.5 22q0 8 56 53q45 37 122 96q69 53 76 60q45 0 45 -32l-6 -31q-105 -47 -256 -176q-16 0 -26.5 8z" />
    <glyph glyph-name="Wcircumflex" unicode="&#x174;" horiz-adv-x="944" 
d="M270 19q0 13 1 23t1 22v10q-6 50 -37 248l-18 112q-7 45 -39 320q-32 278 -63 505q-31 231 -45 254q6 11 18.5 19t24.5 8q31 0 42 -11t11 -36v-18q-1 -9 -1 -21q0 -17 1 -22q56 -601 133 -1253h4q8 57 24 325q18 284 22 334q5 63 24 180q20 118 24 166l7 93l3 42
q2 26 2 27q0 5 1 13t2 13q0 3 3.5 7t8.5 7q15 0 23.5 -3t13.5 -11t7 -14t4 -17l3 -18q21 -106 88.5 -564t81.5 -603l6 -4l76 829q6 84 26 246q21 179 21 276q0 11 -1 20t-1 19q0 25 11.5 37t41.5 12q13 0 26 -10t13 -22q0 -21 -22 -39q2 -6 2 -13q0 -10 -4 -26.5t-4 -18.5
q-21 -165 -55 -543q-34 -363 -42 -423q-8 -89 -17 -162l-23 -208q-1 -10 -4 -38q-7 -55 -7 -65q0 -26 -7.5 -38t-29.5 -12q-32 0 -39 25q-6 19 -7 57l-3 31q-60 399 -148 1123l-6 4l-1 -2l-1 -2q-79 -888 -102 -1119v-36q0 -81 -35 -81q-39 0 -39 46zM497 1598
q-11 129 -59 307q-9 -24 -31.5 -88t-36.5 -108q-16 -49 -18 -70l-35 -47l-37 26q1 30 36.5 116t76 158t59.5 72q29 0 29 -43q0 -38 9 -76t28 -89q15 -45 24 -74l-2 -13l15 -30l-2 -11q8 -18 8 -22q0 -19 -37 -25z" />
    <glyph glyph-name="Wdieresis" unicode="&#x1e84;" horiz-adv-x="944" 
d="M270 19q0 13 1 23t1 22v10q-6 50 -37 248l-18 112q-7 45 -39 320q-32 278 -63 505q-31 231 -45 254q6 11 18.5 19t24.5 8q31 0 42 -11t11 -36v-18q-1 -9 -1 -21q0 -17 1 -22q56 -601 133 -1253h4q8 57 24 325q18 284 22 334q5 63 24 180q20 118 24 166l7 93l3 42
q2 26 2 27q0 5 1 13t2 13q0 3 3.5 7t8.5 7q15 0 23.5 -3t13.5 -11t7 -14t4 -17l3 -18q21 -106 88.5 -564t81.5 -603l6 -4l76 829q6 84 26 246q21 179 21 276q0 11 -1 20t-1 19q0 25 11.5 37t41.5 12q13 0 26 -10t13 -22q0 -21 -22 -39q2 -6 2 -13q0 -10 -4 -26.5t-4 -18.5
q-21 -165 -55 -543q-34 -363 -42 -423q-8 -89 -17 -162l-23 -208q-1 -10 -4 -38q-7 -55 -7 -65q0 -26 -7.5 -38t-29.5 -12q-32 0 -39 25q-6 19 -7 57l-3 31q-60 399 -148 1123l-6 4l-1 -2l-1 -2q-79 -888 -102 -1119v-36q0 -81 -35 -81q-39 0 -39 46zM536 1671.5
q-13 14.5 -13 30.5q0 19 15.5 35t34.5 16q17 0 31 -16.5t14 -32.5q0 -47 -54 -47q-15 0 -28 14.5zM264.5 1665q-11.5 16 -11.5 35q0 18 15.5 34.5t33.5 16.5q20 0 30.5 -19.5t10.5 -47.5q0 -16 -15.5 -25.5t-35.5 -9.5q-16 0 -27.5 16z" />
    <glyph glyph-name="Wgrave" unicode="&#x1e80;" horiz-adv-x="944" 
d="M270 19q0 13 1 23t1 22v10q-6 50 -37 248l-18 112q-7 45 -39 320q-32 278 -63 505q-31 231 -45 254q6 11 18.5 19t24.5 8q31 0 42 -11t11 -36v-18q-1 -9 -1 -21q0 -17 1 -22q56 -601 133 -1253h4q8 57 24 325q18 284 22 334q5 63 24 180q20 118 24 166l7 93l3 42
q2 26 2 27q0 5 1 13t2 13q0 3 3.5 7t8.5 7q15 0 23.5 -3t13.5 -11t7 -14t4 -17l3 -18q21 -106 88.5 -564t81.5 -603l6 -4l76 829q6 84 26 246q21 179 21 276q0 11 -1 20t-1 19q0 25 11.5 37t41.5 12q13 0 26 -10t13 -22q0 -21 -22 -39q2 -6 2 -13q0 -10 -4 -26.5t-4 -18.5
q-21 -165 -55 -543q-34 -363 -42 -423q-8 -89 -17 -162l-23 -208q-1 -10 -4 -38q-7 -55 -7 -65q0 -26 -7.5 -38t-29.5 -12q-32 0 -39 25q-6 19 -7 57l-3 31q-60 399 -148 1123l-6 4l-1 -2l-1 -2q-79 -888 -102 -1119v-36q0 -81 -35 -81q-39 0 -39 46zM411 1636
q-90 51 -97 57h-11q-10 0 -22 2q-70 12 -62 52q6 36 20 42l13 -2q60 -10 74 -36l23 -12q21 -11 75 -44q48 -30 76 -53q34 -28 31 -45q-1 -6 -9.5 -10t-16.5 -3q-4 1 -94 52z" />
    <glyph glyph-name="X" unicode="X" horiz-adv-x="573" 
d="M81 -4q-11 8 -11 16q0 23 38 158q60 229 95 395l21 103q12 60 16 105q2 34 2 48q0 68 -11.5 141t-37.5 184q-24 99 -33 142q-4 19 -27 94q-22 72 -24 113q17 27 33 27q17 0 27 -9.5t12 -21.5q1 -7 1 -14.5t1 -15.5q2 -28 2 -27q12 -69 49 -245q38 -187 51 -267
q11 82 80 458q1 2 4 31q6 51 17 90q6 24 16.5 37.5t23.5 13.5q37 0 37 -22q0 -17 -12 -47q-11 -25 -14 -35q-27 -94 -84 -387q-4 -19 -10.5 -51t-10.5 -59q-13 -69 -17 -112q-3 -25 -3 -48l108 -553l22 -104l5 -25q4 -21 4 -39q0 -43 -33 -43q-14 0 -19.5 1t-11.5 7t-6 18
q0 47 -11 113l-10 59l-10 54q-56 284 -73 350q-8 -14 -59.5 -251.5t-65.5 -316.5l-2 -13q-2 -16 -5 -26q-2 -8 -9 -20q-4 -7 -11 -9t-9 -3q-10 -2 -15 -2q-9 0 -20 8z" />
    <glyph glyph-name="Y" unicode="Y" horiz-adv-x="516" 
d="M243.5 -9.5q-7.5 15.5 -7.5 34.5q0 50 5 197t5 198q0 31 -7 83t-7 83q0 33 -12 96q-13 61 -13 94q0 27 -21 116q-6 22 -8 32.5t-3 13.5l-27 141q-21 107 -36 174.5t-32 126.5q-30 98 -30 133q0 15 12 24t29 9l24 -16q4 -56 29 -194.5t54 -260.5t46 -145q3 9 20 177
q14 157 41 298q26 135 60 135h9q6 0 9.5 -1t7.5 -5q5 -5 5 -16q0 -14 -8 -44q-7 -27 -9 -40q-38 -209 -54 -305q-10 -63 -18.5 -148.5t-8.5 -151.5q0 -10 3 -33q3 -22 3 -34l-13 -31v-16q0 -35 8 -123q7 -77 7 -123q0 -293 -4 -414l6 -6q0 -4 1 -7t1 -7q0 -25 -12 -42.5
t-33 -17.5q-14 0 -21.5 15.5z" />
    <glyph glyph-name="Yacute" unicode="&#xdd;" horiz-adv-x="516" 
d="M243.5 -9.5q-7.5 15.5 -7.5 34.5q0 50 5 197t5 198q0 31 -7 83t-7 83q0 33 -12 96q-13 61 -13 94q0 27 -21 116q-6 22 -8 32.5t-3 13.5l-27 141q-21 107 -36 174.5t-32 126.5q-30 98 -30 133q0 15 12 24t29 9l24 -16q4 -56 29 -194.5t54 -260.5t46 -145q3 9 20 177
q14 157 41 298q26 135 60 135h9q6 0 9.5 -1t7.5 -5q5 -5 5 -16q0 -14 -8 -44q-7 -27 -9 -40q-38 -209 -54 -305q-10 -63 -18.5 -148.5t-8.5 -151.5q0 -10 3 -33q3 -22 3 -34l-13 -31v-16q0 -35 8 -123q7 -77 7 -123q0 -293 -4 -414l6 -6q0 -4 1 -7t1 -7q0 -25 -12 -42.5
t-33 -17.5q-14 0 -21.5 15.5zM188.5 1647q-10.5 8 -10.5 22q0 8 56 53q45 37 122 96q69 53 76 60q45 0 45 -32l-6 -31q-105 -47 -256 -176q-16 0 -26.5 8z" />
    <glyph glyph-name="Ycircumflex" unicode="&#x176;" horiz-adv-x="516" 
d="M243.5 -9.5q-7.5 15.5 -7.5 34.5q0 50 5 197t5 198q0 31 -7 83t-7 83q0 33 -12 96q-13 61 -13 94q0 27 -21 116q-6 22 -8 32.5t-3 13.5l-27 141q-21 107 -36 174.5t-32 126.5q-30 98 -30 133q0 15 12 24t29 9l24 -16q4 -56 29 -194.5t54 -260.5t46 -145q3 9 20 177
q14 157 41 298q26 135 60 135h9q6 0 9.5 -1t7.5 -5q5 -5 5 -16q0 -14 -8 -44q-7 -27 -9 -40q-38 -209 -54 -305q-10 -63 -18.5 -148.5t-8.5 -151.5q0 -10 3 -33q3 -22 3 -34l-13 -31v-16q0 -35 8 -123q7 -77 7 -123q0 -293 -4 -414l6 -6q0 -4 1 -7t1 -7q0 -25 -12 -42.5
t-33 -17.5q-14 0 -21.5 15.5zM284 1598q-11 129 -59 307q-9 -24 -31.5 -88t-36.5 -108q-16 -49 -18 -70l-35 -47l-37 26q1 30 36.5 116t76 158t59.5 72q29 0 29 -43q0 -38 9 -76t28 -89q15 -45 24 -74l-2 -13l15 -30l-2 -11q8 -18 8 -22q0 -19 -37 -25z" />
    <glyph glyph-name="Ydieresis" unicode="&#x178;" horiz-adv-x="516" 
d="M243.5 -9.5q-7.5 15.5 -7.5 34.5q0 50 5 197t5 198q0 31 -7 83t-7 83q0 33 -12 96q-13 61 -13 94q0 27 -21 116q-6 22 -8 32.5t-3 13.5l-27 141q-21 107 -36 174.5t-32 126.5q-30 98 -30 133q0 15 12 24t29 9l24 -16q4 -56 29 -194.5t54 -260.5t46 -145q3 9 20 177
q14 157 41 298q26 135 60 135h9q6 0 9.5 -1t7.5 -5q5 -5 5 -16q0 -14 -8 -44q-7 -27 -9 -40q-38 -209 -54 -305q-10 -63 -18.5 -148.5t-8.5 -151.5q0 -10 3 -33q3 -22 3 -34l-13 -31v-16q0 -35 8 -123q7 -77 7 -123q0 -293 -4 -414l6 -6q0 -4 1 -7t1 -7q0 -25 -12 -42.5
t-33 -17.5q-14 0 -21.5 15.5zM323 1671.5q-13 14.5 -13 30.5q0 19 15.5 35t34.5 16q17 0 31 -16.5t14 -32.5q0 -47 -54 -47q-15 0 -28 14.5zM51.5 1665q-11.5 16 -11.5 35q0 18 15.5 34.5t33.5 16.5q20 0 30.5 -19.5t10.5 -47.5q0 -16 -15.5 -25.5t-35.5 -9.5
q-16 0 -27.5 16z" />
    <glyph glyph-name="uni1EF4" unicode="&#x1ef4;" horiz-adv-x="516" 
d="M243.5 -9.5q-7.5 15.5 -7.5 34.5q0 50 5 197t5 198q0 31 -7 83t-7 83q0 33 -12 96q-13 61 -13 94q0 27 -21 116q-6 22 -8 32.5t-3 13.5l-27 141q-21 107 -36 174.5t-32 126.5q-30 98 -30 133q0 15 12 24t29 9l24 -16q4 -56 29 -194.5t54 -260.5t46 -145q3 9 20 177
q14 157 41 298q26 135 60 135h9q6 0 9.5 -1t7.5 -5q5 -5 5 -16q0 -14 -8 -44q-7 -27 -9 -40q-38 -209 -54 -305q-10 -63 -18.5 -148.5t-8.5 -151.5q0 -10 3 -33q3 -22 3 -34l-13 -31v-16q0 -35 8 -123q7 -77 7 -123q0 -293 -4 -414l6 -6q0 -4 1 -7t1 -7q0 -25 -12 -42.5
t-33 -17.5q-14 0 -21.5 15.5zM220.5 -224.5q-13.5 15.5 -13.5 33.5q0 20 16.5 37.5t36.5 17.5q18 0 33.5 -17.5t15.5 -35.5q0 -51 -57 -51q-18 0 -31.5 15.5z" />
    <glyph glyph-name="Ygrave" unicode="&#x1ef2;" horiz-adv-x="516" 
d="M243.5 -9.5q-7.5 15.5 -7.5 34.5q0 50 5 197t5 198q0 31 -7 83t-7 83q0 33 -12 96q-13 61 -13 94q0 27 -21 116q-6 22 -8 32.5t-3 13.5l-27 141q-21 107 -36 174.5t-32 126.5q-30 98 -30 133q0 15 12 24t29 9l24 -16q4 -56 29 -194.5t54 -260.5t46 -145q3 9 20 177
q14 157 41 298q26 135 60 135h9q6 0 9.5 -1t7.5 -5q5 -5 5 -16q0 -14 -8 -44q-7 -27 -9 -40q-38 -209 -54 -305q-10 -63 -18.5 -148.5t-8.5 -151.5q0 -10 3 -33q3 -22 3 -34l-13 -31v-16q0 -35 8 -123q7 -77 7 -123q0 -293 -4 -414l6 -6q0 -4 1 -7t1 -7q0 -25 -12 -42.5
t-33 -17.5q-14 0 -21.5 15.5zM198 1636q-90 51 -97 57h-11q-10 0 -22 2q-70 12 -62 52q6 36 20 42l13 -2q60 -10 74 -36l23 -12q21 -11 75 -44q48 -30 76 -53q34 -28 31 -45q-1 -6 -9.5 -10t-16.5 -3q-4 1 -94 52z" />
    <glyph glyph-name="uni1EF6" unicode="&#x1ef6;" horiz-adv-x="516" 
d="M243.5 -9.5q-7.5 15.5 -7.5 34.5q0 50 5 197t5 198q0 31 -7 83t-7 83q0 33 -12 96q-13 61 -13 94q0 27 -21 116q-6 22 -8 32.5t-3 13.5l-27 141q-21 107 -36 174.5t-32 126.5q-30 98 -30 133q0 15 12 24t29 9l24 -16q4 -56 29 -194.5t54 -260.5t46 -145q3 9 20 177
q14 157 41 298q26 135 60 135h9q6 0 9.5 -1t7.5 -5q5 -5 5 -16q0 -14 -8 -44q-7 -27 -9 -40q-38 -209 -54 -305q-10 -63 -18.5 -148.5t-8.5 -151.5q0 -10 3 -33q3 -22 3 -34l-13 -31v-16q0 -35 8 -123q7 -77 7 -123q0 -293 -4 -414l6 -6q0 -4 1 -7t1 -7q0 -25 -12 -42.5
t-33 -17.5q-14 0 -21.5 15.5zM206 1597v11q0 15 11.5 26t35.5 28q21 13 32 24t11 23q0 39 -66 39q-38 0 -56.5 -10t-18.5 -33q0 -13 3 -27q-13 -5 -20 -5q-29 0 -29 36q0 33 29 55.5t92 22.5q64 0 90 -20t26 -58q0 -19 -13.5 -33t-40.5 -33q-21 -15 -30.5 -24t-9.5 -20v-13
q-8 -13 -23 -13q-20 0 -23 24z" />
    <glyph glyph-name="uni0232" unicode="&#x232;" horiz-adv-x="516" 
d="M243.5 -9.5q-7.5 15.5 -7.5 34.5q0 50 5 197t5 198q0 31 -7 83t-7 83q0 33 -12 96q-13 61 -13 94q0 27 -21 116q-6 22 -8 32.5t-3 13.5l-27 141q-21 107 -36 174.5t-32 126.5q-30 98 -30 133q0 15 12 24t29 9l24 -16q4 -56 29 -194.5t54 -260.5t46 -145q3 9 20 177
q14 157 41 298q26 135 60 135h9q6 0 9.5 -1t7.5 -5q5 -5 5 -16q0 -14 -8 -44q-7 -27 -9 -40q-38 -209 -54 -305q-10 -63 -18.5 -148.5t-8.5 -151.5q0 -10 3 -33q3 -22 3 -34l-13 -31v-16q0 -35 8 -123q7 -77 7 -123q0 -293 -4 -414l6 -6q0 -4 1 -7t1 -7q0 -25 -12 -42.5
t-33 -17.5q-14 0 -21.5 15.5zM64 1678q-33 7 -39 15q-5 7 -5 14q2 17 131 17h116q35 0 58 -0.5t46 -3.5q24 -3 34 -10t10 -19q-2 -17 -131 -17h-115h-40q-46 0 -65 4z" />
    <glyph glyph-name="uni1EF8" unicode="&#x1ef8;" horiz-adv-x="516" 
d="M243.5 -9.5q-7.5 15.5 -7.5 34.5q0 50 5 197t5 198q0 31 -7 83t-7 83q0 33 -12 96q-13 61 -13 94q0 27 -21 116q-6 22 -8 32.5t-3 13.5l-27 141q-21 107 -36 174.5t-32 126.5q-30 98 -30 133q0 15 12 24t29 9l24 -16q4 -56 29 -194.5t54 -260.5t46 -145q3 9 20 177
q14 157 41 298q26 135 60 135h9q6 0 9.5 -1t7.5 -5q5 -5 5 -16q0 -14 -8 -44q-7 -27 -9 -40q-38 -209 -54 -305q-10 -63 -18.5 -148.5t-8.5 -151.5q0 -10 3 -33q3 -22 3 -34l-13 -31v-16q0 -35 8 -123q7 -77 7 -123q0 -293 -4 -414l6 -6q0 -4 1 -7t1 -7q0 -25 -12 -42.5
t-33 -17.5q-14 0 -21.5 15.5zM15 1618.5q-13 11.5 -13 23.5q0 64 34.5 103t84.5 39q51 0 87 -42q15 -30 51 -54.5t66 -24.5q53 0 53 73q0 6 -5 21q-5 10 -7 18q6 12 21 12q23 0 35 -20.5t12 -49.5q0 -28 -15.5 -53t-40.5 -40t-53 -15q-34 0 -71 20t-59 43q-19 19 -52 58
l-14 6q-30 0 -53 -16t-23 -39q0 -10 10 -43l-22 -31q-13 0 -26 11.5z" />
    <glyph glyph-name="Z" unicode="Z" horiz-adv-x="505" 
d="M70 8q41 72 63 167t36 232q15 132 26 181l16 114q59 425 78 566l4 32l6 39q16 101 17 160q-16 0 -68 -5t-70 -5q-92 0 -92 41l15 16q15 -4 49 -4q30 0 96 11q60 10 96 10q33 0 33 -37q-13 -28 -20 -75t-12 -122q-4 -64 -9 -90q1 4 -35 -265l-26 -199q-51 -391 -82 -580
q-3 -23 -25 -74t-22 -82q19 0 67 5t66 5q86 0 86 -41l-19 -18q-50 0 -121 -4q-72 -4 -122 -4q-20 0 -31 26z" />
    <glyph glyph-name="Zacute" unicode="&#x179;" horiz-adv-x="505" 
d="M70 8q41 72 63 167t36 232q15 132 26 181l16 114q59 425 78 566l4 32l6 39q16 101 17 160q-16 0 -68 -5t-70 -5q-92 0 -92 41l15 16q15 -4 49 -4q30 0 96 11q60 10 96 10q33 0 33 -37q-13 -28 -20 -75t-12 -122q-4 -64 -9 -90q1 4 -35 -265l-26 -199q-51 -391 -82 -580
q-3 -23 -25 -74t-22 -82q19 0 67 5t66 5q86 0 86 -41l-19 -18q-50 0 -121 -4q-72 -4 -122 -4q-20 0 -31 26zM193.5 1647q-10.5 8 -10.5 22q0 8 56 53q45 37 122 96q69 53 76 60q45 0 45 -32l-6 -31q-105 -47 -256 -176q-16 0 -26.5 8z" />
    <glyph glyph-name="Zcaron" unicode="&#x17d;" horiz-adv-x="505" 
d="M70 8q41 72 63 167t36 232q15 132 26 181l16 114q59 425 78 566l4 32l6 39q16 101 17 160q-16 0 -68 -5t-70 -5q-92 0 -92 41l15 16q15 -4 49 -4q30 0 96 11q60 10 96 10q33 0 33 -37q-13 -28 -20 -75t-12 -122q-4 -64 -9 -90q1 4 -35 -265l-26 -199q-51 -391 -82 -580
q-3 -23 -25 -74t-22 -82q19 0 67 5t66 5q86 0 86 -41l-19 -18q-50 0 -121 -4q-72 -4 -122 -4q-20 0 -31 26zM194.5 1677q-40.5 72 -76 158t-36.5 116l37 27l35 -47q2 -21 18 -70q14 -44 36.5 -108t31.5 -88q48 178 59 307l27 16q37 -6 37 -24q0 -5 -8 -23l2 -10l-15 -31
l2 -12q-9 -29 -24 -74q-19 -52 -28 -90t-9 -76q0 -43 -29 -43q-19 0 -59.5 72z" />
    <glyph glyph-name="Zdotaccent" unicode="&#x17b;" horiz-adv-x="505" 
d="M70 8q41 72 63 167t36 232q15 132 26 181l16 114q59 425 78 566l4 32l6 39q16 101 17 160q-16 0 -68 -5t-70 -5q-92 0 -92 41l15 16q15 -4 49 -4q30 0 96 11q60 10 96 10q33 0 33 -37q-13 -28 -20 -75t-12 -122q-4 -64 -9 -90q1 4 -35 -265l-26 -199q-51 -391 -82 -580
q-3 -23 -25 -74t-22 -82q19 0 67 5t66 5q86 0 86 -41l-19 -18q-50 0 -121 -4q-72 -4 -122 -4q-20 0 -31 26zM185.5 1661.5q-13.5 15.5 -13.5 33.5q0 20 16.5 37.5t36.5 17.5q18 0 33.5 -17.5t15.5 -35.5q0 -51 -57 -51q-18 0 -31.5 15.5z" />
    <glyph glyph-name="a" unicode="a" horiz-adv-x="642" 
d="M520 -15.5q-9 2.5 -13 11.5t-7 31l-34 268q-37 10 -101 10q-23 0 -75 5t-71 5q-7 0 -10 -2t-4 -7q-1 -2 -1 -4t-1 -3l-4 -41q-5 -52 -23 -147q-11 -52 -24 -86q-15 -35 -31 -35q-13 0 -27 11.5t-14 23.5l2 6l2 6q34 131 62 289l23 127q7 37 14 83l12 72l22 135
q9 57 36 179q26 125 36 190l8 75l4 33q5 55 10 83q8 52 13 61l14 -1q6 -1 14 -1q25 0 37 12q14 0 25.5 -9t11.5 -22q0 -58 3.5 -106.5t11.5 -118.5l12 -108q25 -289 114 -992v-6q0 -21 -16 -30q-22 0 -31 2.5zM457 350q-15 215 -78 871q-106 -527 -111 -547
q-47 -233 -47 -298q0 -10 79 -18t136 -8h21z" />
    <glyph glyph-name="aacute" unicode="&#xe1;" horiz-adv-x="642" 
d="M520 -15.5q-9 2.5 -13 11.5t-7 31l-34 268q-37 10 -101 10q-23 0 -75 5t-71 5q-7 0 -10 -2t-4 -7q-1 -2 -1 -4t-1 -3l-4 -41q-5 -52 -23 -147q-11 -52 -24 -86q-15 -35 -31 -35q-13 0 -27 11.5t-14 23.5l2 6l2 6q34 131 62 289l23 127q7 37 14 83l12 72l22 135
q9 57 36 179q26 125 36 190l8 75l4 33q5 55 10 83q8 52 13 61l14 -1q6 -1 14 -1q25 0 37 12q14 0 25.5 -9t11.5 -22q0 -58 3.5 -106.5t11.5 -118.5l12 -108q25 -289 114 -992v-6q0 -21 -16 -30q-22 0 -31 2.5zM457 350q-15 215 -78 871q-106 -527 -111 -547
q-47 -233 -47 -298q0 -10 79 -18t136 -8h21zM354.5 1427q-10.5 8 -10.5 22q0 8 56 53q45 37 122 96q69 53 76 60q45 0 45 -32l-6 -31q-105 -47 -256 -176q-16 0 -26.5 8z" />
    <glyph glyph-name="abreve" unicode="&#x103;" horiz-adv-x="642" 
d="M520 -15.5q-9 2.5 -13 11.5t-7 31l-34 268q-37 10 -101 10q-23 0 -75 5t-71 5q-7 0 -10 -2t-4 -7q-1 -2 -1 -4t-1 -3l-4 -41q-5 -52 -23 -147q-11 -52 -24 -86q-15 -35 -31 -35q-13 0 -27 11.5t-14 23.5l2 6l2 6q34 131 62 289l23 127q7 37 14 83l12 72l22 135
q9 57 36 179q26 125 36 190l8 75l4 33q5 55 10 83q8 52 13 61l14 -1q6 -1 14 -1q25 0 37 12q14 0 25.5 -9t11.5 -22q0 -58 3.5 -106.5t11.5 -118.5l12 -108q25 -289 114 -992v-6q0 -21 -16 -30q-22 0 -31 2.5zM457 350q-15 215 -78 871q-106 -527 -111 -547
q-47 -233 -47 -298q0 -10 79 -18t136 -8h21zM306.5 1442.5q-30.5 18.5 -46.5 51.5q-31 63 -31 139l22 18q14 -2 20 -32q8 -47 19 -81.5t33 -50.5l22 -16h51q17 0 33.5 17.5t26.5 42t10 44.5q0 8 -1 15q-1 6 -1 14q0 39 37 39q12 0 21.5 -8.5t9.5 -20.5q0 -4 -5 -17l-6 -15
l5 -15l-6 -12t-10 -23q-9 -21 -15.5 -34t-17.5 -29q-11 -17 -22.5 -24t-32.5 -14q-18 -7 -44 -7q-41 0 -71.5 18.5z" />
    <glyph glyph-name="uni1EAF" unicode="&#x1eaf;" horiz-adv-x="642" 
d="M520 -15.5q-9 2.5 -13 11.5t-7 31l-34 268q-37 10 -101 10q-23 0 -75 5t-71 5q-7 0 -10 -2t-4 -7q-1 -2 -1 -4t-1 -3l-4 -41q-5 -52 -23 -147q-11 -52 -24 -86q-15 -35 -31 -35q-13 0 -27 11.5t-14 23.5l2 6l2 6q34 131 62 289l23 127q7 37 14 83l12 72l22 135
q9 57 36 179q26 125 36 190l8 75l4 33q5 55 10 83q8 52 13 61l14 -1q6 -1 14 -1q25 0 37 12q14 0 25.5 -9t11.5 -22q0 -58 3.5 -106.5t11.5 -118.5l12 -108q25 -289 114 -992v-6q0 -21 -16 -30q-22 0 -31 2.5zM457 350q-15 215 -78 871q-106 -527 -111 -547
q-47 -233 -47 -298q0 -10 79 -18t136 -8h21zM306.5 1442.5q-30.5 18.5 -46.5 51.5q-31 63 -31 139l22 18q14 -2 20 -32q8 -47 19 -81.5t33 -50.5l22 -16h51q17 0 33.5 17.5t26.5 42t10 44.5q0 8 -1 15q-1 6 -1 14q0 39 37 39q12 0 21.5 -8.5t9.5 -20.5q0 -4 -5 -17l-6 -15
l5 -15l-6 -12t-10 -23q-9 -21 -15.5 -34t-17.5 -29q-11 -17 -22.5 -24t-32.5 -14q-18 -7 -44 -7q-41 0 -71.5 18.5zM354.5 1709q-10.5 8 -10.5 22q0 8 56 53q45 37 122 96q69 53 76 60q45 0 45 -32l-6 -31q-105 -47 -256 -176q-16 0 -26.5 8z" />
    <glyph glyph-name="uni1EB7" unicode="&#x1eb7;" horiz-adv-x="642" 
d="M520 -15.5q-9 2.5 -13 11.5t-7 31l-34 268q-37 10 -101 10q-23 0 -75 5t-71 5q-7 0 -10 -2t-4 -7q-1 -2 -1 -4t-1 -3l-4 -41q-5 -52 -23 -147q-11 -52 -24 -86q-15 -35 -31 -35q-13 0 -27 11.5t-14 23.5l2 6l2 6q34 131 62 289l23 127q7 37 14 83l12 72l22 135
q9 57 36 179q26 125 36 190l8 75l4 33q5 55 10 83q8 52 13 61l14 -1q6 -1 14 -1q25 0 37 12q14 0 25.5 -9t11.5 -22q0 -58 3.5 -106.5t11.5 -118.5l12 -108q25 -289 114 -992v-6q0 -21 -16 -30q-22 0 -31 2.5zM457 350q-15 215 -78 871q-106 -527 -111 -547
q-47 -233 -47 -298q0 -10 79 -18t136 -8h21zM283.5 -224.5q-13.5 15.5 -13.5 33.5q0 20 16.5 37.5t36.5 17.5q18 0 33.5 -17.5t15.5 -35.5q0 -51 -57 -51q-18 0 -31.5 15.5zM306.5 1442.5q-30.5 18.5 -46.5 51.5q-31 63 -31 139l22 18q14 -2 20 -32q8 -47 19 -81.5t33 -50.5
l22 -16h51q17 0 33.5 17.5t26.5 42t10 44.5q0 8 -1 15q-1 6 -1 14q0 39 37 39q12 0 21.5 -8.5t9.5 -20.5q0 -4 -5 -17l-6 -15l5 -15l-6 -12t-10 -23q-9 -21 -15.5 -34t-17.5 -29q-11 -17 -22.5 -24t-32.5 -14q-18 -7 -44 -7q-41 0 -71.5 18.5z" />
    <glyph glyph-name="uni1EB1" unicode="&#x1eb1;" horiz-adv-x="642" 
d="M520 -15.5q-9 2.5 -13 11.5t-7 31l-34 268q-37 10 -101 10q-23 0 -75 5t-71 5q-7 0 -10 -2t-4 -7q-1 -2 -1 -4t-1 -3l-4 -41q-5 -52 -23 -147q-11 -52 -24 -86q-15 -35 -31 -35q-13 0 -27 11.5t-14 23.5l2 6l2 6q34 131 62 289l23 127q7 37 14 83l12 72l22 135
q9 57 36 179q26 125 36 190l8 75l4 33q5 55 10 83q8 52 13 61l14 -1q6 -1 14 -1q25 0 37 12q14 0 25.5 -9t11.5 -22q0 -58 3.5 -106.5t11.5 -118.5l12 -108q25 -289 114 -992v-6q0 -21 -16 -30q-22 0 -31 2.5zM457 350q-15 215 -78 871q-106 -527 -111 -547
q-47 -233 -47 -298q0 -10 79 -18t136 -8h21zM306.5 1442.5q-30.5 18.5 -46.5 51.5q-31 63 -31 139l22 18q14 -2 20 -32q8 -47 19 -81.5t33 -50.5l22 -16h51q17 0 33.5 17.5t26.5 42t10 44.5q0 8 -1 15q-1 6 -1 14q0 39 37 39q12 0 21.5 -8.5t9.5 -20.5q0 -4 -5 -17l-6 -15
l5 -15l-6 -12t-10 -23q-9 -21 -15.5 -34t-17.5 -29q-11 -17 -22.5 -24t-32.5 -14q-18 -7 -44 -7q-41 0 -71.5 18.5zM362.5 1754.5q-97.5 34.5 -105.5 39.5q-17 -4 -33 -4q-70 0 -70 41q0 36 13 45h13q61 0 79 -23q2 -1 8.5 -3t16.5 -5q27 -9 81 -30q50 -20 84 -39
q39 -22 39 -39q0 -6 -8.5 -11.5t-15.5 -5.5q-4 0 -101.5 34.5z" />
    <glyph glyph-name="uni1EB3" unicode="&#x1eb3;" horiz-adv-x="642" 
d="M520 -15.5q-9 2.5 -13 11.5t-7 31l-34 268q-37 10 -101 10q-23 0 -75 5t-71 5q-7 0 -10 -2t-4 -7q-1 -2 -1 -4t-1 -3l-4 -41q-5 -52 -23 -147q-11 -52 -24 -86q-15 -35 -31 -35q-13 0 -27 11.5t-14 23.5l2 6l2 6q34 131 62 289l23 127q7 37 14 83l12 72l22 135
q9 57 36 179q26 125 36 190l8 75l4 33q5 55 10 83q8 52 13 61l14 -1q6 -1 14 -1q25 0 37 12q14 0 25.5 -9t11.5 -22q0 -58 3.5 -106.5t11.5 -118.5l12 -108q25 -289 114 -992v-6q0 -21 -16 -30q-22 0 -31 2.5zM457 350q-15 215 -78 871q-106 -527 -111 -547
q-47 -233 -47 -298q0 -10 79 -18t136 -8h21zM306.5 1442.5q-30.5 18.5 -46.5 51.5q-31 63 -31 139l22 18q14 -2 20 -32q8 -47 19 -81.5t33 -50.5l22 -16h51q17 0 33.5 17.5t26.5 42t10 44.5q0 8 -1 15q-1 6 -1 14q0 39 37 39q12 0 21.5 -8.5t9.5 -20.5q0 -4 -5 -17l-6 -15
l5 -15l-6 -12t-10 -23q-9 -21 -15.5 -34t-17.5 -29q-11 -17 -22.5 -24t-32.5 -14q-18 -7 -44 -7q-41 0 -71.5 18.5zM359 1690v11q0 15 11.5 26t35.5 28q21 13 32 24t11 23q0 39 -66 39q-38 0 -56.5 -10t-18.5 -33q0 -13 3 -27q-13 -5 -20 -5q-29 0 -29 36q0 33 29 55.5
t92 22.5q64 0 90 -20t26 -58q0 -19 -13.5 -33t-40.5 -33q-21 -15 -30.5 -24t-9.5 -20v-13q-8 -13 -23 -13q-20 0 -23 24z" />
    <glyph glyph-name="uni1EB5" unicode="&#x1eb5;" horiz-adv-x="642" 
d="M520 -15.5q-9 2.5 -13 11.5t-7 31l-34 268q-37 10 -101 10q-23 0 -75 5t-71 5q-7 0 -10 -2t-4 -7q-1 -2 -1 -4t-1 -3l-4 -41q-5 -52 -23 -147q-11 -52 -24 -86q-15 -35 -31 -35q-13 0 -27 11.5t-14 23.5l2 6l2 6q34 131 62 289l23 127q7 37 14 83l12 72l22 135
q9 57 36 179q26 125 36 190l8 75l4 33q5 55 10 83q8 52 13 61l14 -1q6 -1 14 -1q25 0 37 12q14 0 25.5 -9t11.5 -22q0 -58 3.5 -106.5t11.5 -118.5l12 -108q25 -289 114 -992v-6q0 -21 -16 -30q-22 0 -31 2.5zM457 350q-15 215 -78 871q-106 -527 -111 -547
q-47 -233 -47 -298q0 -10 79 -18t136 -8h21zM306.5 1442.5q-30.5 18.5 -46.5 51.5q-31 63 -31 139l22 18q14 -2 20 -32q8 -47 19 -81.5t33 -50.5l22 -16h51q17 0 33.5 17.5t26.5 42t10 44.5q0 8 -1 15q-1 6 -1 14q0 39 37 39q12 0 21.5 -8.5t9.5 -20.5q0 -4 -5 -17l-6 -15
l5 -15l-6 -12t-10 -23q-9 -21 -15.5 -34t-17.5 -29q-11 -17 -22.5 -24t-32.5 -14q-18 -7 -44 -7q-41 0 -71.5 18.5zM178 1711.5q-13 11.5 -13 23.5q0 64 34.5 103t84.5 39q51 0 87 -42q15 -30 51 -54.5t66 -24.5q53 0 53 73q0 6 -5 21q-5 10 -7 18q6 12 21 12q23 0 35 -20.5
t12 -49.5q0 -28 -15.5 -53t-40.5 -40t-53 -15q-34 0 -71 20t-59 43q-19 19 -52 58l-14 6q-30 0 -53 -16t-23 -39q0 -10 10 -43l-22 -31q-13 0 -26 11.5z" />
    <glyph glyph-name="uni01CE" unicode="&#x1ce;" horiz-adv-x="642" 
d="M520 -15.5q-9 2.5 -13 11.5t-7 31l-34 268q-37 10 -101 10q-23 0 -75 5t-71 5q-7 0 -10 -2t-4 -7q-1 -2 -1 -4t-1 -3l-4 -41q-5 -52 -23 -147q-11 -52 -24 -86q-15 -35 -31 -35q-13 0 -27 11.5t-14 23.5l2 6l2 6q34 131 62 289l23 127q7 37 14 83l12 72l22 135
q9 57 36 179q26 125 36 190l8 75l4 33q5 55 10 83q8 52 13 61l14 -1q6 -1 14 -1q25 0 37 12q14 0 25.5 -9t11.5 -22q0 -58 3.5 -106.5t11.5 -118.5l12 -108q25 -289 114 -992v-6q0 -21 -16 -30q-22 0 -31 2.5zM457 350q-15 215 -78 871q-106 -527 -111 -547
q-47 -233 -47 -298q0 -10 79 -18t136 -8h21zM322.5 1477q-40.5 72 -76 158t-36.5 116l37 27l35 -47q2 -21 18 -70q14 -44 36.5 -108t31.5 -88q48 178 59 307l27 16q37 -6 37 -24q0 -5 -8 -23l2 -10l-15 -31l2 -12q-9 -29 -24 -74q-19 -52 -28 -90t-9 -76q0 -43 -29 -43
q-19 0 -59.5 72z" />
    <glyph glyph-name="acircumflex" unicode="&#xe2;" horiz-adv-x="642" 
d="M520 -15.5q-9 2.5 -13 11.5t-7 31l-34 268q-37 10 -101 10q-23 0 -75 5t-71 5q-7 0 -10 -2t-4 -7q-1 -2 -1 -4t-1 -3l-4 -41q-5 -52 -23 -147q-11 -52 -24 -86q-15 -35 -31 -35q-13 0 -27 11.5t-14 23.5l2 6l2 6q34 131 62 289l23 127q7 37 14 83l12 72l22 135
q9 57 36 179q26 125 36 190l8 75l4 33q5 55 10 83q8 52 13 61l14 -1q6 -1 14 -1q25 0 37 12q14 0 25.5 -9t11.5 -22q0 -58 3.5 -106.5t11.5 -118.5l12 -108q25 -289 114 -992v-6q0 -21 -16 -30q-22 0 -31 2.5zM457 350q-15 215 -78 871q-106 -527 -111 -547
q-47 -233 -47 -298q0 -10 79 -18t136 -8h21zM457 1398q-11 129 -59 307q-9 -24 -31.5 -88t-36.5 -108q-16 -49 -18 -70l-35 -47l-37 26q1 30 36.5 116t76 158t59.5 72q29 0 29 -43q0 -38 9 -76t28 -89q15 -45 24 -74l-2 -13l15 -30l-2 -11q8 -18 8 -22q0 -19 -37 -25z" />
    <glyph glyph-name="uni1EA5" unicode="&#x1ea5;" horiz-adv-x="642" 
d="M520 -15.5q-9 2.5 -13 11.5t-7 31l-34 268q-37 10 -101 10q-23 0 -75 5t-71 5q-7 0 -10 -2t-4 -7q-1 -2 -1 -4t-1 -3l-4 -41q-5 -52 -23 -147q-11 -52 -24 -86q-15 -35 -31 -35q-13 0 -27 11.5t-14 23.5l2 6l2 6q34 131 62 289l23 127q7 37 14 83l12 72l22 135
q9 57 36 179q26 125 36 190l8 75l4 33q5 55 10 83q8 52 13 61l14 -1q6 -1 14 -1q25 0 37 12q14 0 25.5 -9t11.5 -22q0 -58 3.5 -106.5t11.5 -118.5l12 -108q25 -289 114 -992v-6q0 -21 -16 -30q-22 0 -31 2.5zM457 350q-15 215 -78 871q-106 -527 -111 -547
q-47 -233 -47 -298q0 -10 79 -18t136 -8h21zM457 1412q-11 129 -59 307q-9 -24 -31.5 -88t-36.5 -108q-16 -49 -18 -70l-35 -47l-37 26q1 30 36.5 116t76 158t59.5 72q29 0 29 -43q0 -38 9 -76t28 -89q15 -45 24 -74l-2 -13l15 -30l-2 -11q8 -18 8 -22q0 -19 -37 -25z
M497.5 1629q-10.5 8 -10.5 22q0 8 56 53q45 37 122 96q69 53 76 60q45 0 45 -32l-6 -31q-105 -47 -256 -176q-16 0 -26.5 8z" />
    <glyph glyph-name="uni1EAD" unicode="&#x1ead;" horiz-adv-x="642" 
d="M520 -15.5q-9 2.5 -13 11.5t-7 31l-34 268q-37 10 -101 10q-23 0 -75 5t-71 5q-7 0 -10 -2t-4 -7q-1 -2 -1 -4t-1 -3l-4 -41q-5 -52 -23 -147q-11 -52 -24 -86q-15 -35 -31 -35q-13 0 -27 11.5t-14 23.5l2 6l2 6q34 131 62 289l23 127q7 37 14 83l12 72l22 135
q9 57 36 179q26 125 36 190l8 75l4 33q5 55 10 83q8 52 13 61l14 -1q6 -1 14 -1q25 0 37 12q14 0 25.5 -9t11.5 -22q0 -58 3.5 -106.5t11.5 -118.5l12 -108q25 -289 114 -992v-6q0 -21 -16 -30q-22 0 -31 2.5zM457 350q-15 215 -78 871q-106 -527 -111 -547
q-47 -233 -47 -298q0 -10 79 -18t136 -8h21zM283.5 -224.5q-13.5 15.5 -13.5 33.5q0 20 16.5 37.5t36.5 17.5q18 0 33.5 -17.5t15.5 -35.5q0 -51 -57 -51q-18 0 -31.5 15.5zM457 1398q-11 129 -59 307q-9 -24 -31.5 -88t-36.5 -108q-16 -49 -18 -70l-35 -47l-37 26
q1 30 36.5 116t76 158t59.5 72q29 0 29 -43q0 -38 9 -76t28 -89q15 -45 24 -74l-2 -13l15 -30l-2 -11q8 -18 8 -22q0 -19 -37 -25z" />
    <glyph glyph-name="uni1EA7" unicode="&#x1ea7;" horiz-adv-x="642" 
d="M155 1720q-57 67 -62 75q-13 4 -31 13q-45 27 -45 53q0 8 5 18q18 31 34 32l11 -6q52 -31 57 -60l18 -19q16 -19 55 -67q36 -45 53 -76q16 -25 16 -43q0 -7 -2 -10q-3 -6 -14 -6q-9 0 -15 3q-23 26 -80 93zM445 1415q-11 129 -59 307q-9 -24 -31.5 -88t-36.5 -108
q-16 -49 -18 -70l-35 -47l-37 26q1 30 36.5 116t76 158t59.5 72q29 0 29 -43q0 -38 9 -76t28 -89q15 -45 24 -74l-2 -13l15 -30l-2 -11q8 -18 8 -22q0 -19 -37 -25zM520 -15.5q-9 2.5 -13 11.5t-7 31l-34 268q-37 10 -101 10q-23 0 -75 5t-71 5q-7 0 -10 -2t-4 -7
q-1 -2 -1 -4t-1 -3l-4 -41q-5 -52 -23 -147q-11 -52 -24 -86q-15 -35 -31 -35q-13 0 -27 11.5t-14 23.5l2 6l2 6q34 131 62 289l23 127q7 37 14 83l12 72l22 135q9 57 36 179q26 125 36 190l8 75l4 33q5 55 10 83q8 52 13 61l14 -1q6 -1 14 -1q25 0 37 12q14 0 25.5 -9
t11.5 -22q0 -58 3.5 -106.5t11.5 -118.5l12 -108q25 -289 114 -992v-6q0 -21 -16 -30q-22 0 -31 2.5zM457 350q-15 215 -78 871q-106 -527 -111 -547q-47 -233 -47 -298q0 -10 79 -18t136 -8h21z" />
    <glyph glyph-name="uni1EA9" unicode="&#x1ea9;" horiz-adv-x="642" 
d="M520 -15.5q-9 2.5 -13 11.5t-7 31l-34 268q-37 10 -101 10q-23 0 -75 5t-71 5q-7 0 -10 -2t-4 -7q-1 -2 -1 -4t-1 -3l-4 -41q-5 -52 -23 -147q-11 -52 -24 -86q-15 -35 -31 -35q-13 0 -27 11.5t-14 23.5l2 6l2 6q34 131 62 289l23 127q7 37 14 83l12 72l22 135
q9 57 36 179q26 125 36 190l8 75l4 33q5 55 10 83q8 52 13 61l14 -1q6 -1 14 -1q25 0 37 12q14 0 25.5 -9t11.5 -22q0 -58 3.5 -106.5t11.5 -118.5l12 -108q25 -289 114 -992v-6q0 -21 -16 -30q-22 0 -31 2.5zM457 350q-15 215 -78 871q-106 -527 -111 -547
q-47 -233 -47 -298q0 -10 79 -18t136 -8h21zM461 1419q-11 129 -59 307q-9 -24 -31.5 -88t-36.5 -108q-16 -49 -18 -70l-35 -47l-37 26q1 30 36.5 116t76 158t59.5 72q29 0 29 -43q0 -38 9 -76t28 -89q15 -45 24 -74l-2 -13l15 -30l-2 -11q8 -18 8 -22q0 -19 -37 -25z
M602 1636v11q0 15 11.5 26t35.5 28q21 13 32 24t11 23q0 39 -66 39q-38 0 -56.5 -10t-18.5 -33q0 -13 3 -27q-13 -5 -20 -5q-29 0 -29 36q0 33 29 55.5t92 22.5q64 0 90 -20t26 -58q0 -19 -13.5 -33t-40.5 -33q-21 -15 -30.5 -24t-9.5 -20v-13q-8 -13 -23 -13q-20 0 -23 24z
" />
    <glyph glyph-name="uni1EAB" unicode="&#x1eab;" horiz-adv-x="642" 
d="M520 -15.5q-9 2.5 -13 11.5t-7 31l-34 268q-37 10 -101 10q-23 0 -75 5t-71 5q-7 0 -10 -2t-4 -7q-1 -2 -1 -4t-1 -3l-4 -41q-5 -52 -23 -147q-11 -52 -24 -86q-15 -35 -31 -35q-13 0 -27 11.5t-14 23.5l2 6l2 6q34 131 62 289l23 127q7 37 14 83l12 72l22 135
q9 57 36 179q26 125 36 190l8 75l4 33q5 55 10 83q8 52 13 61l14 -1q6 -1 14 -1q25 0 37 12q14 0 25.5 -9t11.5 -22q0 -58 3.5 -106.5t11.5 -118.5l12 -108q25 -289 114 -992v-6q0 -21 -16 -30q-22 0 -31 2.5zM457 350q-15 215 -78 871q-106 -527 -111 -547
q-47 -233 -47 -298q0 -10 79 -18t136 -8h21zM457 1398q-11 129 -59 307q-9 -24 -31.5 -88t-36.5 -108q-16 -49 -18 -70l-35 -47l-37 26q1 30 36.5 116t76 158t59.5 72q29 0 29 -43q0 -38 9 -76t28 -89q15 -45 24 -74l-2 -13l15 -30l-2 -11q8 -18 8 -22q0 -19 -37 -25z
M178 1824.5q-13 11.5 -13 23.5q0 64 34.5 103t84.5 39q51 0 87 -42q15 -30 51 -54.5t66 -24.5q53 0 53 73q0 6 -5 21q-5 10 -7 18q6 12 21 12q23 0 35 -20.5t12 -49.5q0 -28 -15.5 -53t-40.5 -40t-53 -15q-34 0 -71 20t-59 43q-19 19 -52 58l-14 6q-30 0 -53 -16t-23 -39
q0 -10 10 -43l-22 -31q-13 0 -26 11.5z" />
    <glyph glyph-name="uni0201" unicode="&#x201;" horiz-adv-x="642" 
d="M520 -15.5q-9 2.5 -13 11.5t-7 31l-34 268q-37 10 -101 10q-23 0 -75 5t-71 5q-7 0 -10 -2t-4 -7q-1 -2 -1 -4t-1 -3l-4 -41q-5 -52 -23 -147q-11 -52 -24 -86q-15 -35 -31 -35q-13 0 -27 11.5t-14 23.5l2 6l2 6q34 131 62 289l23 127q7 37 14 83l12 72l22 135
q9 57 36 179q26 125 36 190l8 75l4 33q5 55 10 83q8 52 13 61l14 -1q6 -1 14 -1q25 0 37 12q14 0 25.5 -9t11.5 -22q0 -58 3.5 -106.5t11.5 -118.5l12 -108q25 -289 114 -992v-6q0 -21 -16 -30q-22 0 -31 2.5zM457 350q-15 215 -78 871q-106 -527 -111 -547
q-47 -233 -47 -298q0 -10 79 -18t136 -8h21zM512 1456q-48 36 -71 46q-39 27 -186 145q-13 7 -13 20q0 9 9 20t13 11q11 0 95.5 -63.5t164 -131.5t82.5 -81l-9 -11q-34 7 -85 45zM296 1439q-39 24 -74 48l-23 15q-24 15 -27 16q-77 41 -110 55l-107 60q3 16 17 33t25 17
q10 0 115 -60q34 -21 140 -101q97 -75 97 -90t-11 -15q-8 0 -42 22z" />
    <glyph glyph-name="adieresis" unicode="&#xe4;" horiz-adv-x="642" 
d="M520 -15.5q-9 2.5 -13 11.5t-7 31l-34 268q-37 10 -101 10q-23 0 -75 5t-71 5q-7 0 -10 -2t-4 -7q-1 -2 -1 -4t-1 -3l-4 -41q-5 -52 -23 -147q-11 -52 -24 -86q-15 -35 -31 -35q-13 0 -27 11.5t-14 23.5l2 6l2 6q34 131 62 289l23 127q7 37 14 83l12 72l22 135
q9 57 36 179q26 125 36 190l8 75l4 33q5 55 10 83q8 52 13 61l14 -1q6 -1 14 -1q25 0 37 12q14 0 25.5 -9t11.5 -22q0 -58 3.5 -106.5t11.5 -118.5l12 -108q25 -289 114 -992v-6q0 -21 -16 -30q-22 0 -31 2.5zM457 350q-15 215 -78 871q-106 -527 -111 -547
q-47 -233 -47 -298q0 -10 79 -18t136 -8h21zM486 1529.5q-13 14.5 -13 30.5q0 19 15.5 35t34.5 16q17 0 31 -16.5t14 -32.5q0 -47 -54 -47q-15 0 -28 14.5zM214.5 1523q-11.5 16 -11.5 35q0 18 15.5 34.5t33.5 16.5q20 0 30.5 -19.5t10.5 -47.5q0 -16 -15.5 -25.5
t-35.5 -9.5q-16 0 -27.5 16z" />
    <glyph glyph-name="uni0227" unicode="&#x227;" horiz-adv-x="642" 
d="M520 -15.5q-9 2.5 -13 11.5t-7 31l-34 268q-37 10 -101 10q-23 0 -75 5t-71 5q-7 0 -10 -2t-4 -7q-1 -2 -1 -4t-1 -3l-4 -41q-5 -52 -23 -147q-11 -52 -24 -86q-15 -35 -31 -35q-13 0 -27 11.5t-14 23.5l2 6l2 6q34 131 62 289l23 127q7 37 14 83l12 72l22 135
q9 57 36 179q26 125 36 190l8 75l4 33q5 55 10 83q8 52 13 61l14 -1q6 -1 14 -1q25 0 37 12q14 0 25.5 -9t11.5 -22q0 -58 3.5 -106.5t11.5 -118.5l12 -108q25 -289 114 -992v-6q0 -21 -16 -30q-22 0 -31 2.5zM457 350q-15 215 -78 871q-106 -527 -111 -547
q-47 -233 -47 -298q0 -10 79 -18t136 -8h21zM343.5 1515.5q-13.5 15.5 -13.5 33.5q0 20 16.5 37.5t36.5 17.5q18 0 33.5 -17.5t15.5 -35.5q0 -51 -57 -51q-18 0 -31.5 15.5z" />
    <glyph glyph-name="uni1EA1" unicode="&#x1ea1;" horiz-adv-x="642" 
d="M520 -15.5q-9 2.5 -13 11.5t-7 31l-34 268q-37 10 -101 10q-23 0 -75 5t-71 5q-7 0 -10 -2t-4 -7q-1 -2 -1 -4t-1 -3l-4 -41q-5 -52 -23 -147q-11 -52 -24 -86q-15 -35 -31 -35q-13 0 -27 11.5t-14 23.5l2 6l2 6q34 131 62 289l23 127q7 37 14 83l12 72l22 135
q9 57 36 179q26 125 36 190l8 75l4 33q5 55 10 83q8 52 13 61l14 -1q6 -1 14 -1q25 0 37 12q14 0 25.5 -9t11.5 -22q0 -58 3.5 -106.5t11.5 -118.5l12 -108q25 -289 114 -992v-6q0 -21 -16 -30q-22 0 -31 2.5zM457 350q-15 215 -78 871q-106 -527 -111 -547
q-47 -233 -47 -298q0 -10 79 -18t136 -8h21zM283.5 -224.5q-13.5 15.5 -13.5 33.5q0 20 16.5 37.5t36.5 17.5q18 0 33.5 -17.5t15.5 -35.5q0 -51 -57 -51q-18 0 -31.5 15.5z" />
    <glyph glyph-name="agrave" unicode="&#xe0;" horiz-adv-x="642" 
d="M520 -15.5q-9 2.5 -13 11.5t-7 31l-34 268q-37 10 -101 10q-23 0 -75 5t-71 5q-7 0 -10 -2t-4 -7q-1 -2 -1 -4t-1 -3l-4 -41q-5 -52 -23 -147q-11 -52 -24 -86q-15 -35 -31 -35q-13 0 -27 11.5t-14 23.5l2 6l2 6q34 131 62 289l23 127q7 37 14 83l12 72l22 135
q9 57 36 179q26 125 36 190l8 75l4 33q5 55 10 83q8 52 13 61l14 -1q6 -1 14 -1q25 0 37 12q14 0 25.5 -9t11.5 -22q0 -58 3.5 -106.5t11.5 -118.5l12 -108q25 -289 114 -992v-6q0 -21 -16 -30q-22 0 -31 2.5zM457 350q-15 215 -78 871q-106 -527 -111 -547
q-47 -233 -47 -298q0 -10 79 -18t136 -8h21zM362.5 1472.5q-97.5 34.5 -105.5 39.5q-17 -4 -33 -4q-70 0 -70 41q0 36 13 45h13q61 0 79 -23q2 -1 8.5 -3t16.5 -5q27 -9 81 -30q50 -20 84 -39q39 -22 39 -39q0 -6 -8.5 -11.5t-15.5 -5.5q-4 0 -101.5 34.5z" />
    <glyph glyph-name="uni1EA3" unicode="&#x1ea3;" horiz-adv-x="642" 
d="M520 -15.5q-9 2.5 -13 11.5t-7 31l-34 268q-37 10 -101 10q-23 0 -75 5t-71 5q-7 0 -10 -2t-4 -7q-1 -2 -1 -4t-1 -3l-4 -41q-5 -52 -23 -147q-11 -52 -24 -86q-15 -35 -31 -35q-13 0 -27 11.5t-14 23.5l2 6l2 6q34 131 62 289l23 127q7 37 14 83l12 72l22 135
q9 57 36 179q26 125 36 190l8 75l4 33q5 55 10 83q8 52 13 61l14 -1q6 -1 14 -1q25 0 37 12q14 0 25.5 -9t11.5 -22q0 -58 3.5 -106.5t11.5 -118.5l12 -108q25 -289 114 -992v-6q0 -21 -16 -30q-22 0 -31 2.5zM457 350q-15 215 -78 871q-106 -527 -111 -547
q-47 -233 -47 -298q0 -10 79 -18t136 -8h21zM359 1408v11q0 15 11.5 26t35.5 28q21 13 32 24t11 23q0 39 -66 39q-38 0 -56.5 -10t-18.5 -33q0 -13 3 -27q-13 -5 -20 -5q-29 0 -29 36q0 33 29 55.5t92 22.5q64 0 90 -20t26 -58q0 -19 -13.5 -33t-40.5 -33q-21 -15 -30.5 -24
t-9.5 -20v-13q-8 -13 -23 -13q-20 0 -23 24z" />
    <glyph glyph-name="uni0203" unicode="&#x203;" horiz-adv-x="642" 
d="M520 -15.5q-9 2.5 -13 11.5t-7 31l-34 268q-37 10 -101 10q-23 0 -75 5t-71 5q-7 0 -10 -2t-4 -7q-1 -2 -1 -4t-1 -3l-4 -41q-5 -52 -23 -147q-11 -52 -24 -86q-15 -35 -31 -35q-13 0 -27 11.5t-14 23.5l2 6l2 6q34 131 62 289l23 127q7 37 14 83l12 72l22 135
q9 57 36 179q26 125 36 190l8 75l4 33q5 55 10 83q8 52 13 61l14 -1q6 -1 14 -1q25 0 37 12q14 0 25.5 -9t11.5 -22q0 -58 3.5 -106.5t11.5 -118.5l12 -108q25 -289 114 -992v-6q0 -21 -16 -30q-22 0 -31 2.5zM457 350q-15 215 -78 871q-106 -527 -111 -547
q-47 -233 -47 -298q0 -10 79 -18t136 -8h21zM229 1448q0 76 31 139q16 33 46.5 51.5t71.5 18.5q39 0 75 -20q19 -10 41 -52l6 -12t10 -23t10 -23.5t6 -12.5l-5 -15l6 -15q5 -13 5 -17q0 -12 -9.5 -20.5t-21.5 -8.5q-37 0 -37 39q0 8 1 15q1 6 1 14q0 20 -10 44.5t-26.5 42
t-33.5 17.5h-51l-22 -16q-22 -16 -33 -50.5t-19 -81.5q-6 -30 -20 -32z" />
    <glyph glyph-name="amacron" unicode="&#x101;" horiz-adv-x="642" 
d="M520 -15.5q-9 2.5 -13 11.5t-7 31l-34 268q-37 10 -101 10q-23 0 -75 5t-71 5q-7 0 -10 -2t-4 -7q-1 -2 -1 -4t-1 -3l-4 -41q-5 -52 -23 -147q-11 -52 -24 -86q-15 -35 -31 -35q-13 0 -27 11.5t-14 23.5l2 6l2 6q34 131 62 289l23 127q7 37 14 83l12 72l22 135
q9 57 36 179q26 125 36 190l8 75l4 33q5 55 10 83q8 52 13 61l14 -1q6 -1 14 -1q25 0 37 12q14 0 25.5 -9t11.5 -22q0 -58 3.5 -106.5t11.5 -118.5l12 -108q25 -289 114 -992v-6q0 -21 -16 -30q-22 0 -31 2.5zM457 350q-15 215 -78 871q-106 -527 -111 -547
q-47 -233 -47 -298q0 -10 79 -18t136 -8h21zM227 1467q-33 7 -39 15q-5 7 -5 14q2 17 131 17h116q35 0 58 -0.5t46 -3.5q24 -3 34 -10t10 -19q-2 -17 -131 -17h-115h-40q-46 0 -65 4z" />
    </font>
</defs>
</svg>
